<svg xmlns="http://www.w3.org/2000/svg" viewBox="0 0 775.23 326.04"><defs><style>.cls-1{opacity:0.3;}.cls-2{fill:#009877;}</style></defs><title>06-3_背景字3</title><g id="圖層_2" data-name="圖層 2"><g id="圖層_1-2" data-name="圖層 1"><g class="cls-1"><path class="cls-2" d="M15.7,159.15c-5.78,0-10.53-1.84-13.65-5.35l-.3-.34,8.39-9.2.37.38a10,10,0,0,0,9,2.71c7-1.09,11.53-7.94,11.9-17.65-1.65,3.62-5.61,7.39-12.49,8.47-9.64,1.51-17.1-3.88-18.6-13.41C-1.67,112.29,6.7,101.35,19.75,99.3h0c12.32-1.93,20.74,5.61,23.1,20.69,1.59,10.1.26,19.16-3.84,26.18a25.32,25.32,0,0,1-18.52,12.59A31,31,0,0,1,15.7,159.15ZM3.1,153.46c3.75,3.94,9.84,5.47,17.24,4.31a24.32,24.32,0,0,0,17.8-12.1c4-6.83,5.27-15.65,3.73-25.52-2.3-14.67-10.1-21.72-22-19.86-12.48,2-20.49,12.41-18.63,24.32,1.42,9.08,8.27,14,17.45,12.58,9.52-1.49,11.87-8,12.25-9.24l.1-.36H32.4v.5c.09,11.07-4.92,19-12.78,20.25a11.15,11.15,0,0,1-9.45-2.63Zm16-25.41c-4.15,0-7.22-2.47-7.85-6.52a10.15,10.15,0,0,1,8.82-11.72c5.16-.8,8.61,1.46,10.55,6.92l0,.08v.09a11.13,11.13,0,0,1-9.79,11h0A11.91,11.91,0,0,1,19.09,128.05Zm1.61-1.13.08.49-.08-.49c5.33-.83,8.83-4.73,8.94-9.94-1.79-4.94-4.79-6.91-9.43-6.18a9.17,9.17,0,0,0-8,10.58C12.86,125.45,16.19,127.63,20.7,126.92Z"/><path class="cls-2" d="M63.73,151.63c-5.78,0-10.53-1.84-13.65-5.35l-.3-.34,8.39-9.21.37.39a10,10,0,0,0,9,2.71c7-1.09,11.52-8,11.9-17.65-1.65,3.62-5.61,7.39-12.49,8.47-9.64,1.51-17.11-3.88-18.6-13.41a21.61,21.61,0,0,1,4.17-16.74,23.8,23.8,0,0,1,15.3-8.72h0c6.13-1,11.28.37,15.29,4s6.63,9.22,7.81,16.74c1.58,10.1.25,19.16-3.85,26.18a25.3,25.3,0,0,1-18.51,12.59A31,31,0,0,1,63.73,151.63Zm-12.6-5.69c3.75,3.94,9.85,5.47,17.24,4.31a24.34,24.34,0,0,0,17.8-12.1c4-6.83,5.27-15.65,3.72-25.53-1.14-7.29-3.66-12.72-7.48-16.14s-8.65-4.63-14.48-3.71h0a22.81,22.81,0,0,0-14.66,8.34,20.62,20.62,0,0,0-4,16c1.42,9.07,8.27,14,17.45,12.57,9.51-1.49,11.87-8,12.25-9.23l.1-.36h1.32v.5c.09,11.07-4.93,19-12.78,20.24a11.1,11.1,0,0,1-9.45-2.62Zm16-25.41c-4.15,0-7.22-2.47-7.85-6.52a10,10,0,0,1,1.87-7.7,10.75,10.75,0,0,1,7-4c5.15-.8,8.61,1.45,10.55,6.92l0,.08v.09a11.13,11.13,0,0,1-9.79,11h0A11.91,11.91,0,0,1,67.12,120.53Zm2.9-17.4a11.25,11.25,0,0,0-1.78.15,9.72,9.72,0,0,0-6.31,3.64,9,9,0,0,0-1.67,6.93c.63,4.08,4,6.26,8.47,5.55h0c5.33-.84,8.83-4.73,8.94-9.94C76.12,105.18,73.67,103.13,70,103.13Z"/><path class="cls-2" d="M114.58,143.41l23.3-62.66,10.39-1.62-23.22,62.64Zm24-61.76-22.5,60.51,8.2-1.29,22.42-60.49Zm11.82,56.29c-6.93,0-12-4.56-13.17-12.17-1.69-10.78,4.44-19.76,14.57-21.35,8.27-1.29,14.49,3.5,15.85,12.21,1.7,10.81-4.31,19.48-14.6,21.09h0A17.49,17.49,0,0,1,150.44,137.94Zm4-32.72a15.65,15.65,0,0,0-2.42.19c-9.71,1.52-15.35,9.83-13.73,20.21,1.27,8.08,6.89,12.34,14.68,11.12h0c9.71-1.52,15.37-9.73,13.76-20C165.57,109.55,160.85,105.22,154.41,105.22Zm-2.52,24.13a4.8,4.8,0,0,1-3.38-1.35,8,8,0,0,1-2.14-4.62,11.18,11.18,0,0,1,1-7,6.55,6.55,0,0,1,4.77-3.49,4.92,4.92,0,0,1,4.34,1.34,8.24,8.24,0,0,1,2.18,4.71,10.63,10.63,0,0,1-1,6.89,6.67,6.67,0,0,1-4.84,3.42A5.42,5.42,0,0,1,151.89,129.35Zm.74-1.06.08.49-.08-.49a5.68,5.68,0,0,0,4.12-2.92,9.69,9.69,0,0,0,.89-6.25,7.21,7.21,0,0,0-1.89-4.14,4,4,0,0,0-3.49-1.07,5.56,5.56,0,0,0-4,3,10.11,10.11,0,0,0-.86,6.33,7,7,0,0,0,1.85,4A3.86,3.86,0,0,0,152.63,128.29Zm-44-9.36a12.75,12.75,0,0,1-7.9-2.54,14.6,14.6,0,0,1-5.26-9.63A19.51,19.51,0,0,1,98.26,92.6,17.21,17.21,0,0,1,110,85.42c8.3-1.3,14.54,3.49,15.9,12.2a19.08,19.08,0,0,1-2.9,14,18.05,18.05,0,0,1-14.4,7.28Zm4-32.72a15.71,15.71,0,0,0-2.43.2,16.15,16.15,0,0,0-11,6.76,18.48,18.48,0,0,0-2.68,13.44h0a13.55,13.55,0,0,0,4.88,9,12.47,12.47,0,0,0,9.79,2.14,16.39,16.39,0,0,0,11.08-6.66,18.08,18.08,0,0,0,2.73-13.3C123.76,90.54,119,86.21,112.57,86.21Zm-2.51,24.13a4.82,4.82,0,0,1-3.37-1.35,8,8,0,0,1-2.17-4.62,11.07,11.07,0,0,1,1-7,6.55,6.55,0,0,1,4.75-3.48,5,5,0,0,1,4.36,1.31,8,8,0,0,1,2.19,4.69c.85,5.42-1.57,9.68-5.88,10.35h0A5.1,5.1,0,0,1,110.06,110.34Zm1.1-15.49a4.74,4.74,0,0,0-.75.06,5.56,5.56,0,0,0-4,3,10.08,10.08,0,0,0-.88,6.34c.54,3.49,2.61,5.48,5.27,5.07h0c3.73-.58,5.8-4.37,5-9.21A7.12,7.12,0,0,0,113.93,96,3.9,3.9,0,0,0,111.16,94.85Z"/><path class="cls-2" d="M190.37,131.54l-2-62.07,12.61-2,2,62.07Zm-1-61.22,2,60.06L202,128.71l-2-60.06Z"/><path class="cls-2" d="M226,126.2a17.48,17.48,0,0,1-10.63-3.33c-3.74-2.8-6.17-7.13-7-12.53-2.15-13.68,6.19-25.16,19.83-27.29h0c5.53-.87,10.48.19,14.31,3.07s6.18,7.16,7,12.56a23,23,0,0,1-19.84,27.22A23.49,23.49,0,0,1,226,126.2Zm5.84-42.44a22.38,22.38,0,0,0-3.5.28h0a22.72,22.72,0,0,0-15.19,9,23,23,0,0,0-3.81,17.17c.81,5.14,3.1,9.25,6.63,11.89s8.29,3.67,13.56,2.85a22,22,0,0,0,19-26.08c-.81-5.14-3.1-9.27-6.64-11.92A16.46,16.46,0,0,0,231.84,83.76ZM228,116.3a6.87,6.87,0,0,1-4.86-1.92,11.4,11.4,0,0,1-3.06-6.59c-1.24-7.88,2.21-14.07,8.39-15,4.83-.75,8.4,2.48,9.34,8.45,1.23,7.85-2.26,14-8.49,15h0A8.56,8.56,0,0,1,228,116.3Zm1.17-1.09.07.49-.07-.49c5.64-.89,8.79-6.58,7.65-13.84-.84-5.36-4-8.28-8.2-7.63-5.59.88-8.7,6.6-7.55,13.9a10.34,10.34,0,0,0,2.76,6A6.09,6.09,0,0,0,229.21,115.21Z"/><path class="cls-2" d="M263.42,120.1l-13-40,13-2L270,103.17c.16.64.31,1.22.44,1.78.17-1,.38-2.11.64-3.46l5.19-24.91-.16-.44.58-.17,10.69-1.67,6.84,23.55c.3,1,.58,2.17.82,3.22.13-1,.31-2.24.54-3.53l4.49-25.23,12.85-2L303,113.89l-14.09,2.21-6-20.35c-.15-.5-.31-1.19-.46-1.89-.1.78-.21,1.55-.33,2.13l-4.74,21.92ZM251.76,80.89,264.11,119l12.45-2,4.59-21.25c.27-1.31.51-3.71.58-4.61l0-.39,1.17-.18.06.52a32.89,32.89,0,0,0,.89,4.34L289.65,115l12.56-2,9.4-41.5-10.69,1.68-4.36,24.52c-.45,2.53-.71,4.8-.8,5.66l0,.38-1.12.18-.09-.48c-.25-1.32-.74-3.51-1.26-5.32l-6.6-22.71-9.43,1.48-5.17,24.78c-.46,2.34-.73,4-.95,5.56l-.05.37-1.14.18-.06-.51a29.14,29.14,0,0,0-.83-3.86l-.34-1.34-6-22.91Z"/><path class="cls-2" d="M347.94,107.18c-7.86,0-13.72-5.9-15.26-15.67-1.12-7.21.08-13.71,3.48-18.81A19.77,19.77,0,0,1,349.65,64c5.55-.86,8.93.86,10.94,2.83l-.79-24.24,12.61-2,2,62.06-10.41,2-.11-.47c-.41-1.77-.91-4.55-1.17-6.42A15.47,15.47,0,0,1,350.54,107,16.72,16.72,0,0,1,347.94,107.18Zm4.51-42.38a17.56,17.56,0,0,0-2.64.21A18.74,18.74,0,0,0,337,73.25c-3.27,4.89-4.42,11.15-3.33,18.1,1.6,10.23,8.18,16,16.72,14.64a14.73,14.73,0,0,0,12-9.92l.1-.28,1.09-.17v.58a60.69,60.69,0,0,0,1.19,7.35l8.62-1.67-2-60.08-10.62,1.66.86,26.27-.94-1.21A10,10,0,0,0,352.45,64.8Zm-.23,31.82c-4,0-7.06-3.12-7.87-8.28-1.22-7.75,2.12-13.83,8.1-14.76A7.81,7.81,0,0,1,358.5,75a9.41,9.41,0,0,1,3.55,6.32l.15,4.47c-.26,4.62-3.39,9.93-8.68,10.76h0A8.22,8.22,0,0,1,352.22,96.62Zm1.64-22.16a9.15,9.15,0,0,0-1.26.1c-5.4.85-8.39,6.45-7.26,13.63.81,5.18,3.89,8,8,7.34h0C358,94.81,361,90,361.2,85.75l-.14-4.37a8.42,8.42,0,0,0-3.16-5.61A6.69,6.69,0,0,0,353.86,74.46Z"/><path class="cls-2" d="M393.88,100a11.68,11.68,0,0,1-7.69-2.58c-3.05-2.53-4.74-6.73-4.91-12.14l-.85-25.53,12.65-2,.8,23.54c.08,2.66.82,4.65,2.14,5.75a5,5,0,0,0,4.11.9c4.32-.68,6.38-5.71,6.46-10.11l-.73-22.08,12.61-2,1.39,41.81-10.3,2-.13-.44a54.86,54.86,0,0,1-1.33-6.31,14.27,14.27,0,0,1-11.38,8.91A17.79,17.79,0,0,1,393.88,100ZM381.46,60.58l.82,24.64c.16,5.12,1.73,9.06,4.55,11.4,2.47,2,5.74,2.76,9.73,2.14,5.55-.87,9.32-4.18,11.2-9.84l.09-.29,1-.15,0,.55a50.05,50.05,0,0,0,1.38,7.39l8.56-1.66-1.32-39.83-10.62,1.66.7,21.23c-.09,4.82-2.41,10.33-7.3,11.1a6,6,0,0,1-4.91-1.12c-1.55-1.29-2.41-3.53-2.5-6.49l-.76-22.4Z"/><path class="cls-2" d="M438,92.85c-8.11,0-12.21-3.1-13.06-3.84l-.33-.28,5.68-8.88.44.41c.43.41,6.16,3.85,12,2.93a8.42,8.42,0,0,0,4.09-1.53,2.41,2.41,0,0,0,.94-2.32c-.31-1.93-3.47-2.31-7.13-2.75-6-.71-13.51-1.61-14.77-9.64a13,13,0,0,1,3.65-11.45c3-3.08,7.48-5.16,13-6a18.87,18.87,0,0,1,11.32,1.28,9.54,9.54,0,0,1,5.42,7.11,9.94,9.94,0,0,1-.21,4l-.08.29-11.3,2.45.22-.8a5.48,5.48,0,0,0,.07-2c-.41-2.58-2.39-3.78-5.45-3.3-3.41.53-5.29,2.41-4.91,4.9.42,2.64,4,2.88,8.17,3.16,6,.4,13.44.9,14.71,9,1.32,8.39-5.28,15-16.81,16.79A36.81,36.81,0,0,1,438,92.85ZM426,88.53c1.58,1.21,7.05,4.52,17.55,2.87,10.93-1.71,17.2-7.85,16-15.65-1.15-7.35-7.86-7.8-13.78-8.19-4.4-.3-8.56-.57-9.09-4-.48-3.06,1.77-5.43,5.74-6.05,3.57-.56,6.1,1,6.58,4.13a6,6,0,0,1,0,1.63l9.18-2a9.29,9.29,0,0,0,.11-3.26,8.45,8.45,0,0,0-4.88-6.37,17.85,17.85,0,0,0-10.72-1.18c-5.27.82-9.56,2.81-12.4,5.73a12,12,0,0,0-3.38,10.59c1.14,7.29,8.22,8.13,13.9,8.81,4.06.48,7.57.9,8,3.59a3.37,3.37,0,0,1-1.28,3.24,9.38,9.38,0,0,1-4.57,1.75c-5.31.83-10.66-1.7-12.38-2.83Z"/><path class="cls-2" d="M481.9,86.14a12.38,12.38,0,0,1-8.14-2.6c-3.1-2.56-4.77-7-5-13.16L468.32,56l-5.9.92-.33-10,6.33-1L468,34.5l12.17-2.38L480.6,44,494,41.94l.33,10L480.94,54l.48,14c.11,2.91.73,4.8,1.9,5.75a4.74,4.74,0,0,0,3.9.7,10.27,10.27,0,0,0,5.76-3l.53-.61,4,9.83-.27.23c-.17.15-4.26,3.72-11.86,4.91A22,22,0,0,1,481.9,86.14Zm-12.61-31.3.5,15.5c.19,5.88,1.74,10.06,4.61,12.43,2.55,2.12,6.21,2.82,10.86,2.1a24.79,24.79,0,0,0,11.08-4.46l-3.16-7.71a11.37,11.37,0,0,1-5.81,2.77,5.66,5.66,0,0,1-4.69-.91c-1.4-1.15-2.14-3.28-2.26-6.49h0l-.51-14.89,13.35-2.09-.26-8L479.64,45.2l-.41-11.87-10.18,2,.4,11.48-6.33,1,.26,8Z"/><path class="cls-2" d="M505.85,82.57a6.27,6.27,0,0,1-6.21-5.5h0a7.85,7.85,0,0,1,1.52-5.91A8.16,8.16,0,0,1,506.35,68a6.28,6.28,0,0,1,4.81,1.19,6.66,6.66,0,0,1,2.52,4.3,7.65,7.65,0,0,1-1.57,5.88,8.31,8.31,0,0,1-5.2,3.15A7.68,7.68,0,0,1,505.85,82.57Zm-5.22-5.65a5.29,5.29,0,0,0,6.12,4.58,7.29,7.29,0,0,0,4.57-2.77,6.68,6.68,0,0,0,1.37-5.11A5.65,5.65,0,0,0,510.56,70a5.29,5.29,0,0,0-4.05-1,7.15,7.15,0,0,0-4.55,2.8,6.83,6.83,0,0,0-1.33,5.16Z"/><path class="cls-2" d="M527,78.82l.21-.75,17.15-60.36,13.75-2.15.14.37,21,54.7L566,72.71l-4-11.64-18.27,2.87-3.24,12.78ZM545.11,18.6l-16.75,59,11.25-1.76,3.24-12.78L562.6,60l4,11.64,11.23-1.76L557.44,16.67ZM545,54.48,549.71,36a56.49,56.49,0,0,0,1.37-6.7l0-.38,1.1-.17.1.46a54.12,54.12,0,0,0,1.77,6.16l5.81,16.78Zm6.76-23.22c-.26,1.41-.62,3.08-1.11,5l-4.31,17,12.19-1.91-5.41-15.63C552.67,34.37,552.18,32.76,551.79,31.26Z"/><path class="cls-2" d="M597.08,68.06a17.74,17.74,0,0,1-10.71-3.25c-3.7-2.72-6.1-7-6.94-12.36C577.26,38.64,585.49,27.09,599,25h0c4.58-.71,8.62,0,11.69,2.05a12.62,12.62,0,0,1,5.38,8.72,13.25,13.25,0,0,1-.09,4.75l-.07.3-11.21,2.43.15-.75a8,8,0,0,0,0-2.54c-.49-3.12-2.59-4.71-5.61-4.23a8.09,8.09,0,0,0-5.91,4.37,15,15,0,0,0-1.2,9.27c.52,3.3,2.4,8.69,9.23,7.62a14.59,14.59,0,0,0,9.84-6.16l.36-.54,6.5,7.3-.19.32c-2.29,3.85-7.9,8.46-16.79,9.85A25.65,25.65,0,0,1,597.08,68.06Zm2-42.1c-12.92,2-20.79,13.1-18.72,26.33.8,5.11,3.07,9.16,6.55,11.72s8.46,3.6,14,2.73c8.3-1.3,13.6-5.47,15.89-9.06l-5.15-5.8A15.7,15.7,0,0,1,601.55,58c-5.62.88-9.4-2.2-10.38-8.46a16,16,0,0,1,1.31-9.89,9.07,9.07,0,0,1,6.63-4.89c3.53-.55,6.19,1.44,6.76,5.07a8.84,8.84,0,0,1,0,2.15l9.13-2a13,13,0,0,0,0-4.06,11.49,11.49,0,0,0-4.94-8c-2.86-1.91-6.66-2.56-11-1.89Z"/><path class="cls-2" d="M638.56,61.56c-9.48,0-16.09-5.72-17.64-15.61a24.45,24.45,0,0,1,4-18.15,23.32,23.32,0,0,1,15.59-9.32h0c9-1.41,15.84,2.91,17.07,10.76a13.1,13.1,0,0,1-.08,4.75l-.08.3-11.21,2.43.16-.75a7.79,7.79,0,0,0,0-2.54c-.49-3.12-2.58-4.7-5.61-4.23a8.06,8.06,0,0,0-5.9,4.37,15,15,0,0,0-1.21,9.27c.52,3.3,2.4,8.69,9.24,7.62a14.59,14.59,0,0,0,9.84-6.16l.36-.54,6.49,7.3-.18.32c-2.29,3.85-7.91,8.46-16.79,9.85A26.19,26.19,0,0,1,638.56,61.56Zm5.28-42.35a20,20,0,0,0-3.21.26h0a22.3,22.3,0,0,0-14.94,8.92,23.4,23.4,0,0,0-3.78,17.4c1.67,10.64,9.54,16.18,20.54,14.46,8.3-1.3,13.61-5.48,15.9-9.07l-5.16-5.8A15.64,15.64,0,0,1,643,51.45c-5.62.88-9.4-2.2-10.38-8.46A16,16,0,0,1,634,33.1a9,9,0,0,1,6.63-4.89c3.52-.56,6.18,1.44,6.75,5.07a8.36,8.36,0,0,1,0,2.15l9.14-2a13.08,13.08,0,0,0,0-4.06C655.55,23,650.69,19.21,643.84,19.21Z"/><path class="cls-2" d="M680.07,55.09a17.42,17.42,0,0,1-10.63-3.34c-3.74-2.79-6.17-7.13-7-12.53a24,24,0,0,1,4-17.92,23.81,23.81,0,0,1,15.85-9.37h0c5.53-.86,10.48.2,14.31,3.08s6.18,7.15,7,12.56a23.92,23.92,0,0,1-4,17.93,23.91,23.91,0,0,1-15.87,9.29A23.49,23.49,0,0,1,680.07,55.09Zm2.34-42.17a22.75,22.75,0,0,0-15.19,9,23,23,0,0,0-3.8,17.18c.8,5.14,3.09,9.24,6.62,11.88s8.29,3.68,13.56,2.85a22.85,22.85,0,0,0,15.21-8.89,23,23,0,0,0,3.8-17.19c-.81-5.14-3.1-9.26-6.64-11.92s-8.29-3.7-13.56-2.88Zm-.3,32.27a6.9,6.9,0,0,1-4.86-1.93,11.37,11.37,0,0,1-3.06-6.58,16,16,0,0,1,1.35-9.95,9.54,9.54,0,0,1,7-5.09c4.83-.75,8.4,2.49,9.34,8.46A15.82,15.82,0,0,1,690.54,40a9.69,9.69,0,0,1-7.11,5h0A8.6,8.6,0,0,1,682.11,45.19Zm1.17-1.1.07.5-.07-.5a8.56,8.56,0,0,0,6.38-4.53,14.76,14.76,0,0,0,1.27-9.31c-.84-5.36-4-8.27-8.2-7.62a8.44,8.44,0,0,0-6.31,4.57,15,15,0,0,0-1.24,9.33C676,41.84,679.1,44.74,683.28,44.09Z"/><path class="cls-2" d="M710.34,50.1,709,8.29l10-2,.15.4a38.32,38.32,0,0,1,1.52,6.74,14.22,14.22,0,0,1,11.51-9.28c6.19-1,10.91,1.23,13.43,6.19,2-5.74,6.14-9.25,12-10.16l.16,0h0c4.12-.61,7.68.21,10.3,2.38,3.06,2.53,4.76,6.73,4.93,12.14l.84,25.45-12.65,2-.79-23.46c-.07-2.7-.8-4.71-2.1-5.79A4.89,4.89,0,0,0,754.2,12c-4.69.73-6.47,5.6-6.56,9.91l.73,22.21-12.65,2-.79-23.46c-.07-2.7-.8-4.7-2.1-5.78a4.86,4.86,0,0,0-4.06-.88c-4.89.77-6.6,6-6.57,10.33L723,48.13Zm-.36-41,1.32,39.83,10.62-1.66-.72-20.92c0-4.7,1.9-10.47,7.42-11.34a5.84,5.84,0,0,1,4.85,1.1c1.53,1.27,2.38,3.53,2.46,6.52L736.69,45l10.66-1.67L746.64,22c.1-4.74,2.1-10.08,7.41-10.91a5.87,5.87,0,0,1,4.85,1.09c1.53,1.28,2.38,3.53,2.46,6.53L762.11,41l10.66-1.67L772,14.75c-.16-5.11-1.74-9-4.57-11.4-2.46-2-5.71-2.76-9.66-2.14l-.16,0c-5.81,1-9.65,4.56-11.4,10.68l-.4,1.4L745.23,12c-2.16-5.33-6.73-7.74-12.89-6.78-7.09,1.11-10,6.14-11.26,10.16l-.09.3-1.1.17,0-.55a39.65,39.65,0,0,0-1.51-7.78Z"/><path class="cls-2" d="M16.45,262l-2-59.46,10.1-2,.14.41a36.07,36.07,0,0,1,1.48,6.45,15.22,15.22,0,0,1,12.18-9.17l.07.49-.07-.49c9.15-1.44,16.16,4.67,17.87,15.56,1.12,7.19,0,13.65-3.36,18.69a19.81,19.81,0,0,1-13.62,8.7c-5.51.86-8.91-.92-10.93-2.95L29.06,260Zm-.94-58.64,1.91,57.47L28,259.15l-.8-23.84,1,1.24c2.4,3.13,6.18,4.39,10.92,3.65a18.74,18.74,0,0,0,12.94-8.26c3.19-4.83,4.3-11.05,3.21-18-1.63-10.44-8-16.09-16.73-14.72h0a14.41,14.41,0,0,0-11.94,9.9l-.1.28-1.12.18V209a35.17,35.17,0,0,0-1.44-7.31ZM35,231.75a7.51,7.51,0,0,1-4.58-1.48,9.79,9.79,0,0,1-3.59-6.61l-.13-3.75c0-4.86,3.28-10.37,8.67-11.22,4.72-.73,8.23,2.45,9.14,8.32a15.33,15.33,0,0,1-1.33,9.8,9.27,9.27,0,0,1-6.08,4.7v0l-.67.11A8.9,8.9,0,0,1,35,231.75Zm1.69-22.16a7.88,7.88,0,0,0-1.17.09c-4.86.76-7.79,5.79-7.82,10.21l.12,3.68a8.82,8.82,0,0,0,3.2,5.9,6.71,6.71,0,0,0,5.09,1.21l.17,0a8.1,8.1,0,0,0,6-4.32,14.55,14.55,0,0,0,1.23-9.16C42.8,212.34,40.28,209.59,36.72,209.59Z"/><path class="cls-2" d="M63.17,236.93l-2-62.08,12.61-2,2,62.07Zm-1-61.22,2,60,10.62-1.66-2-60.06Z"/><path class="cls-2" d="M83.62,233.72l-1.39-41.81,12.64-2.37,1.4,42.2Zm-.36-41,1.32,39.83,10.66-1.67-1.33-40.15Zm3.85-6.46A7.1,7.1,0,0,1,83,185a6.91,6.91,0,0,1-2.81-4.64,8.36,8.36,0,0,1,1.73-6.52,9.28,9.28,0,0,1,5.86-3.41A6.91,6.91,0,0,1,96,176.32c.74,4.74-2.61,9.06-7.64,9.85h0A8.1,8.1,0,0,1,87.11,186.27Zm2-14.9a7.27,7.27,0,0,0-1.13.09,8.25,8.25,0,0,0-5.23,3,7.34,7.34,0,0,0-1.53,5.74,5.82,5.82,0,0,0,2.4,4,6.35,6.35,0,0,0,4.65,1h0c4.47-.7,7.46-4.52,6.8-8.7A5.86,5.86,0,0,0,89.09,171.37Z"/><path class="cls-2" d="M114.47,229c-8.12,0-12.21-3.1-13.06-3.84l-.33-.28,5.68-8.87.43.41c.75.69,6.48,3.8,12,2.92a8.46,8.46,0,0,0,4.09-1.53,2.37,2.37,0,0,0,.93-2.32c-.3-1.93-3.46-2.31-7.12-2.75-6-.71-13.51-1.61-14.77-9.64A13,13,0,0,1,106,191.64c3-3.08,7.47-5.16,13-6a18.88,18.88,0,0,1,11.32,1.28A9.56,9.56,0,0,1,135.7,194a9.94,9.94,0,0,1-.21,4l-.09.29-11.29,2.45.22-.8a5.33,5.33,0,0,0,.06-2,3.8,3.8,0,0,0-1.66-2.75,5.39,5.39,0,0,0-3.78-.55,6.75,6.75,0,0,0-4,1.84,3.57,3.57,0,0,0-.92,3.06c.42,2.64,4,2.88,8.17,3.16,6,.4,13.44.9,14.71,9,1.31,8.39-5.28,15-16.81,16.79A36.81,36.81,0,0,1,114.47,229Zm-12.08-4.32c1.59,1.21,7,4.52,17.56,2.87,10.93-1.71,17.2-7.85,16-15.65-1.15-7.35-7.86-7.8-13.78-8.19-4.4-.3-8.56-.57-9.09-4a4.56,4.56,0,0,1,1.16-3.89,7.74,7.74,0,0,1,4.58-2.16,6.36,6.36,0,0,1,4.47.7,4.75,4.75,0,0,1,2.11,3.43,6,6,0,0,1,0,1.63l9.18-2a9.29,9.29,0,0,0,.11-3.26,8.48,8.48,0,0,0-4.88-6.37,17.78,17.78,0,0,0-10.72-1.18c-5.28.82-9.56,2.81-12.4,5.73a12,12,0,0,0-3.38,10.59c1.14,7.29,8.22,8.13,13.9,8.81,4.06.48,7.57.9,8,3.59a3.37,3.37,0,0,1-1.28,3.24,9.38,9.38,0,0,1-4.57,1.75c-5.31.83-10.66-1.7-12.38-2.83Z"/><path class="cls-2" d="M143.4,224.36l-2-62.07,12.43-1.95.88,25.78a14.12,14.12,0,0,1,11-7.82c4.33-.68,7.89.11,10.59,2.35,3,2.52,4.73,6.72,4.9,12.13l.85,25.53-12.65,2-.8-23.53c-.07-2.67-.8-4.65-2.11-5.74a5,5,0,0,0-4.19-.9c-4.94.77-6.83,5.83-7,9.93l.73,22.33Zm-1-61.22,2,60.06L155,221.53l-.7-21.47c.13-4.52,2.25-10.06,7.79-10.93a6,6,0,0,1,5,1.12c1.54,1.28,2.39,3.52,2.47,6.48l.76,22.4L181,217.46l-.82-24.64c-.16-5.13-1.73-9.07-4.54-11.4-2.46-2-5.76-2.76-9.79-2.13a13.27,13.27,0,0,0-10.9,8.69l-.11.26-1.07.17-.92-26.91Z"/><path class="cls-2" d="M204.9,214.94a17.9,17.9,0,0,1-10.78-3.26c-3.74-2.74-6.17-7.05-7-12.46a24.52,24.52,0,0,1,3.78-17.93,22.87,22.87,0,0,1,15.45-9.36h0c9.95-1.55,17.14,3.93,18.77,14.32a22.2,22.2,0,0,1-.05,7.16l-.07.34-25.31,4c.87,3.18,3.32,7.75,10.16,6.68a13.69,13.69,0,0,0,9.38-6l.35-.48,6.3,6.33-.19.33c-2.24,3.92-7.82,8.61-16.74,10A25.64,25.64,0,0,1,204.9,214.94Zm1.51-42.51.08.49a21.89,21.89,0,0,0-14.78,8.94,23.5,23.5,0,0,0-3.61,17.21c.8,5.14,3.09,9.22,6.61,11.8s8.52,3.63,14.08,2.76c8.32-1.3,13.58-5.54,15.83-9.19l-4.94-4.95a14.49,14.49,0,0,1-9.69,5.9c-5.86.91-10-2-11.41-8l-.13-.52,25.68-4a21.84,21.84,0,0,0,0-6.48c-1.53-9.77-8.28-14.94-17.63-13.48Zm-8.33,19.37.07-.64c.53-5.56,3.78-9.47,8.49-10.21a6.32,6.32,0,0,1,5.37,1.48,8.76,8.76,0,0,1,2.57,5.26c.06.37.1.71.13,1l0,.47Zm9.75-9.94a7.26,7.26,0,0,0-1,.08h0c-4.12.65-6.92,3.87-7.58,8.67l14.44-2.27c0-.16,0-.32-.07-.5C213,184.07,210.83,181.86,207.83,181.86Z"/><path class="cls-2" d="M245.09,208.76a13.57,13.57,0,0,1-9.3-3.53c-3.09-2.77-5.14-7-5.95-12.15-1.13-7.21.07-13.71,3.48-18.81a19.75,19.75,0,0,1,13.48-8.67c5.55-.87,8.93.85,10.94,2.82L257,144.19l12.61-2,2,62.06-10.41,2-.1-.47c-.42-1.78-.92-4.56-1.18-6.43a15.47,15.47,0,0,1-12.21,9.16A16.56,16.56,0,0,1,245.09,208.76Zm4.51-42.39a16.39,16.39,0,0,0-2.64.22,18.73,18.73,0,0,0-12.81,8.23c-3.27,4.89-4.42,11.15-3.33,18.11.78,4.94,2.73,8.94,5.64,11.56a13,13,0,0,0,11.08,3.07,14.7,14.7,0,0,0,12-9.92l.1-.28,1.09-.16v.57a60.38,60.38,0,0,0,1.19,7.35l8.62-1.67-2-60.07L258,145l.86,26.27-.94-1.22A10,10,0,0,0,249.6,166.37Zm.11,31.87,0-.05a6.89,6.89,0,0,1-5.16-1.83,10.85,10.85,0,0,1-3.08-6.44,15.76,15.76,0,0,1,1.36-9.91,9.23,9.23,0,0,1,6.74-4.86,7.89,7.89,0,0,1,6.05,1.39,9.46,9.46,0,0,1,3.56,6.33l.14,4.46c-.26,4.63-3.39,9.94-8.68,10.76ZM251,176a7.64,7.64,0,0,0-1.26.1,8.27,8.27,0,0,0-6,4.35,14.75,14.75,0,0,0-1.24,9.27,9.94,9.94,0,0,0,2.76,5.87,6.11,6.11,0,0,0,5.27,1.47l.16,0c4.5-.81,7.43-5.56,7.68-9.76l-.15-4.37a8.45,8.45,0,0,0-3.16-5.61A6.67,6.67,0,0,0,251,176Z"/><path class="cls-2" d="M295.72,200.51l-2-62.08,12.61-2,.81,25a15.36,15.36,0,0,1,11.08-7.06h0c9.15-1.44,16.17,4.67,17.87,15.55,2.19,14-4.95,25.51-17,27.4-5.45.86-9.9-.92-12.71-5a44,44,0,0,1-.73,6.26l-.07.34Zm-1-61.23,2,60.06,8.05-1.26a36.22,36.22,0,0,0,.64-7.41l0-.47.81-.11.21.3c2.49,4.74,6.95,6.87,12.57,6,11.46-1.79,18.26-12.84,16.15-26.25-1.61-10.29-8.17-16.06-16.73-14.72h0a14.4,14.4,0,0,0-11.22,8.1l-.88,1.8-.91-27.69Zm20.17,48.65a7.63,7.63,0,0,1-4.87-1.69,9.36,9.36,0,0,1-3.31-6.79l-.12-3.65c.12-4.68,3.2-10.08,8.67-10.93,4.82-.76,8.26,2.31,9.18,8.22,1.21,7.73-2.12,13.78-8.11,14.72h0A8.93,8.93,0,0,1,314.88,187.93Zm1.29-1.11.08.5-.08-.5c5.49-.86,8.41-6.31,7.27-13.58-.84-5.36-3.77-8.05-8-7.38-4.76.74-7.72,5.63-7.83,9.93l.12,3.61a8.36,8.36,0,0,0,2.93,6.06A6.89,6.89,0,0,0,316.17,186.82Z"/><path class="cls-2" d="M345.71,210.67a13.74,13.74,0,0,1-4.75-.73l-.37-.15,1.56-10.3.58.23a9.76,9.76,0,0,0,4.49.41c3-.47,4.83-2.14,6.14-5.59l.54-1.82-17.53-40.63L349.88,150l8.48,23.38a24.83,24.83,0,0,1,1,3.12c.21-1.16.42-2.14.69-3.47l6.6-25.66,12.8-2-.22.76-14.59,48.77c-2.55,8.81-8.23,14.34-16,15.56A19.65,19.65,0,0,1,345.71,210.67Zm-4-1.54a15.73,15.73,0,0,0,6.77.32c7.36-1.15,12.76-6.43,15.19-14.85l14.36-48-10.58,1.66-6.43,25c-.43,2-.69,3.25-1,5.56l-.06.36-1.07.17-.08-.49a22.37,22.37,0,0,0-1.35-5.14l-8.2-22.61-11.42,1.79L355,192.65l-.67,2.21c-1.44,3.81-3.57,5.73-6.92,6.25a10.44,10.44,0,0,1-4.42-.27Z"/><path class="cls-2" d="M399.54,184.25l-1.39-41.82,12.64-2.37,1.4,42.2Zm-.36-41,1.32,39.83,10.66-1.67-1.33-40.15Zm3.84-6.46a6.74,6.74,0,0,1-6.88-5.87,8.37,8.37,0,0,1,1.72-6.52,9.28,9.28,0,0,1,5.86-3.41,7.37,7.37,0,0,1,5.42,1.17,7,7,0,0,1,2.82,4.68,8.22,8.22,0,0,1-1.76,6.5,9.33,9.33,0,0,1-5.88,3.35h0A8.31,8.31,0,0,1,403,136.79Zm2-14.9a7.14,7.14,0,0,0-1.12.09,8.25,8.25,0,0,0-5.23,3,7.38,7.38,0,0,0-1.53,5.74,5.89,5.89,0,0,0,7.05,4.94h0a8.4,8.4,0,0,0,5.25-3A7.24,7.24,0,0,0,411,127a6,6,0,0,0-2.41-4A6.05,6.05,0,0,0,405,121.89Z"/><path class="cls-2" d="M420,181l-1.38-41.82,10.06-2,.14.41a39.47,39.47,0,0,1,1.54,6.9,14.91,14.91,0,0,1,12-9.6l.08.49-.08-.49c4.21-.66,7.84.15,10.48,2.35,3.06,2.53,4.76,6.73,4.92,12.15l.86,25.52L446,177l-.81-23.53c-.07-2.66-.8-4.64-2.12-5.74a5,5,0,0,0-4.13-.91c-4.85.76-7,5.73-7,10.33l.72,21.94Zm-.35-41L421,179.87l10.62-1.66-.7-21.07c0-5,2.4-10.49,7.83-11.34a6,6,0,0,1,4.93,1.13c1.55,1.29,2.41,3.53,2.48,6.48l.77,22.4,10.66-1.67-.83-24.64c-.15-5.12-1.73-9.07-4.55-11.41-2.46-2-5.72-2.75-9.69-2.13h0c-5.8.9-9.73,4.38-11.69,10.32l-.1.29-1.14.18,0-.56a39.22,39.22,0,0,0-1.52-7.78Z"/><path class="cls-2" d="M466,173.83,464.64,132l10.06-2,.14.41a39.47,39.47,0,0,1,1.54,6.9,14.91,14.91,0,0,1,12-9.6l.08.49-.07-.49c4.2-.66,7.83.15,10.48,2.35,3.05,2.53,4.75,6.73,4.91,12.14l.86,25.53-12.65,2-.81-23.53c-.06-2.66-.8-4.64-2.12-5.74a5,5,0,0,0-4.13-.91c-4.85.76-7,5.73-7,10.33l.73,21.94Zm-.35-41L467,172.67,477.61,171l-.7-21.08c0-5,2.4-10.48,7.83-11.33a6,6,0,0,1,4.93,1.13c1.55,1.29,2.41,3.53,2.48,6.48l.77,22.4,10.66-1.67-.83-24.65c-.15-5.11-1.73-9.06-4.55-11.4-2.46-2-5.72-2.76-9.69-2.14h0c-5.79.91-9.73,4.38-11.69,10.32l-.1.29-1.14.18,0-.55a39.09,39.09,0,0,0-1.52-7.78Z"/><path class="cls-2" d="M527.23,164.49a17.45,17.45,0,0,1-10.62-3.33c-3.75-2.8-6.17-7.14-7-12.54-2.14-13.67,6.2-25.15,19.83-27.29h0c5.54-.86,10.49.2,14.32,3.08s6.17,7.16,7,12.56a23,23,0,0,1-19.84,27.22A23.52,23.52,0,0,1,527.23,164.49Zm2.35-42.17c-13.06,2.05-21.05,13-19,26.15.81,5.14,3.1,9.25,6.63,11.88s8.29,3.68,13.55,2.85a22,22,0,0,0,19-26.07c-.8-5.15-3.1-9.27-6.63-11.92s-8.3-3.71-13.56-2.89Zm-.32,32.27c-4.09,0-7.06-3.15-7.91-8.51-1.23-7.89,2.22-14.07,8.4-15a7.2,7.2,0,0,1,6.24,1.83,11.39,11.39,0,0,1,3.09,6.63c1.23,7.85-2.26,14-8.48,15h0A8.86,8.86,0,0,1,529.26,154.59Zm1.18-1.09.08.49-.08-.49c5.65-.89,8.79-6.58,7.66-13.84a10.52,10.52,0,0,0-2.8-6.06,6.16,6.16,0,0,0-5.4-1.57c-5.59.88-8.7,6.59-7.56,13.9C523.18,151.25,526.27,154.14,530.44,153.5Z"/><path class="cls-2" d="M567.1,158l-16.32-39.49,13.5-2.11,8.57,23.36a27,27,0,0,1,1,3.12c.19-1.2.39-2.17.69-3.47l7.05-25.72,12.72-2-13.47,44.15Zm-14.91-38.7,15.53,37.59L580,155l12.82-42-10.5,1.65-6.87,25.08a46.57,46.57,0,0,0-1,5.53l0,.37-1.13.18-.07-.5a22.39,22.39,0,0,0-1.35-5.13l-8.29-22.6Z"/><path class="cls-2" d="M606.86,152.06a12.21,12.21,0,0,1-6.39-1.58,9.51,9.51,0,0,1-4.35-6.91c-.84-5.36,1.12-9.68,5.81-12.84,4-2.67,10-4.6,18.3-5.91h.06l0-1.37a5.8,5.8,0,0,0-1.78-4.45,5.58,5.58,0,0,0-4.59-.9,8.42,8.42,0,0,0-4.71,2.06,3.91,3.91,0,0,0-1.12,3.53,3.78,3.78,0,0,0,.3.92l.24.51-11,3.67-.15-.48a19.33,19.33,0,0,1-.58-2.56c-1.37-8.74,5.46-15.82,17-17.63,6-.94,10.7-.06,13.94,2.63,3,2.46,4.54,6.3,4.69,11.42l.43,13.4a2.2,2.2,0,0,0,.5,1.62,1.51,1.51,0,0,0,1.18.17h0a4.84,4.84,0,0,0,1.28-.41l.65-.29.82,10-.33.15a24.61,24.61,0,0,1-5.71,1.61c-5.06.8-8.2-.53-9.52-4.07-1.54,2.7-4.87,6.37-11.83,7.46A20,20,0,0,1,606.86,152.06ZM615.29,117a5.79,5.79,0,0,1,3.82,1.24,6.73,6.73,0,0,1,2.14,5.18l.07,2.26-.93.15c-8.2,1.28-14,3.16-17.9,5.75-4.4,3-6.16,6.84-5.38,11.85a8.52,8.52,0,0,0,3.88,6.21c2.2,1.35,5.25,1.76,8.82,1.2,7.54-1.18,10.54-5.53,11.65-8l.61-1.35.34,1.45c.92,3.94,3.62,5.34,8.76,4.54A24.92,24.92,0,0,0,636.3,146l-.64-7.92a5.6,5.6,0,0,1-.9.22,2.37,2.37,0,0,1-2-.37,3,3,0,0,1-.87-2.37l-.43-13.4c-.14-4.82-1.6-8.41-4.33-10.68-3-2.5-7.43-3.31-13.14-2.41-11.12,1.74-17.47,8.21-16.17,16.48.12.8.29,1.49.4,1.93l9-3a3.47,3.47,0,0,1-.17-.67,4.92,4.92,0,0,1,1.39-4.4,9.4,9.4,0,0,1,5.27-2.34A10.65,10.65,0,0,1,615.29,117Zm-3.64,25.68c-2.45,0-4.06-1.19-4.39-3.32-.68-4.35,3.39-7,13.21-8.52l1-.15.13,4.36c-.22,3.69-3.75,6.76-8.57,7.51h0A8.59,8.59,0,0,1,611.65,142.66Zm1.22-1.11.08.5-.07-.5c4.85-.76,7.56-3.86,7.72-6.54l-.09-3.18c-9,1.43-12.84,3.7-12.27,7.36C608.66,141.81,611.32,141.8,612.87,141.55Z"/><path class="cls-2" d="M657,144.19a12.35,12.35,0,0,1-8.13-2.6c-3.1-2.56-4.77-7-5-13.16l-.47-14.37-5.9.92-.34-10,6.33-1-.4-11.44,12.18-2.38.41,11.92L669,100l.34,10L656,112.08l.47,14c.12,2.91.74,4.79,1.9,5.75a4.76,4.76,0,0,0,3.91.7,10.29,10.29,0,0,0,5.75-3l.54-.62,4,9.84-.26.23c-.17.15-4.27,3.72-11.86,4.91A22.06,22.06,0,0,1,657,144.19Zm-12.61-31.3.51,15.5c.19,5.88,1.74,10.06,4.6,12.43,2.56,2.12,6.21,2.82,10.86,2.1a24.79,24.79,0,0,0,11.08-4.46l-3.16-7.71a11.29,11.29,0,0,1-5.8,2.77,5.62,5.62,0,0,1-4.69-.92c-1.4-1.14-2.14-3.27-2.27-6.48h0l-.5-14.89,13.35-2.09-.27-8-13.36,2.09-.4-11.87-10.19,2,.4,11.47-6.33,1,.27,8Z"/><path class="cls-2" d="M676.26,140.91l-1.39-41.82,12.64-2.36,1.4,42.2Zm-.36-41,1.32,39.83,10.66-1.67-1.33-40.15Zm3.84-6.45a7.1,7.1,0,0,1-4.08-1.24,6.85,6.85,0,0,1-2.81-4.64,8.37,8.37,0,0,1,1.73-6.52,9.26,9.26,0,0,1,5.86-3.41,6.93,6.93,0,0,1,8.24,5.86c.74,4.73-2.62,9.06-7.64,9.84l-.08-.49.08.49A8.25,8.25,0,0,1,679.74,93.46Zm2-14.91a7.24,7.24,0,0,0-1.12.09,8.25,8.25,0,0,0-5.23,3,7.36,7.36,0,0,0-1.53,5.75,5.85,5.85,0,0,0,2.39,4,6.33,6.33,0,0,0,4.66,1c4.47-.7,7.45-4.52,6.8-8.7A5.88,5.88,0,0,0,681.72,78.55Z"/><path class="cls-2" d="M707.8,136,691.47,96.48,705,94.36l8.57,23.37a29.28,29.28,0,0,1,1,3.11c.19-1.21.39-2.17.7-3.46l7-25.73,12.72-2-13.47,44.16Zm-14.92-38.7,15.54,37.59,12.32-1.93,12.82-42-10.51,1.64-6.87,25.08a48.1,48.1,0,0,0-1,5.54l-.05.37-1.12.17-.08-.49a22.5,22.5,0,0,0-1.35-5.14l-8.29-22.59Z"/><path class="cls-2" d="M754.22,128.91c-9.53,0-16.19-5.76-17.75-15.73C734.32,99.46,742.4,88,755.7,85.9h0c9.94-1.55,17.14,3.92,18.77,14.31a22.3,22.3,0,0,1-.05,7.17l-.07.34-25.31,4c.87,3.18,3.31,7.75,10.16,6.68a13.52,13.52,0,0,0,9.38-6l.35-.48,6.3,6.33-.19.33c-2.24,3.93-7.82,8.61-16.74,10A26.47,26.47,0,0,1,754.22,128.91Zm1.63-42a21.82,21.82,0,0,0-14.78,8.94,23.46,23.46,0,0,0-3.61,17.2c1.67,10.72,9.61,16.3,20.69,14.56,8.32-1.3,13.58-5.54,15.83-9.19l-4.93-5a14.51,14.51,0,0,1-9.7,5.9c-5.85.92-10-2-11.42-8l-.12-.52,25.68-4a21.49,21.49,0,0,0,0-6.48c-1.53-9.77-8.28-14.93-17.63-13.47Zm-8.41,18.87.06-.64c.54-5.56,3.79-9.47,8.5-10.2h0c4.09-.65,7.2,2,7.94,6.73.06.37.1.71.13,1l0,.47Zm8.64-10.35.08.49c-4.12.65-6.92,3.87-7.59,8.67L763,102.31c0-.16,0-.33-.07-.5-.65-4.2-3.25-6.46-6.79-5.91Z"/><path class="cls-2" d="M41.94,326a13.58,13.58,0,0,1-9.3-3.53c-3.09-2.77-5.14-7-5.95-12.15-1.13-7.2.07-13.71,3.48-18.81a19.75,19.75,0,0,1,13.48-8.67c5.55-.87,8.93.85,10.94,2.82l-.79-24.23,12.61-2,2,62.05-10.41,2-.1-.47c-.42-1.77-.92-4.56-1.17-6.42a15.49,15.49,0,0,1-12.22,9.15A16.56,16.56,0,0,1,41.94,326Zm4.52-42.39a16.42,16.42,0,0,0-2.65.22A18.71,18.71,0,0,0,31,292.11c-3.27,4.89-4.41,11.15-3.33,18.1.78,4.94,2.73,8.94,5.64,11.56a13,13,0,0,0,11.08,3.07,14.68,14.68,0,0,0,12-9.92l.1-.27,1.09-.17v.57a60.08,60.08,0,0,0,1.19,7.35l8.62-1.67-2-60.07-10.62,1.66.85,26.27-.94-1.22A10,10,0,0,0,46.46,283.65Zm-.23,31.83c-4,0-7.07-3.12-7.88-8.28a15.73,15.73,0,0,1,1.36-9.9,9.22,9.22,0,0,1,6.74-4.87,7.89,7.89,0,0,1,6,1.39,9.48,9.48,0,0,1,3.56,6.33l.14,4.47c-.26,4.62-3.39,9.93-8.68,10.76h0A8.19,8.19,0,0,1,46.23,315.48Zm1.64-22.16a7.82,7.82,0,0,0-1.26.1,8.27,8.27,0,0,0-6,4.35,14.79,14.79,0,0,0-1.24,9.28,9.91,9.91,0,0,0,2.76,5.86,6.16,6.16,0,0,0,5.27,1.48h0c4.59-.72,7.59-5.54,7.84-9.78l-.15-4.38a8.45,8.45,0,0,0-3.16-5.61A6.65,6.65,0,0,0,47.87,293.32Z"/><path class="cls-2" d="M87.88,318.83a11.65,11.65,0,0,1-7.68-2.58c-3-2.53-4.75-6.73-4.92-12.14l-.85-25.53,12.65-2,.8,23.54c.08,2.66.82,4.65,2.14,5.74a5,5,0,0,0,4.11.91c4.32-.68,6.38-5.72,6.46-10.11l-.73-22.08,12.61-2,1.39,41.81-10.3,2-.13-.44a55.31,55.31,0,0,1-1.33-6.31,14.26,14.26,0,0,1-11.38,8.91A18.93,18.93,0,0,1,87.88,318.83Zm-12.42-39.4.82,24.65c.16,5.11,1.73,9.05,4.55,11.4,2.46,2,5.74,2.76,9.74,2.13,5.54-.87,9.31-4.18,11.19-9.83l.09-.29,1-.16,0,.55a50.14,50.14,0,0,0,1.38,7.4l8.56-1.66-1.32-39.83-10.62,1.66.7,21.22c-.09,4.83-2.41,10.34-7.3,11.1a5.88,5.88,0,0,1-4.91-1.12c-1.55-1.28-2.41-3.53-2.5-6.48l-.76-22.41Z"/><path class="cls-2" d="M131.92,311.72c-7.76,0-11.76-2.83-12.95-3.85l-.33-.28,5.68-8.88.44.41c.43.4,6.16,3.85,12,2.93,2.05-.32,5.42-1.25,5-3.85-.31-1.94-3.47-2.31-7.13-2.75-6-.72-13.5-1.61-14.76-9.65a13,13,0,0,1,3.64-11.44c3-3.08,7.48-5.16,13-6a18.8,18.8,0,0,1,11.32,1.27,9.56,9.56,0,0,1,5.42,7.11,10,10,0,0,1-.21,4L153,281l-11.3,2.45.22-.79a5.56,5.56,0,0,0,.07-2,3.8,3.8,0,0,0-1.67-2.74,5.44,5.44,0,0,0-3.78-.56,6.82,6.82,0,0,0-4,1.85,3.57,3.57,0,0,0-.91,3.06c.41,2.64,4,2.88,8.16,3.16,6,.4,13.44.89,14.71,9a12.16,12.16,0,0,1-3.57,10.85c-3,3-7.56,5.05-13.24,5.94A37.19,37.19,0,0,1,131.92,311.72Zm-12-4.34c1.59,1.21,7.05,4.52,17.56,2.88,5.47-.86,9.85-2.81,12.68-5.65a11.21,11.21,0,0,0,3.29-10c-1.15-7.35-7.86-7.8-13.78-8.2-4.4-.29-8.55-.57-9.09-4a4.61,4.61,0,0,1,1.16-3.89,7.83,7.83,0,0,1,4.58-2.16,6.41,6.41,0,0,1,4.47.71A4.77,4.77,0,0,1,143,280.5a7,7,0,0,1,0,1.63l9.17-2a9.05,9.05,0,0,0,.11-3.26,8.43,8.43,0,0,0-4.88-6.37,17.84,17.84,0,0,0-10.72-1.19c-5.27.83-9.56,2.81-12.4,5.73a12.06,12.06,0,0,0-3.38,10.6c1.15,7.29,8.22,8.13,13.9,8.81,4.06.48,7.58.9,8,3.59.18,1.19,0,4.07-5.86,5-5.31.83-10.65-1.7-12.38-2.83Z"/><path class="cls-2" d="M175.9,305a12.38,12.38,0,0,1-8.14-2.6c-3.09-2.56-4.77-7-5-13.17l-.46-14.37-5.9.93-.34-10,6.33-1-.4-11.44L174.2,251l.4,11.92L188,260.8l.34,10-13.36,2.09.48,14c.11,2.91.73,4.79,1.9,5.75a4.74,4.74,0,0,0,3.9.7,10.34,10.34,0,0,0,5.76-3l.53-.62,4,9.83-.27.24c-.17.15-4.26,3.72-11.86,4.91A23.16,23.16,0,0,1,175.9,305Zm-12.61-31.3.5,15.5c.19,5.88,1.74,10.06,4.61,12.43,2.56,2.12,6.21,2.82,10.86,2.09a24.7,24.7,0,0,0,11.08-4.45l-3.16-7.71a11.46,11.46,0,0,1-5.8,2.77,5.68,5.68,0,0,1-4.7-.92c-1.4-1.15-2.14-3.27-2.26-6.48h0L173.91,272,187.27,270l-.27-8-13.36,2.1-.4-11.88-10.19,2,.4,11.48-6.33,1,.27,8Z"/><path class="cls-2" d="M226.76,297A17.8,17.8,0,0,1,216,293.74c-3.7-2.72-6.1-7-6.94-12.36-2.16-13.81,6.06-25.36,19.56-27.47h0c9-1.41,15.84,2.91,17.07,10.76a13.1,13.1,0,0,1-.08,4.75l-.07.3-11.21,2.43.15-.75a8,8,0,0,0,.05-2.54,5.36,5.36,0,0,0-1.74-3.36,4.69,4.69,0,0,0-3.87-.87A8.08,8.08,0,0,0,223,269a15.08,15.08,0,0,0-1.21,9.27c.52,3.3,2.42,8.7,9.24,7.62a14.59,14.59,0,0,0,9.84-6.16l.36-.54,6.5,7.3-.19.32c-2.29,3.85-7.91,8.46-16.79,9.85A25.75,25.75,0,0,1,226.76,297Zm2.05-42.1c-12.92,2-20.79,13.1-18.72,26.33.8,5.11,3.06,9.16,6.55,11.72s8.46,3.6,14,2.74c8.3-1.3,13.6-5.48,15.89-9.07l-5.16-5.8a15.64,15.64,0,0,1-10.15,6.07c-5.61.88-9.39-2.2-10.37-8.46a16,16,0,0,1,1.31-9.89,9,9,0,0,1,6.63-4.89,5.74,5.74,0,0,1,4.66,1.09,6.24,6.24,0,0,1,2.09,4,8.91,8.91,0,0,1,.06,2.15l9.13-2a13,13,0,0,0,0-4.06c-1.16-7.36-7.41-11.26-15.93-9.93Z"/><path class="cls-2" d="M268.25,290.52a17.39,17.39,0,0,1-10.62-3.34c-3.75-2.79-6.18-7.13-7-12.53a23.1,23.1,0,0,1,19.83-27.29h0c5.53-.87,10.49.2,14.32,3.07s6.17,7.16,7,12.57a23,23,0,0,1-19.85,27.22A23.49,23.49,0,0,1,268.25,290.52Zm5.85-42.45a22.41,22.41,0,0,0-3.51.28h0a22.78,22.78,0,0,0-15.19,9,23,23,0,0,0-3.8,17.18c.8,5.14,3.09,9.24,6.62,11.88s8.29,3.68,13.56,2.85a22,22,0,0,0,19-26.08c-.81-5.14-3.1-9.26-6.63-11.92A16.48,16.48,0,0,0,274.1,248.07Zm-3.82,32.55c-4.09,0-7.07-3.15-7.91-8.51-1.23-7.89,2.22-14.07,8.39-15A7.12,7.12,0,0,1,277,258.9a11.4,11.4,0,0,1,3.1,6.63c1.23,7.84-2.26,14-8.49,15h0A8.73,8.73,0,0,1,270.28,280.62Zm1.18-1.1.08.5-.08-.5c5.64-.88,8.79-6.57,7.65-13.84a10.48,10.48,0,0,0-2.79-6.05,6.17,6.17,0,0,0-5.4-1.57c-5.6.87-8.7,6.59-7.56,13.89C264.19,277.27,267.3,280.18,271.46,279.52Z"/><path class="cls-2" d="M298.52,285.53l-1.39-41.81,10.06-2,.14.41a40.42,40.42,0,0,1,1.55,6.9,14.9,14.9,0,0,1,12-9.6l.07.49-.07-.49c4.2-.66,7.83.15,10.48,2.35,3.05,2.53,4.75,6.73,4.92,12.15l.85,25.52-12.65,2-.8-23.53c-.07-2.66-.81-4.64-2.13-5.74a5,5,0,0,0-4.13-.91c-4.85.76-7,5.73-7,10.33l.73,21.94Zm-.36-41,1.32,39.83,10.62-1.66-.7-21.07c0-5,2.4-10.49,7.84-11.34a5.94,5.94,0,0,1,4.92,1.13c1.55,1.29,2.41,3.53,2.49,6.48l.76,22.4,10.66-1.67L335.25,254c-.16-5.12-1.73-9.07-4.56-11.41-2.46-2-5.71-2.76-9.69-2.13h0c-5.79.9-9.73,4.37-11.69,10.31l-.09.29-1.15.18,0-.55a39.84,39.84,0,0,0-1.51-7.78Z"/><path class="cls-2" d="M359.36,276.27a12.38,12.38,0,0,1-8.14-2.6c-3.09-2.57-4.77-7-5-13.17l-.46-14.37-5.91.93-.33-10,6.33-1-.4-11.45,12.18-2.38.4,11.92,13.36-2.09.34,10-13.36,2.1.48,14c.11,2.92.73,4.8,1.9,5.76a4.74,4.74,0,0,0,3.9.7,10.34,10.34,0,0,0,5.76-3L371,261l4,9.83-.27.24c-.17.15-4.26,3.72-11.86,4.91A23.05,23.05,0,0,1,359.36,276.27ZM346.75,245l.5,15.5c.19,5.87,1.74,10,4.61,12.43,2.56,2.11,6.21,2.82,10.86,2.09a24.82,24.82,0,0,0,11.08-4.45l-3.16-7.71a11.34,11.34,0,0,1-5.8,2.76,5.68,5.68,0,0,1-4.7-.91c-1.4-1.15-2.14-3.27-2.26-6.49h0l-.51-14.89,13.36-2.09-.27-8-13.36,2.09-.4-11.87-10.19,2,.4,11.48-6.33,1,.27,8Z"/><path class="cls-2" d="M378.62,273l-1.38-41.82,10.06-2,.14.41a40.8,40.8,0,0,1,1.5,6.91c1.75-5.4,5.08-8.52,9.91-9.28l.07.5-.07-.5a13.69,13.69,0,0,1,6,.31l.47.12-2.92,13.08-.59-.34a6.15,6.15,0,0,0-4.23-.74c-4.21.66-7,4.74-7,10.38l.69,20.95Zm-.35-41,1.32,39.84,10.61-1.67-.66-20.08c.06-6.19,3.15-10.65,7.86-11.39a7.28,7.28,0,0,1,4.3.55l2.41-10.83a12.88,12.88,0,0,0-5.11-.17h0c-4.92.77-8.16,4.27-9.62,10.42l-.08.32-1.16.18v-.56a40.56,40.56,0,0,0-1.5-8.24Z"/><path class="cls-2" d="M424.11,266.1c-9.31,0-16.06-5.93-17.62-15.86-2.14-13.68,6.2-25.16,19.83-27.29h0c5.53-.87,10.49.19,14.32,3.07s6.17,7.16,7,12.57a23.83,23.83,0,0,1-23.55,27.51ZM430,223.66a22.38,22.38,0,0,0-3.5.28h0a22.1,22.1,0,0,0-19,26.14c1.66,10.61,9.58,16.4,20.18,14.74a22,22,0,0,0,19-26.08c-.8-5.14-3.1-9.26-6.63-11.92A16.48,16.48,0,0,0,430,223.66Zm-3.81,32.54a6.89,6.89,0,0,1-4.86-1.92,11.46,11.46,0,0,1-3.06-6.58,16,16,0,0,1,1.35-10,9.54,9.54,0,0,1,7-5.08c4.83-.75,8.41,2.48,9.34,8.46a15.68,15.68,0,0,1-1.38,9.94,9.68,9.68,0,0,1-7.1,5A8.79,8.79,0,0,1,426.17,256.2Zm1.17-1.09.08.49-.08-.49a8.62,8.62,0,0,0,6.39-4.54,14.8,14.8,0,0,0,1.26-9.3c-.84-5.36-4-8.28-8.19-7.62a8.46,8.46,0,0,0-6.32,4.57,15,15,0,0,0-1.24,9.32C420.07,252.86,423.17,255.76,427.34,255.11Z"/><path class="cls-2" d="M454.44,261.11l-2-62.07,12.61-2,2,62.07Zm-1-61.22,2,60.06L466,258.29l-2-60.06Z"/><path class="cls-2" d="M501.58,253.83c-8.11,0-12.2-3.1-13.06-3.84l-.33-.28,5.68-8.87.44.4c.75.7,6.48,3.8,12,2.93a8.41,8.41,0,0,0,4.08-1.53,2.39,2.39,0,0,0,.94-2.32c-.3-1.94-3.47-2.31-7.13-2.75-6-.72-13.5-1.61-14.76-9.65-1.36-8.67,5.31-15.69,16.61-17.46a18.87,18.87,0,0,1,11.32,1.28,9.52,9.52,0,0,1,5.42,7.11,9.94,9.94,0,0,1-.21,4l-.08.29-11.3,2.45.22-.8a5.51,5.51,0,0,0,.07-2c-.41-2.58-2.39-3.78-5.45-3.3-3.41.53-5.29,2.41-4.9,4.9.41,2.64,4,2.88,8.17,3.16,6,.4,13.43.9,14.7,9,1.32,8.39-5.28,15-16.81,16.79A36.81,36.81,0,0,1,501.58,253.83Zm-12.07-4.32c1.59,1.21,7.05,4.52,17.56,2.87,10.92-1.71,17.2-7.85,16-15.65-1.16-7.35-7.87-7.8-13.79-8.19-4.4-.3-8.55-.57-9.09-4-.48-3.05,1.77-5.42,5.74-6,3.57-.56,6.1,1,6.59,4.13a7,7,0,0,1,0,1.63l9.17-2a9.05,9.05,0,0,0,.11-3.26,8.43,8.43,0,0,0-4.88-6.37,17.77,17.77,0,0,0-10.72-1.18c-10.7,1.67-17,8.23-15.77,16.32,1.14,7.29,8.21,8.13,13.89,8.81,4.07.48,7.58.9,8,3.59a3.41,3.41,0,0,1-1.28,3.24,9.46,9.46,0,0,1-4.58,1.75c-5.3.83-10.65-1.7-12.38-2.83Z"/><path class="cls-2" d="M530.51,249.2l-2-62.07,12.61-2,1.15,35,3.43-.53,9.66-16.4,14.5-2.27-14.1,22.36,17,19.22L557.55,245,545.12,229.8l-2.55.4.56,17Zm-1-61.22,2,60.06,10.62-1.67-.56-17,4-.62L558,243.89l12.84-2-16.31-18.41,13.32-21.15L556,204.18l-9.66,16.4-5,.79-1.15-35.06Z"/><path class="cls-2" d="M574.94,242.24l-1.39-41.82,12.64-2.36,1.4,42.2Zm-.36-41,1.32,39.83,10.66-1.67-1.33-40.15Zm3.84-6.46a7.09,7.09,0,0,1-4.08-1.23,6.87,6.87,0,0,1-2.81-4.64,8.86,8.86,0,0,1,7.59-9.93,7.33,7.33,0,0,1,5.42,1.17,7,7,0,0,1,2.82,4.68,8.24,8.24,0,0,1-1.76,6.5,9.43,9.43,0,0,1-5.88,3.35h0A8.22,8.22,0,0,1,578.42,194.79Zm2-14.9a7.37,7.37,0,0,0-1.13.09,7.84,7.84,0,0,0-6.75,8.78,5.87,5.87,0,0,0,2.39,4,6.37,6.37,0,0,0,4.66,1h0a8.4,8.4,0,0,0,5.25-3,7.22,7.22,0,0,0,1.55-5.72,6,6,0,0,0-2.41-4A6.14,6.14,0,0,0,580.4,179.89Z"/><path class="cls-2" d="M595.47,239l-2-62.08,12.61-2,2,62.07Zm-1-61.22,2,60.05,10.62-1.66-2-60.06Z"/><path class="cls-2" d="M615.92,235.82l-2-62.07,12.61-2,2,62.07Zm-1-61.22,2,60.06L627.5,233l-2-60.06Z"/><path class="cls-2" d="M641,232.33a6.14,6.14,0,0,1-3.73-1.23,6.55,6.55,0,0,1-2.48-4.26l.49-.08-.49.08a7.87,7.87,0,0,1,1.52-5.92,8.16,8.16,0,0,1,5.19-3.19,6.43,6.43,0,0,1,7.33,5.49,7.64,7.64,0,0,1-1.57,5.88,8.26,8.26,0,0,1-5.2,3.15A7.68,7.68,0,0,1,641,232.33Zm-5.22-5.65a5.28,5.28,0,0,0,6.12,4.58,7.28,7.28,0,0,0,4.57-2.76,6.7,6.7,0,0,0,1.37-5.12,5.43,5.43,0,0,0-6.18-4.66,7.15,7.15,0,0,0-4.55,2.8,6.84,6.84,0,0,0-1.33,5.16Z"/></g></g></g></svg>