<svg xmlns="http://www.w3.org/2000/svg" viewBox="0 0 917.08 332.69"><defs><style>.cls-1{opacity:0.3;}.cls-2{fill:none;stroke:#009877;stroke-miterlimit:10;}</style></defs><title>06-3_背景字2</title><g id="圖層_2" data-name="圖層 2"><g id="圖層_1-2" data-name="圖層 1"><g class="cls-1"><path class="cls-2" d="M47.05,158.59,35.62,160l-17-25.43c-2.18-3.17-5-7.69-6.34-9.81l-.57.34c.38,1.28.53,5.6.55,10.23L12.41,163,.67,164.42.5,107.31,11.11,106,29,132.59c2.75,4.13,5.34,8.43,6.25,10.07l.52-.33a76.05,76.05,0,0,1-.55-10.6L35.1,103l11.79-1.48Z"/><path class="cls-2" d="M93.1,143.77a5.77,5.77,0,0,0,1.43-.4l.46,9a24.55,24.55,0,0,1-5.63,1.41c-5.54.7-8.34-1.08-9.17-5.2-1.27,2.61-4.48,7-12.28,7.94s-12.29-2.34-13-8.23c-1.39-11.07,9.23-15.56,24.24-17.45l.49-.06v-1.81c0-4.12-2.27-6.6-6.77-6s-6.82,2.89-6.43,6a3.57,3.57,0,0,0,.31,1.07l-10.07,3a18.87,18.87,0,0,1-.49-2.51c-1.07-8.46,5.62-15.1,17.1-16.54S90.91,117.77,90.89,128l0,13.41c0,1.87.71,2.52,2.18,2.33Zm-21.85,3.55c4.9-.62,8.08-3.63,8.36-6.75v-3.8l-.44,0c-9.29,1.17-13.55,3.47-13,7.56.29,2.31,2.25,3.3,5.11,2.94Z"/><path class="cls-2" d="M114.74,132.68c0,5.47,2,7.65,6.16,7.12a10.72,10.72,0,0,0,6.16-3l3.31,8.86s-4.17,3.49-11.74,4.44c-10.12,1.27-15.56-3.86-15.58-15.48l0-14.94-5.92.74,0-9,6.36-.8-.06-11.47,11.25-1.85,0,11.91,13.42-1.69,0,9-13.42,1.69Z"/><path class="cls-2" d="M171.73,102.06l.12,40.85-9.48,1.54a49.58,49.58,0,0,1-1.28-8l-.16,0c-1.82,5-5.43,9-11.9,9.81-9.61,1.21-14.42-5.18-14.42-14.45l-.08-25.1,11.7-1.47.09,23c0,4.92,2.25,7.88,6.61,7.33,4.65-.58,7-5.77,7.2-10.38l-.06-21.67Z"/><path class="cls-2" d="M201.86,97.75a13.15,13.15,0,0,1,5.77.48l-3,11.85a6.7,6.7,0,0,0-4.54-.93c-4.09.51-7.51,4.28-7.76,10.64l.05,20.54-11.66,1.46L180.58,101l9.27-1.52a40.32,40.32,0,0,1,1.39,8.84l.27,0c1.45-5.36,4.5-9.75,10.35-10.49Z"/><path class="cls-2" d="M247.78,124.33a5.89,5.89,0,0,0,1.43-.4l.45,9a24.37,24.37,0,0,1-5.62,1.41c-5.54.7-8.35-1.09-9.18-5.2-1.26,2.61-4.47,7-12.27,7.94s-12.29-2.34-13-8.23c-1.4-11.07,9.23-15.56,24.23-17.45l.5-.06V109.5c0-4.12-2.27-6.6-6.77-6s-6.81,2.9-6.43,6a4.27,4.27,0,0,0,.31,1.07l-10.07,3a18.87,18.87,0,0,1-.49-2.51c-1.06-8.47,5.62-15.1,17.1-16.54s17.64,3.84,17.63,14.11l0,13.4c0,1.88.72,2.53,2.19,2.34Zm-13.49-3.2v-3.8l-.44,0c-9.3,1.17-13.55,3.47-13,7.56.29,2.31,2.26,3.3,5.12,2.94C230.83,127.26,234,124.25,234.29,121.13Z"/><path class="cls-2" d="M255.84,71.23l11.66-1.46.15,61.09L256,132.33Z"/><path class="cls-2" d="M316.16,83.39c9.7-1.22,14.48,5.17,14.48,14.45l.08,25.1L319,124.41l-.08-23c0-4.92-2.21-7.89-6.66-7.33-5,.63-7.42,5.58-7.69,10.19l.06,21.93-11.71,1.47-.15-61.1,11.49-1.44.1,26.92.24,0a13.77,13.77,0,0,1,11.55-8.65Z"/><path class="cls-2" d="M344.91,74.55A6.35,6.35,0,0,1,337.46,69a8.34,8.34,0,0,1,7.45-9.14,6.44,6.44,0,0,1,7.5,5.67C353,70.14,349.42,74,344.91,74.55ZM339.13,81l11.71-1.82.11,41.2-11.7,1.47Z"/><path class="cls-2" d="M391.08,79.93A12.53,12.53,0,0,1,394.23,87c1.21,9.58-6,17.33-17.3,18.75a21.06,21.06,0,0,1-7-.21c-2,.65-2.94,1.67-2.74,3.27s1.88,2.1,6,1.59l8.83-1.11c8.66-1.09,15.12,1.55,16,8.71.84,6.68-2.55,14.94-21.15,17.27-13.37,1.68-19.86-1.44-20.58-7.16-.58-4.58,2.07-7.86,6.51-9.92a7.66,7.66,0,0,1-4.5-6.15c-.58-4.61,2.18-7.78,5.67-9.33a12.31,12.31,0,0,1-4.26-8.14c-1.21-9.62,6-17.37,17.12-18.77a19.07,19.07,0,0,1,10,1.15c2.62-1.9,3.65-5.9,3.63-10.29L399.12,68A12.69,12.69,0,0,1,391.08,79.93ZM374.17,119.2c-6.32.8-8,2.85-7.68,5.24s3.17,3.54,10.37,2.64c8.39-1.06,11-3,10.58-6.32-.3-2.41-2.35-2.93-6.51-2.41Zm3-34.86C373,84.82,370.22,88,370.5,92c.21,3.5,2.68,5.63,6.36,5.21,4.3-.49,6.91-3.61,6.68-7.64C383.38,86,380.9,83.91,377.13,84.34Z"/><path class="cls-2" d="M426.43,69.53c9.71-1.22,14.48,5.17,14.48,14.45l.08,25.1-11.7,1.47-.09-23c0-4.91-2.21-7.88-6.66-7.32-5.05.63-7.41,5.58-7.69,10.19l.06,21.93-11.7,1.47-.15-61.1,11.49-1.45.1,26.93.23,0a13.77,13.77,0,0,1,11.55-8.65Z"/><path class="cls-2" d="M504.5,60.24l.16,58.49L493,120.2l-.07-22.89a14.65,14.65,0,0,1-11.4,7.19c-8.82,1.11-15.94-4.54-17.34-15.68-1.7-13.49,5.16-24.69,17-26.17,6.53-.82,10.59,2.08,12.53,6.69l.23,0a33.62,33.62,0,0,1,1.31-7.91Zm-20.17,34c5.28-.66,8.26-5.87,8.57-10.3V80.49c-.11-4.72-3.45-8.94-8.81-8.26-5.63.71-9,6.31-8.09,13.81.69,5.48,3.85,8.73,8.34,8.16Z"/><path class="cls-2" d="M550.11,54.5l.11,40.85-9.48,1.54a49.58,49.58,0,0,1-1.28-8l-.16,0c-1.82,5-5.42,9-11.89,9.82C517.8,99.94,513,93.56,513,84.28l-.08-25.1,11.7-1.47.09,23c0,4.92,2.25,7.88,6.61,7.33,4.66-.58,7-5.76,7.2-10.37L538.44,56Z"/><path class="cls-2" d="M595.47,80.63a5.77,5.77,0,0,0,1.43-.4l.46,9a24.55,24.55,0,0,1-5.63,1.41c-5.54.7-8.34-1.09-9.17-5.2-1.27,2.61-4.48,7-12.28,7.94S558,91,557.25,85.12c-1.39-11.07,9.23-15.56,24.23-17.45l.5-.06V65.79c0-4.11-2.26-6.59-6.76-6s-6.82,2.9-6.43,6a3.57,3.57,0,0,0,.31,1.07l-10.07,3a19.31,19.31,0,0,1-.49-2.51c-1.07-8.47,5.62-15.1,17.1-16.55s17.64,3.85,17.62,14.12l0,13.4c0,1.88.71,2.52,2.18,2.34Zm-21.85,3.54c4.9-.61,8.08-3.62,8.36-6.75v-3.8l-.44.06c-9.29,1.17-13.55,3.46-13,7.55.29,2.32,2.25,3.3,5.11,2.94Z"/><path class="cls-2" d="M603.53,27.53l11.67-1.47.15,61.1-11.67,1.47Z"/><path class="cls-2" d="M629.88,38.73a6.36,6.36,0,0,1-7.45-5.58A8.34,8.34,0,0,1,629.88,24a6.43,6.43,0,0,1,7.5,5.67C638,34.32,634.39,38.16,629.88,38.73Zm-5.77,6.47,11.7-1.82.11,41.2-11.7,1.47Z"/><path class="cls-2" d="M659.37,64.22c0,5.47,2,7.65,6.17,7.12a10.69,10.69,0,0,0,6.15-3L675,77.22s-4.17,3.49-11.75,4.44c-10.11,1.27-15.55-3.86-15.58-15.48l0-14.94-5.93.75,0-9,6.36-.8,0-11.47,11.24-1.84,0,11.9,13.41-1.69,0,9-13.41,1.68Z"/><path class="cls-2" d="M717.68,33.44,701.62,81.75c-2.41,7.47-7.48,13.65-16,14.73a15.33,15.33,0,0,1-7.39-.7l1.69-9.24a10.07,10.07,0,0,0,4.74.58c3.51-.44,5.39-2.54,6.7-5.7l.67-2L675.86,38.7l12.52-1.58L696,60.36a23.09,23.09,0,0,1,1.21,5.27l.22,0c.41-2.28.69-3.46,1.21-5.57l7.27-25.11Z"/><path class="cls-2" d="M776.31,5.81l.15,61.1-9.57,1.56a63.74,63.74,0,0,1-1.07-8l-.23,0a15.19,15.19,0,0,1-12.71,9.87c-9.22,1.16-15.54-5.42-16.82-15.57-1.89-15.07,6.67-25.06,17.36-26.4,5.51-.7,9.15,1.11,11.28,4l-.05-25.18ZM756.18,60c4.78-.61,8.16-5.37,8.56-10V45.62c-.45-4.2-3.59-8.21-8.8-7.56-5.63.71-9.06,6.41-8.11,14,.67,5.38,3.82,8.59,8.36,8Z"/><path class="cls-2" d="M822,20.33l.11,40.85-9.48,1.54a49.58,49.58,0,0,1-1.28-8l-.16,0c-1.82,5-5.43,9-11.89,9.82-9.61,1.2-14.43-5.18-14.43-14.46L784.75,25l11.7-1.47.09,23c0,4.92,2.25,7.88,6.61,7.33,4.66-.58,7-5.76,7.2-10.37l-.06-21.68Z"/><path class="cls-2" d="M852,30.82a5.66,5.66,0,0,0,.15-2.19c-.35-2.76-2.47-4.33-5.9-3.9-3.94.49-5.81,2.73-5.49,5.31.91,7.21,20.81-.59,22.5,12.88,1,8-5.38,14.27-16.88,15.72-11.95,1.5-17.33-3-18.19-3.82L833.58,47c.69.68,6.5,4.16,12.34,3.43,4-.5,5.84-2.1,5.57-4.25C850.76,40.37,831.6,46,830,33.1c-1.08-8.6,5.76-15,16.7-16.39,8.8-1.11,15.17,2.45,15.92,8.45a9.49,9.49,0,0,1-.3,3.75L852,30.81Z"/><path class="cls-2" d="M884.44,35.94c0,5.46,2,7.64,6.17,7.11a10.73,10.73,0,0,0,6.15-3l3.31,8.86s-4.17,3.48-11.74,4.43c-10.11,1.27-15.56-3.85-15.58-15.48l0-14.94-5.93.75,0-9,6.36-.8-.06-11.47L884.31.59l0,11.9,13.42-1.69,0,9-13.42,1.68Z"/><path class="cls-2" d="M903.38,45.46a7.64,7.64,0,0,1,6.55-8.34,5.91,5.91,0,0,1,6.6,5.28,7.65,7.65,0,0,1-6.61,8.26,5.76,5.76,0,0,1-6.54-5.2Z"/><path class="cls-2" d="M70.22,240.78l-12,1.51V212.2c0-2.6.23-6.4.3-6.88l-.28-.1c-.2.7-1.06,4-1.65,5.55L44,244.44l-6.41.81L24.48,214.52a29.6,29.6,0,0,1-1.55-4.86l-.46.19a47.33,47.33,0,0,1,.43,6.79l.17,30.07L11.2,248.2,11,191.09l12.87-1.62,13,28.65c1.59,3.52,3.5,8.31,3.88,9.6l.26,0c.25-1.36,2.29-6.74,3.83-10.61l12.59-31.81,12.63-1.59Z"/><path class="cls-2" d="M116.25,226a5.7,5.7,0,0,0,1.42-.4l.46,9a23.78,23.78,0,0,1-5.63,1.41c-5.53.7-8.34-1.08-9.17-5.2-1.27,2.61-4.48,7-12.27,7.94s-12.3-2.34-13-8.22c-1.39-11.08,9.23-15.57,24.24-17.45l.5-.07v-1.81c0-4.11-2.27-6.6-6.77-6s-6.81,2.89-6.43,6a3.92,3.92,0,0,0,.31,1.06l-10.07,3a18.91,18.91,0,0,1-.49-2.5c-1.06-8.47,5.62-15.11,17.1-16.55S114.05,200,114,210.22l0,13.41c0,1.88.71,2.52,2.19,2.33ZM94.4,229.51c4.9-.62,8.07-3.62,8.36-6.75V219l-.44.06c-9.3,1.16-13.55,3.46-13,7.55.29,2.32,2.26,3.3,5.12,2.94Z"/><path class="cls-2" d="M163,168l.15,61.1-9.57,1.55a63.26,63.26,0,0,1-1.07-8l-.23,0a15.18,15.18,0,0,1-12.71,9.86C130.3,233.75,124,227.18,122.7,217c-1.89-15.06,6.66-25.05,17.36-26.4,5.51-.69,9.15,1.11,11.28,4l-.05-25.18Zm-20.14,54.22c4.79-.6,8.16-5.37,8.57-10v-4.42c-.45-4.2-3.59-8.22-8.8-7.56-5.63.7-9.06,6.41-8.11,14,.67,5.39,3.82,8.59,8.36,8Z"/><path class="cls-2" d="M189.67,184.39c10.19-1.28,16.57,4.92,17.77,14.44a21.86,21.86,0,0,1-.26,7L181.56,209c1.06,5.21,4.53,8.68,10.62,7.91a14.11,14.11,0,0,0,9.9-5.87l5.45,5.81c-2.43,3.94-8.13,8.18-16.67,9.26-11.9,1.49-19.48-5.06-20.81-15.62-1.67-13.34,6.42-24.47,19.62-26.13Zm0,9c-4.36.55-7.67,4-8.37,9.51L197,201c0-.31-.05-.64-.1-1-.53-4.21-3.12-7-7.17-6.54Z"/><path class="cls-2" d="M252.56,166.22c-4,.51-6.5,3.81-6.48,8.38v3.22l12-1.51,0,9-12,1.5.11,31.85-11.63,1.46-.08-31.85-5.76.72,0-9,5.76-.72v-3.05c0-11.13,7-18.61,16.62-19.82,5.48-.69,8.94.75,9.25,1l-3.24,9.91a7.21,7.21,0,0,0-4.54-1.06Z"/><path class="cls-2" d="M284.57,172.46a13.31,13.31,0,0,1,5.77.47l-3,11.86a6.63,6.63,0,0,0-4.53-.94c-4.1.52-7.52,4.29-7.77,10.64l.05,20.54-11.66,1.47-.11-40.85,9.26-1.51A40.14,40.14,0,0,1,274,183l.27,0c1.45-5.35,4.5-9.75,10.35-10.48Z"/><path class="cls-2" d="M312.17,169c11.19-1.4,18.95,5.19,20.29,15.84,1.69,13.46-6.73,24.36-20.22,26-11.19,1.41-18.95-5.12-20.29-15.77-1.67-13.33,6.73-24.42,20.22-26.12Zm0,32.18c6.1-.77,9.44-6.73,8.5-14.16-.69-5.48-3.81-8.9-8.52-8.3-6.05.76-9.33,6.83-8.4,14.21.68,5.44,3.75,8.83,8.42,8.25Z"/><path class="cls-2" d="M387.8,159.57c9.48-1.19,14.37,5.14,14.38,14.46l.07,25-11.7,1.47-.08-22.9c0-5-2.16-7.89-6.52-7.35-5,.64-7.06,5.72-7.3,10.19l.06,21.8L365,203.73l-.08-22.9c0-5-2.16-7.89-6.52-7.35-5.21.66-7.21,6.05-7.32,10.62l.08,21.37-11.66,1.47-.11-40.85,9.26-1.52a39.51,39.51,0,0,1,1.43,8.38l.24,0c1.72-5.1,5.34-9.32,12-10.15,6.82-.86,11.27,2.21,13.21,7.49,1.72-5.38,5.38-9.83,12.29-10.69Z"/><path class="cls-2" d="M432.9,148.59a6.36,6.36,0,0,1-7.45-5.58,8.34,8.34,0,0,1,7.45-9.14,6.43,6.43,0,0,1,7.5,5.67C441,144.18,437.42,148,432.9,148.59Zm-5.77,6.47,11.7-1.82.11,41.2-11.7,1.47Z"/><path class="cls-2" d="M496.11,146c9.48-1.19,14.38,5.14,14.38,14.46l.07,25-11.7,1.47L498.78,164c0-5-2.16-7.89-6.52-7.34-5,.63-7.06,5.72-7.29,10.19l.06,21.8-11.71,1.47-.08-22.91c0-5-2.16-7.89-6.52-7.34-5.21.65-7.2,6-7.32,10.61l.09,21.38-11.67,1.46-.11-40.84L457,151a38.09,38.09,0,0,1,1.43,8.38l.24,0c1.73-5.1,5.34-9.32,12-10.15,6.81-.86,11.26,2.2,13.21,7.49,1.71-5.38,5.38-9.83,12.28-10.7Z"/><path class="cls-2" d="M559.37,155.7c1.87,14.92-6.32,24.91-17.37,26.3-5.45.69-9.12-1.18-11.28-4.19l.07,22.74L519.12,202l-.16-58.5,9.3-1.52a35.26,35.26,0,0,1,1.37,7.92l.26,0A14.89,14.89,0,0,1,542.53,140C551.8,138.87,558.07,145.41,559.37,155.7Zm-19.89,16.67c5.67-.71,9-6.36,8.09-13.82-.69-5.51-3.8-8.72-8.33-8.15-5,.62-8.39,5.61-8.57,10.44v3.7c.44,4.3,3.41,8.51,8.81,7.83Z"/><path class="cls-2" d="M584.87,134.72c11.19-1.41,19,5.19,20.29,15.84,1.7,13.46-6.73,24.35-20.22,26.05-11.19,1.4-19-5.12-20.29-15.78-1.67-13.33,6.73-24.42,20.22-26.12Zm0,32.17c6.1-.77,9.44-6.73,8.51-14.16-.69-5.48-3.82-8.89-8.52-8.3-6.06.76-9.34,6.83-8.41,14.22.68,5.43,3.76,8.83,8.42,8.24Z"/><path class="cls-2" d="M633.38,128.62a13.34,13.34,0,0,1,5.77.47l-3,11.86a6.62,6.62,0,0,0-4.53-.94c-4.1.52-7.52,4.28-7.77,10.64l.06,20.54-11.67,1.47-.11-40.85,9.26-1.51a39.63,39.63,0,0,1,1.4,8.84l.26,0c1.45-5.36,4.51-9.75,10.35-10.48Z"/><path class="cls-2" d="M658.23,149.47c0,5.47,2,7.64,6.17,7.12a10.67,10.67,0,0,0,6.15-3l3.31,8.86s-4.17,3.48-11.74,4.43c-10.11,1.28-15.56-3.85-15.58-15.47l0-15-5.93.75,0-9,6.36-.8L646.85,116l11.25-1.85,0,11.9,13.42-1.68,0,9L658.18,135Z"/><path class="cls-2" d="M695.78,120.77c10.2-1.28,16.58,4.92,17.78,14.44a21.9,21.9,0,0,1-.26,7l-25.62,3.22c1.06,5.21,4.53,8.68,10.62,7.91a14.14,14.14,0,0,0,9.9-5.88l5.44,5.81c-2.42,4-8.12,8.19-16.67,9.26-11.89,1.5-19.47-5.05-20.8-15.61-1.67-13.34,6.42-24.48,19.61-26.14Zm0,9c-4.36.55-7.67,4-8.37,9.5l15.64-2c0-.32-.05-.65-.1-1-.53-4.21-3.12-7.05-7.17-6.54Z"/><path class="cls-2" d="M759.32,93.05l.14,61.1-9.56,1.55a61.45,61.45,0,0,1-1.07-8l-.23,0a15.18,15.18,0,0,1-12.71,9.86c-9.22,1.16-15.55-5.41-16.83-15.57-1.89-15.06,6.67-25,17.36-26.39,5.52-.7,9.16,1.1,11.29,4l-.06-25.18Zm-20.14,54.22c4.79-.6,8.16-5.37,8.57-10v-4.42c-.45-4.2-3.59-8.22-8.81-7.56-5.62.71-9.06,6.41-8.11,14,.68,5.39,3.83,8.59,8.36,8Z"/><path class="cls-2" d="M44,287.8c8.5-1.07,15.45,4.6,16.84,15.65,1.81,14.44-6.15,24.9-17.38,26.31-6.37.8-10.68-2.09-12.89-6.64h-.05a37.21,37.21,0,0,1-.95,7.86l-9,1.13L20.43,271l11.67-1.46.06,26.26a14.9,14.9,0,0,1,11.84-8Zm-3,32.33c5.71-.72,9.07-6.32,8.12-13.91-.7-5.52-3.75-8.65-8.37-8.07-5.21.66-8.32,5.79-8.57,10.17V312c.15,4.69,3.48,8.85,8.81,8.18Z"/><path class="cls-2" d="M85.83,282.54C96,281.26,102.4,287.46,103.6,297a21.56,21.56,0,0,1-.26,7l-25.61,3.22c1,5.21,4.52,8.67,10.62,7.91a14.14,14.14,0,0,0,9.89-5.88l5.45,5.81c-2.42,4-8.13,8.19-16.67,9.26-11.89,1.5-19.47-5.05-20.8-15.62-1.68-13.34,6.42-24.47,19.61-26.13Zm0,9c-4.35.55-7.67,4-8.37,9.51l15.64-2c0-.32,0-.65-.09-1-.53-4.21-3.12-7.06-7.18-6.55Z"/><path class="cls-2" d="M131.94,291.53a5.87,5.87,0,0,0,.15-2.19c-.35-2.76-2.47-4.33-5.9-3.9-3.94.49-5.82,2.73-5.49,5.31.9,7.22,20.8-.59,22.49,12.88,1,8-5.37,14.27-16.88,15.72-11.94,1.5-17.33-3-18.19-3.81l5.37-7.85c.69.68,6.5,4.17,12.33,3.43,4-.5,5.84-2.1,5.57-4.25-.72-5.79-19.89-.2-21.5-13.06-1.08-8.59,5.76-15,16.7-16.39,8.8-1.11,15.16,2.45,15.92,8.45a9.38,9.38,0,0,1-.31,3.75l-10.26,1.91Z"/><path class="cls-2" d="M164.35,296.65c0,5.47,2,7.64,6.16,7.11a10.69,10.69,0,0,0,6.15-3l3.32,8.86s-4.17,3.48-11.75,4.43c-10.11,1.27-15.55-3.85-15.57-15.48l0-14.94-5.93.75,0-9,6.36-.8L153,263.15l11.24-1.85,0,11.9,13.41-1.68,0,9-13.41,1.69Z"/><path class="cls-2" d="M222.19,280.18a5.9,5.9,0,0,0,.14-2.19c-.34-2.76-2.47-4.33-5.9-3.9-3.93.5-5.81,2.73-5.48,5.32.9,7.21,20.8-.59,22.49,12.88,1,8-5.37,14.27-16.88,15.72-11.94,1.5-17.33-3-18.19-3.82l5.36-7.84c.69.68,6.51,4.16,12.34,3.43,4-.5,5.84-2.1,5.57-4.26-.73-5.78-19.89-.19-21.5-13-1.08-8.6,5.76-15,16.7-16.4,8.8-1.1,15.16,2.46,15.92,8.46a9.6,9.6,0,0,1-.31,3.75l-10.26,1.9Z"/><path class="cls-2" d="M258.87,260.79c11.19-1.4,18.95,5.19,20.29,15.84,1.69,13.46-6.73,24.36-20.22,26.05-11.19,1.41-18.95-5.12-20.29-15.77-1.67-13.33,6.73-24.42,20.22-26.12Zm0,32.18c6.1-.77,9.44-6.73,8.5-14.16-.69-5.48-3.81-8.9-8.52-8.3-6,.76-9.33,6.83-8.4,14.21.68,5.44,3.75,8.83,8.42,8.25Z"/><path class="cls-2" d="M291.91,251.41a6.36,6.36,0,0,1-7.45-5.58,8.35,8.35,0,0,1,7.45-9.14,6.44,6.44,0,0,1,7.5,5.67C300,247,296.43,250.84,291.91,251.41Zm-5.77,6.47,11.7-1.82.11,41.2-11.7,1.47Z"/><path class="cls-2" d="M306.72,235l11.67-1.47.15,61.1-11.67,1.47Z"/><path class="cls-2" d="M326,288.23a7.65,7.65,0,0,1,6.56-8.34,5.91,5.91,0,0,1,6.6,5.28,7.65,7.65,0,0,1-6.62,8.26,5.77,5.77,0,0,1-6.54-5.2Z"/></g></g></g></svg>