<svg xmlns="http://www.w3.org/2000/svg" viewBox="0 0 905.5 317.05"><defs><style>.cls-1{opacity:0.3;}.cls-2{fill:none;stroke:#009877;stroke-miterlimit:10;}</style></defs><title>06-3_背景字1</title><g id="圖層_2" data-name="圖層 2"><g id="圖層_1-2" data-name="圖層 1"><g class="cls-1"><path class="cls-2" d="M47.36,85.09l1.73,57.09L37,144l-.73-24-22.74,3.49.73,24-12,1.85L.51,92.29l12.06-1.85.7,23L36,109.93l-.7-23Z" transform="translate(0 0)"/><path class="cls-2" d="M63.4,93.2a6.36,6.36,0,0,1-7.6-5.38A8.35,8.35,0,0,1,63,78.49a6.43,6.43,0,0,1,7.65,5.45C71.36,88.57,67.9,92.51,63.4,93.2Zm-5.59,6.62,11.65-2.14,1.24,41.18L59,140.65Z" transform="translate(0 0)"/><path class="cls-2" d="M109.7,97.31a12.54,12.54,0,0,1,3.35,7c1.47,9.54-5.54,17.49-16.79,19.22a20.5,20.5,0,0,1-7,0c-2,.72-2.9,1.76-2.66,3.36s1.94,2,6,1.41l8.79-1.35c8.63-1.33,15.16,1.14,16.25,8.27,1,6.66-2.13,15-20.66,17.85-13.32,2-19.9-.9-20.77-6.6-.7-4.55,1.86-7.91,6.24-10.09a7.64,7.64,0,0,1-4.67-6c-.71-4.59,2-7.84,5.41-9.49a12.33,12.33,0,0,1-4.48-8c-1.48-9.59,5.49-17.53,16.6-19.24a18.94,18.94,0,0,1,10,.88c2.57-2,3.49-6,3.35-10.39l8.68,1.07A12.69,12.69,0,0,1,109.7,97.31ZM93.88,137c-6.3,1-7.9,3.06-7.54,5.45s3.27,3.45,10.44,2.35c8.36-1.29,10.91-3.34,10.41-6.61-.37-2.4-2.44-2.86-6.57-2.23Zm2-34.93c-4.15.59-6.81,3.8-6.42,7.82.31,3.49,2.83,5.55,6.51,5,4.28-.61,6.8-3.8,6.46-7.82C102.17,103.62,99.64,101.57,95.88,102.1Z" transform="translate(0 0)"/><path class="cls-2" d="M144.76,85.94c9.66-1.49,14.61,4.77,14.87,14l.77,25.08-11.66,1.8-.72-23c-.11-4.91-2.43-7.82-6.86-7.14-5,.78-7.26,5.79-7.4,10.4l.65,21.92-11.65,1.79-1.83-61.07L132.37,68l.84,26.91.24,0a13.77,13.77,0,0,1,11.31-9Z" transform="translate(0 0)"/><path class="cls-2" d="M167.07,62.7l11.62-1.79L180.51,122l-11.62,1.79Z" transform="translate(0 0)"/><path class="cls-2" d="M226.06,74,211.34,122.7c-2.2,7.53-7.11,13.85-15.63,15.16a15.4,15.4,0,0,1-7.41-.49l1.43-9.29a10.06,10.06,0,0,0,4.75.45c3.5-.54,5.32-2.69,6.54-5.88l.62-2L184.41,80.37l12.47-1.92,8.27,23a22.92,22.92,0,0,1,1.36,5.23l.22,0c.35-2.29.6-3.48,1.05-5.6l6.59-25.31Z" transform="translate(0 0)"/><path class="cls-2" d="M280.52,78a12.63,12.63,0,0,1-.09,4.55l-10.16,2.18a8.45,8.45,0,0,0,.05-2.72c-.46-3-2.56-5.22-6.16-4.67-5.51.85-8.72,6.72-7.57,14.19.85,5.55,4.13,8.94,9.78,8.07a15.13,15.13,0,0,0,10.2-6.35l5.8,6.56c-2.18,3.65-7.65,8.22-16.46,9.57-11.81,1.82-19.47-4.49-21.07-14.93-2.09-13.59,6.14-24.84,19.21-26.84C273.41,66.17,279.42,70.9,280.52,78Z" transform="translate(0 0)"/><path class="cls-2" d="M305.85,61.18c11.15-1.71,19.09,4.67,20.72,15.28,2.06,13.41-6.06,24.53-19.5,26.59-11.15,1.72-19.08-4.59-20.71-15.21-2-13.27,6.05-24.59,19.49-26.66Zm.93,32.16c6.07-.93,9.24-7,8.11-14.38-.84-5.46-4.06-8.79-8.75-8.07-6,.93-9.14,7.08-8,14.44.83,5.42,4,8.73,8.65,8Z" transform="translate(0 0)"/><path class="cls-2" d="M370.24,83.75a5.59,5.59,0,0,0,1.41-.43l.71,9a24.53,24.53,0,0,1-5.59,1.57c-5.52.84-8.37-.86-9.31-5-1.2,2.64-4.28,7.08-12,8.27s-12.35-2-13.26-7.86c-1.69-11,8.8-15.81,23.75-18.11l.5-.08,0-1.81c-.12-4.11-2.45-6.54-6.93-5.85s-6.74,3.08-6.27,6.15a4,4,0,0,0,.34,1.05l-10,3.31a18.93,18.93,0,0,1-.56-2.49c-1.29-8.44,5.2-15.25,16.64-17s17.74,3.36,18,13.62l.39,13.4c.07,1.88.78,2.5,2.25,2.28Zm-13.57-2.83-.11-3.79-.44.06c-9.26,1.43-13.45,3.84-12.82,7.91.35,2.31,2.35,3.24,5.19,2.8C353.37,87.15,356.47,84.05,356.67,80.92Z" transform="translate(0 0)"/><path class="cls-2" d="M408.78,51.34a12.67,12.67,0,0,1,3.35,7c1.46,9.55-5.54,17.5-16.79,19.22a20.77,20.77,0,0,1-7,0c-2,.71-2.9,1.76-2.66,3.35s1.94,2,6,1.42l8.8-1.35c8.63-1.33,15.15,1.14,16.25,8.26,1,6.66-2.13,15-20.66,17.85-13.32,2-19.9-.89-20.77-6.6-.7-4.55,1.85-7.91,6.24-10.09a7.64,7.64,0,0,1-4.67-6c-.71-4.59,2-7.84,5.41-9.48a12.37,12.37,0,0,1-4.49-8c-1.47-9.59,5.5-17.53,16.61-19.24a19,19,0,0,1,10,.88c2.57-2,3.49-6,3.34-10.39l8.69,1.08A12.68,12.68,0,0,1,408.78,51.34ZM393,91.06c-6.3,1-7.9,3.07-7.54,5.45s3.27,3.45,10.44,2.35c8.36-1.28,10.91-3.34,10.4-6.6-.37-2.4-2.43-2.87-6.56-2.23Zm2-34.93c-4.15.59-6.81,3.81-6.42,7.82.3,3.5,2.83,5.55,6.5,5,4.28-.62,6.81-3.81,6.47-7.83C401.25,57.66,398.72,55.6,395,56.13Z" transform="translate(0 0)"/><path class="cls-2" d="M457.28,38.43l1.24,40.83-9.43,1.8a50.21,50.21,0,0,1-1.5-8l-.16,0c-1.69,5-5.18,9.15-11.62,10.14-9.58,1.47-14.57-4.78-14.82-14.06l-.77-25.09,11.66-1.79.72,23c.13,4.92,2.47,7.82,6.81,7.15,4.63-.71,6.81-6,6.91-10.57l-.66-21.67Z" transform="translate(0 0)"/><path class="cls-2" d="M465.55,16.82,477.17,15,479,76.11l-11.62,1.78Z" transform="translate(0 0)"/><path class="cls-2" d="M523.81,60.15a5.41,5.41,0,0,0,1.42-.44l.7,9a24.23,24.23,0,0,1-5.59,1.56c-5.52.85-8.37-.86-9.31-5-1.19,2.65-4.28,7.08-12,8.28s-12.35-2-13.25-7.87c-1.7-11,8.79-15.81,23.74-18.1l.5-.08-.05-1.82c-.12-4.11-2.45-6.53-6.93-5.84s-6.73,3.08-6.26,6.14a3.79,3.79,0,0,0,.33,1.06l-10,3.31a19.43,19.43,0,0,1-.56-2.49c-1.29-8.44,5.21-15.26,16.64-17s17.74,3.36,18,13.62l.39,13.4c.07,1.88.78,2.5,2.25,2.27ZM502.06,64.3c4.89-.75,8-3.85,8.18-7l-.11-3.8-.44.07c-9.26,1.42-13.45,3.83-12.82,7.91.36,2.31,2.35,3.24,5.19,2.8Z" transform="translate(0 0)"/><path class="cls-2" d="M545.13,48.47c.2,5.47,2.17,7.59,6.36,7a10.75,10.75,0,0,0,6.07-3.14L561.12,61S557,64.63,549.5,65.79c-10.08,1.55-15.66-3.42-16-15l-.45-14.94-5.9.91-.28-9,6.34-1-.37-11.46L544,13.14,544.4,25,557.76,23l.28,9L544.68,34Z" transform="translate(0 0)"/><path class="cls-2" d="M570.21,15.3a6.35,6.35,0,0,1-7.6-5.37,8.35,8.35,0,0,1,7.2-9.34,6.43,6.43,0,0,1,7.65,5.46C578.17,10.68,574.71,14.61,570.21,15.3Zm-5.59,6.63,11.65-2.14L577.51,61l-11.66,1.79Z" transform="translate(0 0)"/><path class="cls-2" d="M623.53,12.88,610.26,55.93l-13,2L581.42,19.35l12.47-1.92,8.36,23a22.92,22.92,0,0,1,1.36,5.23l.26,0a48.11,48.11,0,0,1,1-5.6l7-25.37Z" transform="translate(0 0)"/><path class="cls-2" d="M645,9.05c10.15-1.56,16.7,4.46,18.16,13.94a21.94,21.94,0,0,1-.06,7l-25.52,3.92c1.2,5.18,4.76,8.55,10.83,7.61a14.13,14.13,0,0,0,9.73-6.14L663.79,41c-2.32,4-7.9,8.4-16.41,9.71-11.85,1.82-19.61-4.52-21.23-15-2-13.29,5.75-24.64,18.89-26.66Zm.28,9c-4.34.67-7.56,4.2-8.1,9.73l15.58-2.39c0-.32-.07-.65-.13-1-.64-4.19-3.31-7-7.35-6.34Z" transform="translate(0 0)"/><path class="cls-2" d="M675.91,32.78a5.9,5.9,0,0,1,6.74,5.09,7.64,7.64,0,0,1-6.38,8.44,5.77,5.77,0,0,1-6.68-5A7.64,7.64,0,0,1,675.91,32.78Z" transform="translate(0 0)"/><path class="cls-2" d="M25.71,184l.4,13.16L46.7,194l.29,9.6-20.6,3.17.42,14.12,23.9-3.67.31,10.1-35.95,5.53-1.73-57.09,35.94-5.52.31,10.1Z" transform="translate(0 0)"/><path class="cls-2" d="M81.29,202.36l14.83,18-12.4,1.91-6.53-8.72a16.28,16.28,0,0,1-2-3.2l-.26,0a19.37,19.37,0,0,1-1.72,3.76l-5.77,10.61L55,226.7l13.66-22.93-14.7-17.92,12.62-1.94L72.35,192a22,22,0,0,1,2.38,4.13l.26,0a31.76,31.76,0,0,1,1.89-4.78l5-9.74,12.78-2Z" transform="translate(0 0)"/><path class="cls-2" d="M115.32,175.89c9.36-1.44,15.38,3.3,16.47,10.39a12.67,12.67,0,0,1-.09,4.56L121.54,193a8.28,8.28,0,0,0,.06-2.71c-.46-3-2.56-5.23-6.17-4.67-5.51.84-8.71,6.72-7.57,14.18.86,5.56,4.14,8.94,9.79,8.08a15.22,15.22,0,0,0,10.2-6.35l5.8,6.56c-2.19,3.64-7.65,8.21-16.46,9.57-11.82,1.81-19.47-4.5-21.08-14.93-2.09-13.59,6.14-24.84,19.21-26.85Z" transform="translate(0 0)"/><path class="cls-2" d="M156.58,169.55c10.15-1.56,16.7,4.46,18.16,13.95a21.7,21.7,0,0,1-.07,7l-25.51,3.92c1.19,5.18,4.76,8.55,10.83,7.62a14.15,14.15,0,0,0,9.73-6.15l5.6,5.66c-2.31,4-7.9,8.41-16.41,9.71-11.85,1.82-19.6-4.51-21.22-15-2-13.29,5.75-24.64,18.89-26.66Zm.28,9c-4.34.67-7.56,4.2-8.11,9.73l15.58-2.39c0-.31-.07-.64-.12-1-.65-4.19-3.31-7-7.35-6.34Z" transform="translate(0 0)"/><path class="cls-2" d="M222.11,177.32c2.29,14.87-5.63,25.08-16.64,26.78-5.43.83-9.15-.94-11.38-3.88l.68,22.72-11.61,1.79-1.78-58.47,9.27-1.78a36,36,0,0,1,1.58,7.89l.26,0a14.88,14.88,0,0,1,12.36-10.2C214.09,160.71,220.53,167.07,222.11,177.32Zm-19.42,17.21c5.65-.86,8.85-6.6,7.71-14-.85-5.49-4-8.62-8.56-7.92-4.94.76-8.22,5.84-8.27,10.68l.11,3.69c.55,4.29,3.64,8.41,9,7.59Z" transform="translate(0 0)"/><path class="cls-2" d="M243.26,180.29c.2,5.47,2.17,7.59,6.36,7a10.75,10.75,0,0,0,6.07-3.14l3.55,8.76s-4.07,3.6-11.61,4.76c-10.08,1.55-15.66-3.43-16-15.05l-.45-14.93-5.9.91-.28-9,6.34-1L231,147.12,242.16,145l.37,11.9,13.36-2.05.28,9-13.36,2Z" transform="translate(0 0)"/><path class="cls-2" d="M268.34,147.13a6.36,6.36,0,0,1-7.6-5.38,8.35,8.35,0,0,1,7.2-9.33,6.42,6.42,0,0,1,7.65,5.45C276.3,142.5,272.84,146.44,268.34,147.13Zm-5.59,6.62,11.65-2.14,1.24,41.18L264,194.58Z" transform="translate(0 0)"/><path class="cls-2" d="M301.61,147.26c11.15-1.71,19.09,4.67,20.73,15.28,2.06,13.41-6.07,24.53-19.51,26.59-11.14,1.72-19.08-4.6-20.71-15.21-2-13.28,6.05-24.6,19.49-26.66Zm9,17.78c-.84-5.46-4-8.79-8.74-8.07-6,.93-9.15,7.08-8,14.44.84,5.42,4,8.73,8.65,8C308.62,178.49,311.79,172.44,310.65,165Z" transform="translate(0 0)"/><path class="cls-2" d="M366.82,153.57l.77,25.09-11.66,1.79-.72-23c-.11-4.92-2.47-7.82-6.81-7.15-5.2.8-7.44,6.15-7.44,10.8l.65,21.52L330,184.44l-1.24-40.83,9.22-1.77a39,39,0,0,1,1.66,8.33l.3,0c1.7-5.11,5.3-9.57,12.11-10.62C361.57,138,366.57,144.29,366.82,153.57Z" transform="translate(0 0)"/><path class="cls-2" d="M412,162.76a5.41,5.41,0,0,0,1.42-.44l.7,9a24,24,0,0,1-5.58,1.56c-5.52.85-8.37-.85-9.32-5-1.19,2.65-4.28,7.08-12.05,8.28s-12.35-2-13.25-7.87c-1.7-11,8.8-15.81,23.75-18.1l.49-.08-.05-1.82c-.12-4.11-2.45-6.53-6.93-5.84s-6.73,3.08-6.26,6.14a3.77,3.77,0,0,0,.34,1.06l-10,3.31a18.47,18.47,0,0,1-.55-2.5c-1.3-8.43,5.2-15.25,16.63-17s17.75,3.37,18,13.63l.39,13.4c.08,1.88.79,2.5,2.25,2.27Zm-21.74,4.15c4.88-.75,8-3.85,8.17-7l-.1-3.8-.44.07c-9.26,1.42-13.45,3.83-12.82,7.91.35,2.3,2.34,3.24,5.19,2.8Z" transform="translate(0 0)"/><path class="cls-2" d="M418.61,109.46l11.62-1.78,1.83,61.07-11.62,1.78Z" transform="translate(0 0)"/><path class="cls-2" d="M479.25,120c9.66-1.49,14.61,4.77,14.87,14l.77,25.09-11.66,1.79-.72-23c-.12-4.92-2.43-7.82-6.86-7.14-5,.78-7.26,5.79-7.41,10.4l.66,21.92-11.66,1.79-1.82-61.07,11.44-1.76L467.7,129l.24,0a13.77,13.77,0,0,1,11.31-9Z" transform="translate(0 0)"/><path class="cls-2" d="M539.35,143.19a5.82,5.82,0,0,0,1.42-.44l.7,9a24.64,24.64,0,0,1-5.58,1.56c-5.52.85-8.37-.86-9.32-5-1.19,2.65-4.28,7.08-12.05,8.28s-12.35-2-13.25-7.87c-1.7-11,8.8-15.81,23.75-18.11l.49-.07,0-1.82c-.12-4.11-2.45-6.53-6.93-5.84S511.8,126,512.27,129a3.77,3.77,0,0,0,.34,1.06l-10,3.3a18.08,18.08,0,0,1-.55-2.49c-1.3-8.43,5.2-15.25,16.63-17s17.75,3.36,18,13.63l.39,13.4c.08,1.87.79,2.5,2.25,2.27Zm-21.74,4.15c4.88-.75,8-3.85,8.17-7l-.1-3.8-.44.07c-9.26,1.42-13.45,3.83-12.82,7.91.35,2.3,2.34,3.23,5.19,2.8Z" transform="translate(0 0)"/><path class="cls-2" d="M567.69,106.37a13.22,13.22,0,0,1,5.78.31l-2.7,11.93a6.7,6.7,0,0,0-4.56-.81c-4.08.63-7.39,4.49-7.47,10.85l.62,20.53L547.74,151l-1.24-40.83,9.22-1.77a39.89,39.89,0,0,1,1.64,8.8l.27,0c1.3-5.39,4.23-9.87,10-10.76Z" transform="translate(0 0)"/><path class="cls-2" d="M614.84,79.31l1.83,61.07-9.52,1.81a60.78,60.78,0,0,1-1.29-7.93l-.23,0a15.21,15.21,0,0,1-12.44,10.21c-9.18,1.41-15.68-5-17.24-15.11-2.31-15,6-25.22,16.63-26.86,5.49-.84,9.18.86,11.39,3.72l-.75-25.17ZM596.2,134.06c4.77-.73,8-5.59,8.29-10.23l-.13-4.41c-.56-4.19-3.82-8.12-9-7.32-5.61.86-8.88,6.65-7.73,14.17.83,5.36,4.07,8.48,8.58,7.79Z" transform="translate(0 0)"/><path class="cls-2" d="M681.3,106.75c2.28,14.87-5.64,25.08-16.64,26.77-5.43.84-9.15-.93-11.39-3.88l.69,22.73-11.62,1.79-1.77-58.47,9.26-1.78a36.07,36.07,0,0,1,1.59,7.88l.26,0A14.88,14.88,0,0,1,664,91.56C673.27,90.14,679.72,96.5,681.3,106.75ZM661.88,124c5.64-.87,8.84-6.6,7.7-14-.84-5.5-4-8.62-8.55-7.93-4.95.76-8.23,5.85-8.27,10.68l.11,3.7c.55,4.28,3.64,8.41,9,7.58Z" transform="translate(0 0)"/><path class="cls-2" d="M693.49,81.78a6.34,6.34,0,0,1-7.6-5.37,8.34,8.34,0,0,1,7.19-9.34,6.43,6.43,0,0,1,7.65,5.46C701.44,77.16,698,81.09,693.49,81.78Zm-5.6,6.63,11.65-2.14,1.24,41.18-11.65,1.79Z" transform="translate(0 0)"/><path class="cls-2" d="M726.21,82c10.15-1.56,16.7,4.46,18.16,14a21.7,21.7,0,0,1-.07,7l-25.51,3.92c1.19,5.18,4.76,8.55,10.83,7.62a14.15,14.15,0,0,0,9.73-6.15L745,114c-2.31,4-7.9,8.41-16.41,9.71-11.84,1.82-19.6-4.51-21.22-15-2-13.29,5.75-24.64,18.89-26.66Zm.28,9c-4.34.67-7.56,4.2-8.11,9.73L734,98.36c0-.31-.07-.64-.12-1-.65-4.19-3.31-7-7.35-6.34Z" transform="translate(0 0)"/><path class="cls-2" d="M769.08,75.41c9.36-1.44,15.38,3.3,16.47,10.39a12.67,12.67,0,0,1-.09,4.56L775.3,92.53a8.28,8.28,0,0,0,.06-2.71c-.46-3-2.56-5.23-6.17-4.67-5.51.84-8.71,6.72-7.57,14.18.86,5.56,4.14,8.94,9.79,8.08a15.22,15.22,0,0,0,10.2-6.35l5.8,6.56c-2.19,3.64-7.65,8.21-16.46,9.57-11.82,1.81-19.47-4.5-21.08-14.93-2.09-13.59,6.14-24.84,19.21-26.85Z" transform="translate(0 0)"/><path class="cls-2" d="M810.34,69.07c10.15-1.56,16.7,4.46,18.16,14a21.7,21.7,0,0,1-.07,7l-25.51,3.92c1.19,5.18,4.76,8.55,10.83,7.62a14.15,14.15,0,0,0,9.73-6.15l5.6,5.66c-2.31,4-7.9,8.41-16.41,9.71-11.84,1.82-19.6-4.51-21.22-15-2-13.29,5.75-24.64,18.89-26.66Zm.28,9c-4.34.67-7.56,4.2-8.11,9.73l15.58-2.39c0-.31-.07-.64-.12-1-.65-4.19-3.31-7-7.35-6.34Z" transform="translate(0 0)"/><path class="cls-2" d="M856.68,76.79a5.82,5.82,0,0,0,.08-2.2c-.42-2.74-2.59-4.26-6-3.73-3.92.6-5.74,2.89-5.34,5.46,1.1,7.19,20.78-1.16,22.84,12.26,1.23,8-5,14.41-16.44,16.18-11.9,1.82-17.41-2.56-18.29-3.32l5.14-8c.71.67,6.62,4,12.43,3.09,4-.61,5.78-2.26,5.45-4.4-.88-5.76-19.89.35-21.85-12.46-1.32-8.57,5.34-15.17,16.24-16.85,8.76-1.35,15.23,2,16.15,8a9.5,9.5,0,0,1-.21,3.76l-10.2,2.18Z" transform="translate(0 0)"/><path class="cls-2" d="M73.73,267.79c9.44-1.45,14.51,4.75,14.77,14.07l.76,25L77.6,308.66l-.71-22.9c-.12-5-2.38-7.82-6.72-7.16-5,.77-6.9,5.91-7,10.38l.66,21.79-11.66,1.8-.71-22.9c-.12-5-2.38-7.83-6.72-7.16-5.19.8-7,6.24-7,10.81l.67,21.36-11.62,1.79-1.24-40.83,9.22-1.77a38.67,38.67,0,0,1,1.66,8.34l.24,0c1.58-5.14,5.08-9.46,11.69-10.47,6.79-1.05,11.32,1.89,13.41,7.12,1.57-5.42,5.11-10,12-11Z" transform="translate(0 0)"/><path class="cls-2" d="M133.74,291a5.82,5.82,0,0,0,1.42-.44l.7,9a24.34,24.34,0,0,1-5.58,1.57c-5.52.85-8.38-.86-9.32-5-1.19,2.65-4.28,7.08-12,8.27s-12.35-2-13.25-7.86c-1.7-11,8.8-15.81,23.74-18.11l.5-.07-.05-1.82c-.12-4.11-2.45-6.53-6.93-5.84s-6.73,3.08-6.26,6.14a3.89,3.89,0,0,0,.34,1.06l-10,3.3a18.08,18.08,0,0,1-.55-2.49c-1.3-8.43,5.2-15.25,16.63-17s17.75,3.36,18,13.62l.39,13.4c.08,1.88.79,2.5,2.25,2.28ZM112,295.1c4.88-.75,8-3.84,8.17-7l-.1-3.79-.44.07c-9.26,1.42-13.45,3.83-12.82,7.91.35,2.3,2.34,3.23,5.19,2.79Z" transform="translate(0 0)"/><path class="cls-2" d="M166.31,273.6l16.62,18.87-14,2.15-12.39-15.2-3.27.51.51,17-11.62,1.79-1.83-61.07,11.62-1.79L153,270.94l4.23-.65,9.7-16.38,13.18-2Z" transform="translate(0 0)"/><path class="cls-2" d="M201,248.15c10.16-1.56,16.71,4.47,18.17,14a21.7,21.7,0,0,1-.07,7L193.56,273c1.2,5.18,4.76,8.55,10.83,7.62a14.15,14.15,0,0,0,9.74-6.15l5.6,5.66c-2.31,4-7.9,8.41-16.41,9.72-11.85,1.82-19.61-4.52-21.22-15-2-13.29,5.75-24.65,18.88-26.67Zm.28,9c-4.34.67-7.55,4.2-8.1,9.74l15.58-2.4c0-.31-.07-.64-.12-1-.65-4.19-3.31-7-7.35-6.34Z" transform="translate(0 0)"/><path class="cls-2" d="M260.24,239c9.36-1.43,15.38,3.3,16.47,10.4a12.63,12.63,0,0,1-.09,4.55l-10.16,2.18a8.36,8.36,0,0,0,.06-2.72c-.46-3-2.56-5.22-6.17-4.67-5.51.85-8.71,6.72-7.57,14.19.86,5.55,4.14,8.94,9.79,8.07a15.19,15.19,0,0,0,10.2-6.35l5.8,6.56c-2.18,3.65-7.65,8.22-16.46,9.57-11.82,1.82-19.47-4.49-21.08-14.93-2.09-13.59,6.14-24.84,19.22-26.85Z" transform="translate(0 0)"/><path class="cls-2" d="M283.13,215.71l11.62-1.78L296.58,275,285,276.78Z" transform="translate(0 0)"/><path class="cls-2" d="M322,229.56c10.15-1.56,16.7,4.46,18.16,13.95a21.7,21.7,0,0,1-.07,7l-25.51,3.92c1.19,5.18,4.76,8.55,10.83,7.61a14.14,14.14,0,0,0,9.73-6.14l5.6,5.66c-2.31,4-7.9,8.4-16.41,9.71-11.85,1.82-19.6-4.52-21.22-15-2-13.29,5.75-24.64,18.89-26.66Zm.28,9c-4.34.67-7.56,4.2-8.11,9.73l15.58-2.39c0-.31-.07-.64-.12-1-.65-4.19-3.31-7-7.35-6.34Z" transform="translate(0 0)"/><path class="cls-2" d="M384,252.49a5.59,5.59,0,0,0,1.41-.43l.71,8.95a24.23,24.23,0,0,1-5.59,1.56c-5.52.85-8.37-.85-9.31-4.94-1.2,2.64-4.28,7.08-12.05,8.27s-12.35-2-13.25-7.87c-1.7-11,8.79-15.81,23.74-18.1l.5-.08-.05-1.82c-.12-4.11-2.45-6.53-6.93-5.84s-6.74,3.08-6.26,6.15a3.71,3.71,0,0,0,.33,1l-10,3.31a19.43,19.43,0,0,1-.56-2.49c-1.29-8.44,5.21-15.26,16.64-17s17.74,3.36,18,13.62l.39,13.4c.07,1.88.78,2.5,2.25,2.27Zm-21.74,4.15c4.88-.75,8-3.85,8.17-7l-.11-3.8-.44.07c-9.26,1.42-13.45,3.83-12.82,7.91.36,2.31,2.35,3.24,5.19,2.8Z" transform="translate(0 0)"/><path class="cls-2" d="M414.45,215.34c9.53-1.46,14.53,4.79,14.78,14.06l.77,25.09-11.66,1.79-.72-23c-.11-4.91-2.47-7.81-6.81-7.14-5.2.79-7.45,6.15-7.44,10.8l.65,21.52-11.62,1.78-1.24-40.82,9.22-1.77A39.39,39.39,0,0,1,402,226l.3,0c1.71-5.11,5.31-9.58,12.12-10.63Z" transform="translate(0 0)"/><path class="cls-2" d="M442.81,205.74a6.35,6.35,0,0,1-7.6-5.38A8.33,8.33,0,0,1,442.4,191a6.43,6.43,0,0,1,7.65,5.45C450.77,201.11,447.3,205.05,442.81,205.74Zm-5.6,6.63,11.65-2.15,1.25,41.18-11.66,1.8Z" transform="translate(0 0)"/><path class="cls-2" d="M481,205.12c9.52-1.47,14.52,4.78,14.78,14.06l.76,25.08-11.66,1.8-.72-23c-.11-4.91-2.47-7.81-6.81-7.14-5.19.8-7.44,6.15-7.44,10.8l.65,21.52L459,250l-1.24-40.82,9.22-1.77a38.85,38.85,0,0,1,1.66,8.33l.3,0c1.7-5.11,5.3-9.58,12.11-10.62Z" transform="translate(0 0)"/><path class="cls-2" d="M535.12,202.78a12.53,12.53,0,0,1,3.34,7c1.47,9.55-5.54,17.49-16.78,19.22a20.56,20.56,0,0,1-7,0c-2,.72-2.9,1.76-2.65,3.36s1.94,2,6,1.41l8.8-1.35c8.63-1.32,15.15,1.14,16.25,8.27,1,6.66-2.13,15-20.66,17.85-13.32,2.05-19.9-.9-20.78-6.6-.7-4.55,1.86-7.91,6.24-10.09a7.68,7.68,0,0,1-4.67-6c-.7-4.59,2-7.84,5.41-9.49a12.37,12.37,0,0,1-4.48-8c-1.47-9.59,5.5-17.53,16.6-19.24a19,19,0,0,1,10,.88c2.57-2,3.49-6,3.34-10.39l8.69,1.07A12.69,12.69,0,0,1,535.12,202.78ZM519.3,242.5c-6.3,1-7.91,3.06-7.54,5.45s3.26,3.45,10.44,2.35c8.36-1.28,10.9-3.34,10.4-6.61-.37-2.4-2.43-2.86-6.57-2.22Zm2-34.93c-4.15.59-6.81,3.8-6.42,7.82.3,3.49,2.83,5.55,6.5,5,4.28-.61,6.81-3.8,6.47-7.82C527.59,209.1,525.06,207,521.3,207.57Z" transform="translate(0 0)"/><path class="cls-2" d="M581.13,189.73c10.16-1.56,16.71,4.46,18.16,13.94a21.88,21.88,0,0,1-.06,7l-25.52,3.92c1.2,5.18,4.76,8.55,10.83,7.62a14.13,14.13,0,0,0,9.73-6.14l5.61,5.65c-2.31,4-7.9,8.41-16.41,9.72-11.85,1.82-19.61-4.52-21.22-15-2-13.29,5.74-24.65,18.88-26.66Zm.28,9c-4.34.67-7.55,4.21-8.1,9.74l15.58-2.4q0-.47-.12-1c-.65-4.2-3.31-7-7.36-6.35Z" transform="translate(0 0)"/><path class="cls-2" d="M626.53,172.45c-4,.62-6.4,4-6.25,8.55l.1,3.22,11.92-1.84.28,9-11.93,1.84,1,31.83-11.58,1.78-1-31.83-5.73.88-.28-9,5.73-.89-.09-3c-.35-11.12,6.51-18.8,16.07-20.27,5.46-.84,9,.51,9.27.7l-3,10a7.28,7.28,0,0,0-4.57-.93Z" transform="translate(0 0)"/><path class="cls-2" d="M658.7,167.5c-4,.62-6.39,4-6.25,8.56l.1,3.21,11.93-1.83.28,9-11.93,1.83,1,31.84-11.58,1.78-1-31.84-5.73.88-.28-9,5.74-.88-.09-3c-.35-11.13,6.5-18.8,16.06-20.27,5.46-.84,9,.5,9.27.7l-3,10a7.21,7.21,0,0,0-4.57-.94Z" transform="translate(0 0)"/><path class="cls-2" d="M686.23,173.57c10.16-1.56,16.71,4.46,18.16,14a21.88,21.88,0,0,1-.06,7l-25.52,3.92c1.2,5.18,4.76,8.55,10.83,7.62a14.1,14.1,0,0,0,9.73-6.15l5.61,5.66c-2.31,4-7.9,8.41-16.41,9.72-11.85,1.82-19.61-4.52-21.22-15-2.05-13.29,5.74-24.65,18.88-26.67Zm.28,9c-4.34.67-7.56,4.2-8.1,9.74l15.58-2.4c0-.31-.07-.64-.13-1-.64-4.19-3.3-7-7.35-6.34Z" transform="translate(0 0)"/><path class="cls-2" d="M729.11,167c9.36-1.44,15.38,3.3,16.47,10.39a12.67,12.67,0,0,1-.09,4.56l-10.16,2.17a8.28,8.28,0,0,0,.06-2.71c-.47-3-2.57-5.23-6.17-4.67-5.51.85-8.72,6.72-7.57,14.19.85,5.55,4.13,8.94,9.78,8.07a15.17,15.17,0,0,0,10.2-6.35l5.8,6.56c-2.18,3.65-7.65,8.21-16.46,9.57-11.81,1.81-19.47-4.49-21.07-14.93C707.81,180.24,716,169,729.11,167Z" transform="translate(0 0)"/><path class="cls-2" d="M767.4,185.16c.2,5.47,2.17,7.59,6.36,7a10.75,10.75,0,0,0,6.07-3.14l3.55,8.76s-4.07,3.6-11.62,4.76c-10.07,1.55-15.65-3.43-16-15.05l-.45-14.93-5.9.91-.28-9,6.34-1L755.11,152l11.19-2.16.37,11.9,13.36-2,.28,9L767,170.72Z" transform="translate(0 0)"/><path class="cls-2" d="M792.48,152a6.36,6.36,0,0,1-7.6-5.38,8.35,8.35,0,0,1,7.2-9.33,6.43,6.43,0,0,1,7.65,5.45C800.44,147.37,797,151.31,792.48,152Zm-5.59,6.62,11.65-2.14,1.24,41.18-11.66,1.79Z" transform="translate(0 0)"/><path class="cls-2" d="M845.79,149.57l-13.26,43.06-13,2L803.69,156l12.47-1.91,8.36,23a23.05,23.05,0,0,1,1.36,5.23l.26,0a47.92,47.92,0,0,1,1-5.59l7-25.37Z" transform="translate(0 0)"/><path class="cls-2" d="M867.31,145.74c10.15-1.56,16.7,4.46,18.16,13.95a21.7,21.7,0,0,1-.07,7l-25.51,3.92c1.2,5.18,4.76,8.55,10.83,7.62a14.1,14.1,0,0,0,9.73-6.15l5.61,5.66c-2.32,4-7.9,8.41-16.41,9.71-11.85,1.83-19.61-4.51-21.23-15-2-13.29,5.75-24.65,18.89-26.67Zm.28,9c-4.34.67-7.56,4.2-8.1,9.73l15.57-2.39a10,10,0,0,0-.12-1c-.64-4.19-3.31-7-7.35-6.34Z" transform="translate(0 0)"/><path class="cls-2" d="M891.86,178a7.65,7.65,0,0,1,6.32-8.52,5.9,5.9,0,0,1,6.74,5.1,7.63,7.63,0,0,1-6.38,8.43,5.76,5.76,0,0,1-6.68-5Z" transform="translate(0 0)"/></g></g></g></svg>