<svg xmlns="http://www.w3.org/2000/svg" viewBox="0 0 185.87 573.15"><defs><style>.cls-1{fill:#ceebf9;}</style></defs><title>01_主頁的英文（個1）</title><g id="圖層_2" data-name="圖層 2"><g id="圖層_2-2" data-name="圖層 2"><path class="cls-1" d="M184.39,0V19.38l-35.9,5-25,3.18V28c8.37,1.48,16.84,3.07,25,4.66l35.9,8.05V56.56l-35.9,8.26c-8.05,1.59-16.52,3-25,4.55v.53c8.48.95,16.84,2,25,3L184.39,78V96l-78.8-13.67V58.46l34.32-7.09c6-1.27,12.39-2.33,18.32-3.07v-.53c-5.93-1-12.28-1.91-18.32-3.08l-34.32-6.88V14.4Z"/><path class="cls-1" d="M123.7,143.82v-23.3L105.59,116V96.69l78.8,24.47v22.66l-78.8,24.47V148.38Zm14.62-3.6,6.67-1.69c7.84-2.12,17.27-4.14,25.32-6.25v-.43c-8.27-1.9-17.48-4-25.32-6l-6.67-1.7Z"/><path class="cls-1" d="M115.44,171.56l13,10.7c-4.77,5.61-8,12.92-8,19.17,0,7,2.65,10.27,6.89,10.27,4.55,0,6-4.34,8.89-11.12l4.24-10.06c3.28-8.26,10.17-16,21.6-16,13.24,0,23.83,11.86,23.83,28.59a36.71,36.71,0,0,1-10.37,25.64l-11.87-9.43c3.92-5.19,6-10.06,6-16.21,0-5.82-2.33-9.42-6.57-9.42s-6,5-8.79,12l-3.92,9.85c-3.91,9.74-10.48,15.57-21.6,15.57-13.13,0-24.68-11-24.68-30.08A44.11,44.11,0,0,1,115.44,171.56Z"/><path class="cls-1" d="M115.44,236.91l13,10.69c-4.77,5.62-8,12.93-8,19.17,0,7,2.65,10.28,6.89,10.28,4.55,0,6-4.34,8.89-11.12l4.24-10.06c3.28-8.27,10.17-16,21.6-16,13.24,0,23.83,11.86,23.83,28.6A36.67,36.67,0,0,1,175.5,294.1l-11.87-9.43c3.92-5.19,6-10.06,6-16.2,0-5.83-2.33-9.43-6.57-9.43s-6,5-8.79,12l-3.92,9.85c-3.91,9.74-10.48,15.57-21.6,15.57-13.13,0-24.68-11-24.68-30.08A44.08,44.08,0,0,1,115.44,236.91Z"/><path class="cls-1" d="M142.66,309.13h41.73V328H140.65c-14.93,0-20.23,4.44-20.23,13.13s5.3,13.34,20.23,13.34h43.74v18.22H142.66c-26.58,0-38.55-10.59-38.55-31.56S116.08,309.13,142.66,309.13Z"/><path class="cls-1" d="M184.39,390.36V418c0,17.37-6.14,31.67-25.63,31.67-18.74,0-27-14.51-27-31.14v-9.21H105.59v-19Zm-37.7,27.22c0,9.21,4.34,13.66,12.07,13.66,7.94,0,10.7-5.08,10.7-14.19v-7.73H146.69Z"/><path class="cls-1" d="M40.46,4c26.26,0,41.3,17.59,41.3,37.6A33.55,33.55,0,0,1,71.49,65.56l-12.07-10c3.6-3.92,6.14-8.05,6.14-13.66,0-10.17-9.11-18.53-24.47-18.53-15.67,0-24.78,7.2-24.78,18.32,0,6.25,3.18,11.33,7.2,15L11.65,66.72A32.79,32.79,0,0,1,0,41C0,21,13.77,4,40.46,4Z"/><path class="cls-1" d="M19.59,115.44V92.14L1.48,87.58V68.31l78.8,24.46v22.67L1.48,139.9V120Zm14.62-3.6,6.67-1.7c7.84-2.12,17.27-4.13,25.31-6.25v-.42c-8.26-1.91-17.47-4-25.31-6l-6.67-1.69Z"/><path class="cls-1" d="M64.61,154.3V133H80.28v61.64H64.61V173.26H1.48v-19Z"/><path class="cls-1" d="M80.28,206.83v19H17.37V256.4H1.48V206.83Z"/><path class="cls-1" d="M80.28,270.05v19H1.48v-19Z"/><path class="cls-1" d="M64.61,322.37V301.08H80.28v61.64H64.61V341.33H1.48v-19Z"/><path class="cls-1" d="M64.61,390.15V368.86H80.28V430.5H64.61V409.11H1.48v-19Z"/><path class="cls-1" d="M80.28,442.68v50H64.61v-31H50V488H34.1V461.63H17.37v32.2H1.48V442.68Z"/><path class="cls-1" d="M1.48,552l27.75-14.51v-9.11H1.48v-19h78.8v28.92c0,16.84-5.72,30.82-24.78,30.82-11.55,0-19-5.4-22.77-13.56L1.48,573.15Zm42.69-23.62v8.47c0,9,3.91,13.77,11.33,13.77s9.85-4.76,9.85-13.77v-8.47Z"/></g></g></svg>