<svg xmlns="http://www.w3.org/2000/svg" viewBox="0 0 1846.94 764.15"><defs><style>.cls-1{fill:#ceebf9;}</style></defs><title>01_主頁的背景英文（合）</title><g id="圖層_2" data-name="圖層 2"><g id="圖層_2-2" data-name="圖層 2"><path class="cls-1" d="M1273.78,488.43h19.39l5,35.9,3.18,25h.43c1.48-8.37,3.07-16.84,4.66-25l8-35.9h15.89l8.26,35.9c1.59,8,3,16.52,4.56,25h.53c1-8.48,2-16.84,3-25l5.09-35.9h18l-13.66,78.8h-23.83l-7.1-34.32c-1.27-6-2.33-12.39-3.07-18.32h-.53c-1,5.93-1.91,12.28-3.07,18.32l-6.89,34.32h-23.4Z"/><path class="cls-1" d="M1417.61,549.11H1394.3l-4.55,18.12h-19.28l24.47-78.8h22.67l24.46,78.8h-19.91ZM1414,534.5l-1.69-6.67c-2.12-7.84-4.13-17.27-6.25-25.32h-.42c-1.91,8.26-4,17.48-6,25.32l-1.69,6.67Z"/><path class="cls-1" d="M1445.35,557.38l10.69-13c5.62,4.76,12.93,8,19.17,8,7,0,10.28-2.65,10.28-6.89,0-4.55-4.34-6-11.12-8.89l-10.06-4.24c-8.27-3.28-16-10.17-16-21.61,0-13.23,11.87-23.83,28.6-23.83a36.68,36.68,0,0,1,25.63,10.38l-9.43,11.87c-5.19-3.92-10.06-6-16.2-6-5.83,0-9.43,2.33-9.43,6.57s5,6,12,8.79l9.85,3.91c9.74,3.92,15.57,10.49,15.57,21.61,0,13.13-11,24.68-30.08,24.68A44.08,44.08,0,0,1,1445.35,557.38Z"/><path class="cls-1" d="M1510.69,557.38l10.7-13c5.61,4.76,12.92,8,19.17,8,7,0,10.27-2.65,10.27-6.89,0-4.55-4.34-6-11.12-8.89l-10.06-4.24c-8.26-3.28-16-10.17-16-21.61,0-13.23,11.86-23.83,28.59-23.83a36.68,36.68,0,0,1,25.63,10.38l-9.42,11.87c-5.19-3.92-10.06-6-16.21-6-5.82,0-9.42,2.33-9.42,6.57s5,6,12,8.79l9.85,3.91c9.74,3.92,15.56,10.49,15.56,21.61,0,13.13-11,24.68-30.07,24.68A44.11,44.11,0,0,1,1510.69,557.38Z"/><path class="cls-1" d="M1582.92,530.16V488.43h18.85v43.74c0,14.93,4.45,20.23,13.13,20.23s13.35-5.3,13.35-20.23V488.43h18.21v41.73c0,26.58-10.59,38.55-31.56,38.55S1582.92,556.74,1582.92,530.16Z"/><path class="cls-1" d="M1664.15,488.43h27.64c17.37,0,31.67,6.14,31.67,25.63,0,18.74-14.51,27-31.14,27h-9.22v26.17h-18.95Zm27.21,37.7c9.22,0,13.67-4.34,13.67-12.07,0-7.95-5.09-10.7-14.2-10.7h-7.73v22.77Z"/><path class="cls-1" d="M1277.81,632.36c0-26.26,17.58-41.3,37.6-41.3a33.54,33.54,0,0,1,23.93,10.27l-9.95,12.07c-3.92-3.6-8.05-6.14-13.66-6.14-10.17,0-18.54,9.11-18.54,24.47,0,15.67,7.2,24.78,18.32,24.78,6.25,0,11.34-3.18,15-7.2l10,11.86a32.81,32.81,0,0,1-25.74,11.65C1294.75,672.82,1277.81,659.05,1277.81,632.36Z"/><path class="cls-1" d="M1389.22,653.23h-23.3l-4.55,18.11h-19.28l24.47-78.8h22.66l24.47,78.8h-19.91Zm-3.6-14.62-1.69-6.67c-2.12-7.84-4.13-17.27-6.25-25.32h-.43c-1.9,8.27-4,17.48-6,25.32l-1.7,6.67Z"/><path class="cls-1" d="M1428.09,608.21H1406.8V592.54h61.64v15.67H1447v63.13h-19Z"/><path class="cls-1" d="M1480.61,592.54h19v62.91h30.61v15.89h-49.57Z"/><path class="cls-1" d="M1543.84,592.54h19v78.8h-19Z"/><path class="cls-1" d="M1596.15,608.21h-21.28V592.54h61.64v15.67h-21.4v63.13h-19Z"/><path class="cls-1" d="M1663.93,608.21h-21.28V592.54h61.64v15.67h-21.4v63.13h-19Z"/><path class="cls-1" d="M1716.46,592.54h50v15.67h-31v14.62h26.37v15.89h-26.37v16.73h32.2v15.89h-51.16Z"/><path class="cls-1" d="M1825.76,671.34l-14.51-27.75h-9.11v27.75h-19v-78.8h28.91c16.84,0,30.82,5.72,30.82,24.78,0,11.55-5.4,19-13.55,22.77l17.58,31.25Zm-23.62-42.69h8.47c9,0,13.77-3.92,13.77-11.33s-4.77-9.85-13.77-9.85h-8.47Z"/><path class="cls-1" d="M393.15,41.94V60.58l-34.53,4.79-24,3v.41c8,1.43,16.19,3,24,4.48l34.53,7.74V96.33l-34.53,8c-7.74,1.52-15.89,2.85-24,4.38v.51c8.14.91,16.19,1.93,24,2.85l34.53,4.89v17.31l-75.78-13.14V98.17l33-6.83c5.81-1.22,11.92-2.24,17.62-3v-.51c-5.7-.92-11.81-1.84-17.62-3l-33-6.62V55.79Z"/><path class="cls-1" d="M334.79,180.26V157.85l-17.42-4.38V134.93l75.78,23.53v21.8l-75.78,23.53V184.64Zm14.06-3.47,6.41-1.62c7.54-2,16.6-4,24.34-6v-.41c-7.94-1.83-16.8-3.87-24.34-5.81l-6.41-1.63Z"/><path class="cls-1" d="M326.85,206.94l12.52,10.29c-4.58,5.4-7.74,12.42-7.74,18.43,0,6.73,2.55,9.88,6.62,9.88,4.38,0,5.81-4.17,8.56-10.69l4.07-9.68c3.16-7.94,9.78-15.38,20.78-15.38,12.73,0,22.92,11.41,22.92,27.5a35.27,35.27,0,0,1-10,24.65l-11.41-9.06c3.77-5,5.8-9.68,5.8-15.59,0-5.6-2.24-9.06-6.31-9.06s-5.81,4.79-8.45,11.51l-3.77,9.47c-3.77,9.37-10.09,15-20.78,15-12.63,0-23.73-10.59-23.73-28.92A42.38,42.38,0,0,1,326.85,206.94Z"/><path class="cls-1" d="M326.85,269.78l12.52,10.29c-4.58,5.4-7.74,12.43-7.74,18.44,0,6.72,2.55,9.88,6.62,9.88,4.38,0,5.81-4.18,8.56-10.7l4.07-9.67c3.16-7.95,9.78-15.38,20.78-15.38,12.73,0,22.92,11.4,22.92,27.5a35.24,35.24,0,0,1-10,24.64l-11.41-9.06c3.77-5,5.8-9.68,5.8-15.58,0-5.61-2.24-9.07-6.31-9.07s-5.81,4.79-8.45,11.51l-3.77,9.47c-3.77,9.37-10.09,15-20.78,15C327.05,327,316,316.43,316,298.1A42.39,42.39,0,0,1,326.85,269.78Z"/><path class="cls-1" d="M353,339.25h40.13v18.13H351.09c-14.36,0-19.46,4.27-19.46,12.63s5.1,12.83,19.46,12.83h42.06v17.52H353C327.46,400.36,316,390.17,316,370S327.46,339.25,353,339.25Z"/><path class="cls-1" d="M393.15,417.37V444c0,16.7-5.91,30.45-24.65,30.45-18,0-26-13.95-26-29.94V435.6H317.37V417.37Zm-36.26,26.17c0,8.86,4.18,13.14,11.61,13.14,7.64,0,10.29-4.89,10.29-13.65V435.6h-21.9Z"/><path class="cls-1" d="M254.73,45.81c25.26,0,39.72,16.91,39.72,36.16a32.26,32.26,0,0,1-9.88,23L273,95.42c3.46-3.77,5.91-7.75,5.91-13.14,0-9.78-8.76-17.83-23.53-17.83-15.07,0-23.83,6.93-23.83,17.62,0,6,3.05,10.9,6.92,14.47L227,106.11a31.55,31.55,0,0,1-11.2-24.75C215.82,62.11,229.06,45.81,254.73,45.81Z"/><path class="cls-1" d="M234.66,153V130.55l-17.41-4.38V107.64L293,131.16V153l-75.77,23.53V157.34Zm14.06-3.46,6.42-1.63c7.53-2,16.6-4,24.34-6v-.41c-8-1.83-16.81-3.87-24.34-5.8L248.72,134Z"/><path class="cls-1" d="M278,190.34V169.87H293v59.27H278V208.57h-60.7V190.34Z"/><path class="cls-1" d="M293,240.86v18.23h-60.5v29.43H217.25V240.86Z"/><path class="cls-1" d="M293,301.66v18.23H217.25V301.66Z"/><path class="cls-1" d="M278,352V331.5H293v59.28H278V370.21h-60.7V352Z"/><path class="cls-1" d="M278,417.16V396.69H293V456H278V435.39h-60.7V417.16Z"/><path class="cls-1" d="M293,467.68v48.07H278V485.91H263.9v25.36H248.62V485.91h-16.1v31H217.25V467.68Z"/><path class="cls-1" d="M217.25,572.79l26.68-14v-8.76H217.25V531.84H293v27.81c0,16.19-5.5,29.64-23.83,29.64-11.1,0-18.23-5.2-21.9-13l-30,16.91Zm41-22.72v8.15c0,8.66,3.77,13.24,10.9,13.24s9.47-4.58,9.47-13.24v-8.15Z"/><path class="cls-1" d="M328.33,508.27H347l4.79,34.53,3.06,24h.4c1.43-8.05,3-16.2,4.48-24l7.75-34.53h15.27l7.95,34.53c1.53,7.74,2.85,15.89,4.38,24h.51c.91-8.15,1.93-16.2,2.85-24l4.89-34.53h17.31l-13.14,75.78H384.56l-6.83-33c-1.22-5.8-2.24-11.91-3-17.62h-.51c-.92,5.71-1.83,11.82-2.95,17.62l-6.62,33H342.19Z"/><path class="cls-1" d="M466.65,566.64H444.24l-4.38,17.41H421.32l23.53-75.78h21.8l23.53,75.78H471Zm-3.46-14.06-1.63-6.42c-2-7.53-4-16.6-6-24.34h-.41c-1.83,7.95-3.87,16.81-5.81,24.34l-1.63,6.42Z"/><path class="cls-1" d="M493.33,574.58l10.29-12.53c5.4,4.59,12.43,7.74,18.43,7.74,6.73,0,9.88-2.54,9.88-6.62,0-4.38-4.17-5.8-10.69-8.55l-9.68-4.08c-7.94-3.15-15.38-9.77-15.38-20.77,0-12.74,11.41-22.92,27.5-22.92a35.27,35.27,0,0,1,24.65,10l-9.06,11.41c-5-3.77-9.68-5.81-15.59-5.81-5.6,0-9.06,2.24-9.06,6.32s4.79,5.8,11.51,8.45L535.6,541c9.37,3.77,15,10.08,15,20.78,0,12.63-10.59,23.73-28.92,23.73A42.43,42.43,0,0,1,493.33,574.58Z"/><path class="cls-1" d="M556.18,574.58l10.28-12.53c5.4,4.59,12.43,7.74,18.44,7.74,6.72,0,9.88-2.54,9.88-6.62,0-4.38-4.18-5.8-10.7-8.55l-9.67-4.08c-7.95-3.15-15.38-9.77-15.38-20.77,0-12.74,11.4-22.92,27.5-22.92a35.27,35.27,0,0,1,24.65,10l-9.07,11.41c-5-3.77-9.67-5.81-15.58-5.81-5.6,0-9.07,2.24-9.07,6.32s4.79,5.8,11.51,8.45l9.47,3.77c9.37,3.77,15,10.08,15,20.78,0,12.63-10.6,23.73-28.93,23.73A42.4,42.4,0,0,1,556.18,574.58Z"/><path class="cls-1" d="M625.64,548.4V508.27h18.13v42.07c0,14.36,4.27,19.45,12.63,19.45s12.83-5.09,12.83-19.45V508.27h17.52V548.4c0,25.57-10.19,37.08-30.35,37.08S625.64,574,625.64,548.4Z"/><path class="cls-1" d="M703.76,508.27h26.58c16.7,0,30.45,5.91,30.45,24.65,0,18-13.95,26-29.94,26H722v25.16H703.76Zm26.17,36.26c8.86,0,13.14-4.17,13.14-11.61,0-7.64-4.89-10.28-13.65-10.28H722v21.89Z"/><path class="cls-1" d="M332.2,646.7c0-25.26,16.91-39.73,36.16-39.73a32.3,32.3,0,0,1,23,9.88l-9.57,11.62c-3.77-3.47-7.74-5.91-13.14-5.91-9.78,0-17.83,8.76-17.83,23.53,0,15.07,6.93,23.83,17.62,23.83,6,0,10.9-3.06,14.47-6.93l9.57,11.41a31.52,31.52,0,0,1-24.75,11.2C348.5,685.6,332.2,672.36,332.2,646.7Z"/><path class="cls-1" d="M439.35,666.76H416.94l-4.38,17.42H394l23.53-75.78h21.79l23.53,75.78H443.73Zm-3.46-14-1.63-6.42c-2-7.54-4-16.6-6-24.34h-.41c-1.83,7.94-3.87,16.8-5.8,24.34l-1.63,6.42Z"/><path class="cls-1" d="M476.73,623.47H456.26V608.4h59.28v15.07H495v60.71H476.73Z"/><path class="cls-1" d="M550.57,608.4H568.8v60.5h29.44v15.28H550.57Z"/><path class="cls-1" d="M611.37,608.4h18.24v75.78H611.37Z"/><path class="cls-1" d="M661.69,623.47H641.22V608.4h59.27v15.07H679.92v60.71H661.69Z"/><path class="cls-1" d="M726.87,623.47H706.4V608.4h59.28v15.07H745.1v60.71H726.87Z"/><path class="cls-1" d="M777.39,608.4h48.08v15.07H795.62v14.06H821v15.28H795.62V668.9h31v15.28h-49.2Z"/><path class="cls-1" d="M882.5,684.18l-14-26.69h-8.76v26.69H841.56V608.4h27.8c16.2,0,29.64,5.5,29.64,23.83,0,11.11-5.19,18.24-13,21.9l16.91,30Zm-22.71-41h8.15c8.65,0,13.24-3.77,13.24-10.9s-4.59-9.47-13.24-9.47h-8.15Z"/><path class="cls-1" d="M1339.39,0V19.38l-35.9,5-25,3.18V28c8.37,1.48,16.84,3.07,25,4.66l35.9,8.05V56.56l-35.9,8.26c-8,1.59-16.52,3-25,4.55v.53c8.48.95,16.84,2,25,3l35.9,5.08V96l-78.8-13.67V58.46l34.32-7.09c6-1.27,12.39-2.33,18.32-3.07v-.53c-5.93-1-12.28-1.91-18.32-3.08l-34.32-6.88V14.4Z"/><path class="cls-1" d="M1278.7,143.82v-23.3L1260.59,116V96.69l78.8,24.47v22.66l-78.8,24.47V148.38Zm14.62-3.6,6.67-1.69c7.84-2.12,17.27-4.14,25.32-6.25v-.43c-8.27-1.9-17.48-4-25.32-6l-6.67-1.7Z"/><path class="cls-1" d="M1270.44,171.56l13,10.7c-4.77,5.61-8,12.92-8,19.17,0,7,2.65,10.27,6.89,10.27,4.55,0,6-4.34,8.89-11.12l4.24-10.06c3.28-8.26,10.17-16,21.6-16,13.24,0,23.83,11.86,23.83,28.59a36.71,36.71,0,0,1-10.37,25.64l-11.87-9.43c3.92-5.19,6-10.06,6-16.21,0-5.82-2.33-9.42-6.57-9.42s-6,5-8.79,12l-3.92,9.85c-3.91,9.74-10.48,15.57-21.6,15.57-13.13,0-24.68-11-24.68-30.08A44.11,44.11,0,0,1,1270.44,171.56Z"/><path class="cls-1" d="M1270.44,236.91l13,10.69c-4.77,5.62-8,12.93-8,19.17,0,7,2.65,10.28,6.89,10.28,4.55,0,6-4.34,8.89-11.12l4.24-10.06c3.28-8.27,10.17-16,21.6-16,13.24,0,23.83,11.86,23.83,28.6a36.67,36.67,0,0,1-10.37,25.63l-11.87-9.43c3.92-5.19,6-10.06,6-16.2,0-5.83-2.33-9.43-6.57-9.43s-6,5-8.79,12l-3.92,9.85c-3.91,9.74-10.48,15.57-21.6,15.57-13.13,0-24.68-11-24.68-30.08A44.08,44.08,0,0,1,1270.44,236.91Z"/><path class="cls-1" d="M1297.66,309.13h41.73V328h-43.74c-14.93,0-20.23,4.44-20.23,13.13s5.3,13.34,20.23,13.34h43.74v18.22h-41.73c-26.58,0-38.55-10.59-38.55-31.56S1271.08,309.13,1297.66,309.13Z"/><path class="cls-1" d="M1339.39,390.36V418c0,17.37-6.14,31.67-25.63,31.67-18.75,0-27-14.51-27-31.14v-9.21h-26.16v-19Zm-37.7,27.22c0,9.21,4.34,13.66,12.07,13.66,7.94,0,10.7-5.08,10.7-14.19v-7.73h-22.77Z"/><path class="cls-1" d="M1195.46,4c26.26,0,41.3,17.59,41.3,37.6a33.55,33.55,0,0,1-10.27,23.94l-12.07-10c3.6-3.92,6.14-8.05,6.14-13.66,0-10.17-9.11-18.53-24.47-18.53-15.67,0-24.78,7.2-24.78,18.32,0,6.25,3.18,11.33,7.2,15l-11.86,9.95A32.79,32.79,0,0,1,1155,41C1155,21,1168.77,4,1195.46,4Z"/><path class="cls-1" d="M1174.59,115.44V92.14l-18.11-4.56V68.31l78.8,24.46v22.67l-78.8,24.46V120Zm14.62-3.6,6.67-1.7c7.84-2.12,17.27-4.13,25.31-6.25v-.42c-8.26-1.91-17.47-4-25.31-6l-6.67-1.69Z"/><path class="cls-1" d="M1219.61,154.3V133h15.67v61.64h-15.67V173.26h-63.13v-19Z"/><path class="cls-1" d="M1235.28,231.08v19h-62.91v30.61h-15.89V231.08Z"/><path class="cls-1" d="M1235.28,294.3v19h-78.8v-19Z"/><path class="cls-1" d="M1219.61,346.62V325.33h15.67V387h-15.67V365.58h-63.13v-19Z"/><path class="cls-1" d="M1219.61,414.4V393.11h15.67v61.64h-15.67V433.36h-63.13v-19Z"/><path class="cls-1" d="M1235.28,466.93v50h-15.67v-31H1205v26.37H1189.1V485.89h-16.73v32.19h-15.89V466.93Z"/><path class="cls-1" d="M1156.48,576.22l27.75-14.51V552.6h-27.75v-19h78.8v28.91c0,16.84-5.72,30.82-24.78,30.82-11.55,0-19-5.4-22.77-13.56l-31.25,17.58Zm42.69-23.62v8.48c0,9,3.91,13.77,11.33,13.77s9.85-4.77,9.85-13.77V552.6Z"/><path class="cls-1" d="M1123.39,88v19.38l-35.9,5-25,3.18V116c8.37,1.48,16.84,3.07,25,4.66l35.9,8v15.89l-35.9,8.26c-8,1.59-16.52,3-25,4.55v.53c8.48.95,16.84,2,25,3l35.9,5.08v18l-78.8-13.67V146.46l34.32-7.09c6-1.27,12.39-2.33,18.32-3.07v-.53c-5.93-1-12.28-1.91-18.32-3.08l-34.32-6.88V102.4Z"/><path class="cls-1" d="M1062.7,231.82v-23.3L1044.59,204V184.69l78.8,24.47v22.66l-78.8,24.47V236.38Zm14.62-3.6,6.67-1.69c7.84-2.12,17.27-4.14,25.32-6.25v-.43c-8.27-1.9-17.48-4-25.32-6l-6.67-1.7Z"/><path class="cls-1" d="M1054.44,259.56l13,10.7c-4.77,5.61-8,12.92-8,19.17,0,7,2.65,10.27,6.89,10.27,4.55,0,6-4.34,8.89-11.12l4.24-10.06c3.28-8.26,10.17-16,21.6-16,13.24,0,23.83,11.86,23.83,28.59a36.71,36.71,0,0,1-10.37,25.64l-11.87-9.43c3.92-5.19,6-10.06,6-16.21,0-5.82-2.33-9.42-6.57-9.42s-6,5-8.79,12l-3.92,9.85c-3.91,9.74-10.48,15.57-21.6,15.57-13.13,0-24.68-11-24.68-30.08A44.11,44.11,0,0,1,1054.44,259.56Z"/><path class="cls-1" d="M1054.44,324.91l13,10.69c-4.77,5.62-8,12.93-8,19.17,0,7,2.65,10.28,6.89,10.28,4.55,0,6-4.34,8.89-11.12l4.24-10.06c3.28-8.27,10.17-16,21.6-16,13.24,0,23.83,11.86,23.83,28.6a36.67,36.67,0,0,1-10.37,25.63l-11.87-9.43c3.92-5.19,6-10.06,6-16.2,0-5.83-2.33-9.43-6.57-9.43s-6,5-8.79,12l-3.92,9.85c-3.91,9.74-10.48,15.57-21.6,15.57-13.13,0-24.68-11-24.68-30.08A44.08,44.08,0,0,1,1054.44,324.91Z"/><path class="cls-1" d="M1081.66,397.13h41.73V416h-43.74c-14.93,0-20.23,4.44-20.23,13.13s5.3,13.34,20.23,13.34h43.74v18.22h-41.73c-26.58,0-38.55-10.59-38.55-31.56S1055.08,397.13,1081.66,397.13Z"/><path class="cls-1" d="M1123.39,478.36V506c0,17.37-6.14,31.67-25.63,31.67-18.75,0-27-14.51-27-31.14v-9.21h-26.16v-19Zm-37.7,27.22c0,9.21,4.34,13.66,12.07,13.66,7.94,0,10.7-5.08,10.7-14.19v-7.73h-22.77Z"/><path class="cls-1" d="M979.46,92c26.26,0,41.3,17.59,41.3,37.6a33.55,33.55,0,0,1-10.27,23.94l-12.07-10c3.6-3.92,6.14-8,6.14-13.66,0-10.17-9.11-18.53-24.47-18.53-15.67,0-24.78,7.2-24.78,18.32,0,6.25,3.18,11.33,7.2,15l-11.86,9.95A32.79,32.79,0,0,1,939,129C939,109,952.77,92,979.46,92Z"/><path class="cls-1" d="M958.59,203.44v-23.3l-18.11-4.56V156.31l78.8,24.46v22.67l-78.8,24.46V208Zm14.62-3.6,6.67-1.7c7.84-2.12,17.27-4.13,25.31-6.25v-.42c-8.26-1.91-17.47-4-25.31-6l-6.67-1.69Z"/><path class="cls-1" d="M1003.61,242.3V221h15.67v61.64h-15.67V261.26H940.48v-19Z"/><path class="cls-1" d="M1019.28,319.08v19H956.37v30.61H940.48V319.08Z"/><path class="cls-1" d="M1019.28,382.3v19h-78.8v-19Z"/><path class="cls-1" d="M1003.61,434.62V413.33h15.67V475h-15.67V453.58H940.48v-19Z"/><path class="cls-1" d="M1003.61,502.4V481.11h15.67v61.64h-15.67V521.36H940.48v-19Z"/><path class="cls-1" d="M1019.28,554.93v50h-15.67v-31H989v26.37H973.1V573.89H956.37v32.19H940.48V554.93Z"/><path class="cls-1" d="M940.48,664.22l27.75-14.51V640.6H940.48v-19h78.8v28.91c0,16.84-5.72,30.82-24.78,30.82-11.55,0-19-5.4-22.77-13.56L940.48,685.4Zm42.69-23.62v8.48c0,9,3.91,13.77,11.33,13.77s9.85-4.77,9.85-13.77V640.6Z"/><path class="cls-1" d="M184.39,191v19.38l-35.9,5-25,3.18V219c8.37,1.48,16.84,3.07,25,4.66l35.9,8v15.89l-35.9,8.26c-8.05,1.59-16.52,3-25,4.55v.53c8.48,1,16.84,2,25,3l35.9,5.08v18l-78.8-13.67V249.46l34.32-7.09c6-1.27,12.39-2.33,18.32-3.07v-.53c-5.93-1-12.28-1.91-18.32-3.08l-34.32-6.88V205.4Z"/><path class="cls-1" d="M123.7,334.82v-23.3L105.59,307V287.69l78.8,24.47v22.66l-78.8,24.47V339.38Zm14.62-3.6,6.67-1.69c7.84-2.12,17.27-4.14,25.32-6.25v-.43c-8.27-1.9-17.48-4-25.32-6l-6.67-1.7Z"/><path class="cls-1" d="M115.44,362.56l13,10.7c-4.77,5.61-8,12.92-8,19.17,0,7,2.65,10.27,6.89,10.27,4.55,0,6-4.34,8.89-11.12l4.24-10.06c3.28-8.26,10.17-16,21.6-16,13.24,0,23.83,11.86,23.83,28.59a36.71,36.71,0,0,1-10.37,25.64l-11.87-9.43c3.92-5.19,6-10.06,6-16.21,0-5.82-2.33-9.42-6.57-9.42s-6,5-8.79,12l-3.92,9.85c-3.91,9.74-10.48,15.57-21.6,15.57-13.13,0-24.68-11-24.68-30.08A44.11,44.11,0,0,1,115.44,362.56Z"/><path class="cls-1" d="M115.44,427.91l13,10.69c-4.77,5.62-8,12.93-8,19.17,0,7,2.65,10.28,6.89,10.28,4.55,0,6-4.34,8.89-11.12l4.24-10.06c3.28-8.27,10.17-16,21.6-16,13.24,0,23.83,11.86,23.83,28.6A36.67,36.67,0,0,1,175.5,485.1l-11.87-9.43c3.92-5.19,6-10.06,6-16.2,0-5.83-2.33-9.43-6.57-9.43s-6,5-8.79,12l-3.92,9.85c-3.91,9.74-10.48,15.57-21.6,15.57-13.13,0-24.68-11-24.68-30.08A44.08,44.08,0,0,1,115.44,427.91Z"/><path class="cls-1" d="M142.66,500.13h41.73V519H140.65c-14.93,0-20.23,4.44-20.23,13.13s5.3,13.34,20.23,13.34h43.74v18.22H142.66c-26.58,0-38.55-10.59-38.55-31.56S116.08,500.13,142.66,500.13Z"/><path class="cls-1" d="M184.39,581.36V609c0,17.37-6.14,31.67-25.63,31.67-18.74,0-27-14.51-27-31.14v-9.21H105.59v-19Zm-37.7,27.22c0,9.21,4.34,13.66,12.07,13.66,7.94,0,10.7-5.08,10.7-14.19v-7.73H146.69Z"/><path class="cls-1" d="M40.46,195c26.26,0,41.3,17.59,41.3,37.6a33.55,33.55,0,0,1-10.27,23.94l-12.07-10c3.6-3.92,6.14-8,6.14-13.66,0-10.17-9.11-18.53-24.47-18.53-15.67,0-24.78,7.2-24.78,18.32,0,6.25,3.18,11.33,7.2,15l-11.86,10A32.79,32.79,0,0,1,0,232C0,212,13.77,195,40.46,195Z"/><path class="cls-1" d="M19.59,306.44v-23.3L1.48,278.58V259.31l78.8,24.46v22.67L1.48,330.9V311Zm14.62-3.6,6.67-1.7c7.84-2.12,17.27-4.13,25.31-6.25v-.42c-8.26-1.91-17.47-4-25.31-6l-6.67-1.69Z"/><path class="cls-1" d="M64.61,345.3V324H80.28v61.64H64.61V364.26H1.48v-19Z"/><path class="cls-1" d="M80.28,397.83v19H17.37V447.4H1.48V397.83Z"/><path class="cls-1" d="M80.28,461.05v19H1.48v-19Z"/><path class="cls-1" d="M64.61,513.37V492.08H80.28v61.64H64.61V532.33H1.48v-19Z"/><path class="cls-1" d="M64.61,581.15V559.86H80.28V621.5H64.61V600.11H1.48v-19Z"/><path class="cls-1" d="M80.28,633.68v50H64.61v-31H50V679H34.1V652.63H17.37v32.2H1.48V633.68Z"/><path class="cls-1" d="M1.48,743l27.75-14.51v-9.11H1.48v-19h78.8v28.92c0,16.84-5.72,30.82-24.78,30.82-11.55,0-19-5.4-22.77-13.56L1.48,764.15Zm42.69-23.62v8.47c0,9,3.91,13.77,11.33,13.77s9.85-4.76,9.85-13.77v-8.47Z"/></g></g></svg>