<svg xmlns="http://www.w3.org/2000/svg" viewBox="0 0 573.15 185.87"><defs><style>.cls-1{fill:#ceebf9;}</style></defs><title>01_主頁的英文（個2）</title><g id="圖層_2" data-name="圖層 2"><g id="圖層_2-2" data-name="圖層 2"><path class="cls-1" d="M0,1.48H19.38l5,35.91,3.18,25H28c1.48-8.37,3.07-16.84,4.66-25L40.67,1.48H56.56l8.26,35.91c1.59,8,3,16.52,4.55,25h.53c.95-8.47,2-16.84,3-25L78,1.48H96L82.29,80.28H58.46L51.37,46c-1.27-6-2.33-12.4-3.07-18.33h-.53c-1,5.93-1.91,12.29-3.08,18.33L37.81,80.28H14.4Z"/><path class="cls-1" d="M143.82,62.17h-23.3L116,80.28H96.69l24.47-78.8h22.66l24.47,78.8H148.38Zm-3.6-14.62-1.69-6.67c-2.12-7.84-4.14-17.26-6.25-25.31h-.43c-1.9,8.26-4,17.47-6,25.31l-1.7,6.67Z"/><path class="cls-1" d="M171.56,70.43l10.7-13c5.61,4.77,12.92,8.05,19.17,8.05,7,0,10.27-2.64,10.27-6.88,0-4.56-4.34-6-11.12-8.9l-10.06-4.23c-8.26-3.29-16-10.17-16-21.61C174.53,10.59,186.39,0,203.12,0a36.72,36.72,0,0,1,25.64,10.38l-9.43,11.86c-5.19-3.92-10.06-6-16.21-6-5.82,0-9.42,2.33-9.42,6.57s5,6,12,8.79l9.85,3.92c9.74,3.92,15.57,10.49,15.57,21.61,0,13.13-11,24.67-30.08,24.67A44.11,44.11,0,0,1,171.56,70.43Z"/><path class="cls-1" d="M236.91,70.43l10.69-13c5.62,4.77,12.93,8.05,19.17,8.05,7,0,10.28-2.64,10.28-6.88,0-4.56-4.34-6-11.12-8.9l-10.06-4.23c-8.27-3.29-16-10.17-16-21.61C239.87,10.59,251.73,0,268.47,0A36.68,36.68,0,0,1,294.1,10.38l-9.43,11.86c-5.19-3.92-10.06-6-16.2-6-5.83,0-9.43,2.33-9.43,6.57s5,6,12,8.79l9.85,3.92C290.6,39.4,296.43,46,296.43,57.09c0,13.13-11,24.67-30.08,24.67A44.08,44.08,0,0,1,236.91,70.43Z"/><path class="cls-1" d="M309.13,43.21V1.48H328V45.22c0,14.94,4.44,20.23,13.13,20.23s13.34-5.29,13.34-20.23V1.48h18.22V43.21c0,26.59-10.59,38.55-31.56,38.55S309.13,69.8,309.13,43.21Z"/><path class="cls-1" d="M390.36,1.48H418c17.37,0,31.67,6.15,31.67,25.63,0,18.75-14.51,27-31.14,27h-9.21V80.28h-19Zm27.22,37.71c9.21,0,13.66-4.35,13.66-12.08,0-7.94-5.08-10.69-14.19-10.69h-7.73V39.19Z"/><path class="cls-1" d="M4,145.42c0-26.27,17.59-41.31,37.6-41.31a33.59,33.59,0,0,1,23.94,10.27l-10,12.08c-3.92-3.6-8.05-6.14-13.66-6.14-10.17,0-18.53,9.1-18.53,24.46,0,15.68,7.2,24.78,18.32,24.78,6.25,0,11.33-3.17,15-7.2l9.95,11.86A32.75,32.75,0,0,1,41,185.87C21,185.87,4,172.11,4,145.42Z"/><path class="cls-1" d="M115.44,166.28H92.14l-4.56,18.11H68.31l24.46-78.8h22.67l24.46,78.8H120Zm-3.6-14.61-1.7-6.68c-2.12-7.83-4.13-17.26-6.25-25.31h-.42c-1.91,8.26-4,17.48-6,25.31l-1.69,6.68Z"/><path class="cls-1" d="M154.3,121.27H133V105.59h61.64v15.68H173.26v63.12h-19Z"/><path class="cls-1" d="M206.83,105.59h19V168.5H256.4v15.89H206.83Z"/><path class="cls-1" d="M270.05,105.59h19v78.8h-19Z"/><path class="cls-1" d="M322.37,121.27H301.08V105.59h61.64v15.68H341.33v63.12h-19Z"/><path class="cls-1" d="M390.15,121.27H368.86V105.59H430.5v15.68H409.11v63.12h-19Z"/><path class="cls-1" d="M442.68,105.59h50v15.68h-31v14.61H488v15.89H461.63V168.5h32.2v15.89H442.68Z"/><path class="cls-1" d="M552,184.39l-14.51-27.75h-9.11v27.75h-19v-78.8h28.92c16.84,0,30.82,5.72,30.82,24.79,0,11.54-5.4,19-13.56,22.77l17.58,31.24Zm-23.62-42.68h8.47c9,0,13.77-3.92,13.77-11.33s-4.76-9.85-13.77-9.85h-8.47Z"/></g></g></svg>