<svg xmlns="http://www.w3.org/2000/svg" viewBox="0 0 725.84 134.07"><defs><style>.cls-1{fill:#ceebf9;}</style></defs><title>06-1_寧的疑慮</title><g id="圖層_2" data-name="圖層 2"><g id="圖層_1-2" data-name="圖層 1"><path class="cls-1" d="M-301.15-58.34-320-98.82h16l5.22,13.88c1.68,4.72,3.28,9.09,5.05,14h.33c1.77-4.88,3.45-9.25,5.22-14L-283-98.82h15.73l-18.93,40.48v22.13h-15Z" transform="translate(320 100)"/><path class="cls-1" d="M-265.55-67.85c0-20.54,11.61-32.15,28.7-32.15s28.69,11.7,28.69,32.15S-219.77-35-236.85-35-265.55-47.32-265.55-67.85Zm42.08,0c0-12.12-5.14-19.27-13.38-19.27s-13.3,7.15-13.3,19.27S-245.1-48-236.85-48-223.47-55.65-223.47-67.85Z" transform="translate(320 100)"/><path class="cls-1" d="M-196.88-65.67V-98.82h15v34.75c0,11.87,3.53,16.08,10.43,16.08s10.61-4.21,10.61-16.08V-98.82h14.47v33.15c0,21.13-8.41,30.63-25.08,30.63S-196.88-44.54-196.88-65.67Z" transform="translate(320 100)"/><path class="cls-1" d="M-98.5-36.21l-11.53-22h-7.24v22h-15.06V-98.82h23c13.38,0,24.49,4.54,24.49,19.69,0,9.17-4.29,15.06-10.77,18.09l14,24.83Zm-18.77-33.92h6.73c7.16,0,10.94-3.11,10.94-9S-103.38-87-110.54-87h-6.73Z" transform="translate(320 100)"/><path class="cls-1" d="M-56.34-67.18c0-20.87,14-32.82,29.87-32.82a26.68,26.68,0,0,1,19,8.16l-7.91,9.6c-3.11-2.87-6.39-4.88-10.86-4.88-8.07,0-14.72,7.23-14.72,19.43,0,12.46,5.72,19.7,14.56,19.7,5,0,9-2.53,12-5.73l7.91,9.43A26.08,26.08,0,0,1-27-35C-42.88-35-56.34-46-56.34-67.18Z" transform="translate(320 100)"/><path class="cls-1" d="M-3.83-67.85C-3.83-88.39,7.79-100,24.87-100S53.56-88.3,53.56-67.85,42-35,24.87-35-3.83-47.32-3.83-67.85Zm42.08,0c0-12.12-5.14-19.27-13.38-19.27S11.57-80,11.57-67.85,16.62-48,24.87-48,38.25-55.65,38.25-67.85Z" transform="translate(320 100)"/><path class="cls-1" d="M65.18-98.82H80.5l15.56,30L102.21-55h.42c-.84-6.65-2-15.65-2-23.14v-20.7h14.3v62.61H99.6L84.11-66.42,78-80.14h-.42c.67,7,1.94,15.57,1.94,23.14v20.79H65.18Z" transform="translate(320 100)"/><path class="cls-1" d="M126.61-67.18c0-20.87,14-32.82,29.88-32.82a26.72,26.72,0,0,1,19,8.16l-7.91,9.6c-3.12-2.87-6.4-4.88-10.86-4.88-8.08,0-14.73,7.23-14.73,19.43,0,12.46,5.73,19.7,14.56,19.7,5,0,9-2.53,12-5.73l7.91,9.43A26,26,0,0,1,156-35C140.08-35,126.61-46,126.61-67.18Z" transform="translate(320 100)"/><path class="cls-1" d="M185.61-98.82h39.72v12.45H200.67v11.62h21v12.62h-21v13.29h25.58v12.63H185.61Z" transform="translate(320 100)"/><path class="cls-1" d="M272.45-36.21l-11.53-22h-7.23v22H238.62V-98.82h23c13.38,0,24.49,4.54,24.49,19.69,0,9.17-4.3,15.06-10.78,18.09l14,24.83ZM253.69-70.13h6.73c7.15,0,10.94-3.11,10.94-9S267.57-87,260.42-87h-6.73Z" transform="translate(320 100)"/><path class="cls-1" d="M298.21-98.82h15.31l15.57,30L335.23-55h.42c-.84-6.65-2-15.65-2-23.14v-20.7h14.31v62.61H332.62L317.14-66.42,311-80.14h-.42c.67,7,1.93,15.57,1.93,23.14v20.79h-14.3Z" transform="translate(320 100)"/><path class="cls-1" d="M358.55-44,367-54.39c4.46,3.79,10.27,6.4,15.24,6.4,5.55,0,8.16-2.11,8.16-5.47,0-3.62-3.45-4.8-8.84-7.07l-8-3.37C367-66.51,360.9-72,360.9-81.07c0-10.51,9.43-18.93,22.72-18.93A29.15,29.15,0,0,1,404-91.75l-7.49,9.42c-4.12-3.11-8-4.79-12.88-4.79-4.63,0-7.49,1.85-7.49,5.21s4,4.8,9.51,7l7.83,3.11c7.74,3.11,12.37,8.33,12.37,17.17,0,10.43-8.75,19.6-23.9,19.6A35,35,0,0,1,358.55-44Z" transform="translate(320 100)"/><path class="cls-1" d="M236.81,18.11c-1.3,4.74-2.72,9.4-4.14,13.46l-5.31-2.38a139.75,139.75,0,0,0,4.7-13.59Zm-4.45-9.88a117.06,117.06,0,0,0-4.48-10.91l4.83-2.38c1.55,3.24,3.8,7.68,4.83,10.44ZM262.73,28a10.86,10.86,0,0,0,2.33.21c.86,0,3.37,0,4.49,0A17.32,17.32,0,0,0,268,33.38h-3.32c-3.84,0-7.25-1.08-9.71-5.39a16.48,16.48,0,0,1-2.59,5.86A14,14,0,0,0,249.1,30a12.66,12.66,0,0,0,1.21-2.28l-3.11,3c-.51-.64-1.38-1.59-2.28-2.5A18.37,18.37,0,0,1,239.27,34a18.48,18.48,0,0,0-4-3.67A13.3,13.3,0,0,0,241.38,23h-4V18.19h1.86a37.37,37.37,0,0,0-3.63-2.41A32.15,32.15,0,0,0,239,7.11l4.71,1.2c-.13.48-.26,1-.43,1.47h7.24V14.7h-2.89v3.49h3.15V23H247l-.13.48c1.25,1,2.76,2.37,3.75,3.36,1-3.23,1.21-7.42,1.25-12.16h4.4c0,1.85-.08,3.67-.17,5.39a17.57,17.57,0,0,0,1.25,3.45V12.8h-5.87V7.58h8.16c-1.86-1.42-4.23-3-6.09-4.23L257-.14c.51.3,1.07.6,1.63,1,.57-.73,1.08-1.51,1.6-2.28H252v-5h11.64l1.12-.34,3.8,2.63A53.11,53.11,0,0,1,263,3.66c.86.6,1.63,1.16,2.19,1.63l-2.11,2.29h1.68l.78-.13,3.41.61c-.3,2.8-.78,6.12-1.21,8.23l-4.1-.73c.09-.77.13-1.72.22-2.76h-1.17v5.05h5.35v4.92h-5.35ZM243.58,7.5c-4.92,0-6-1.9-6-6.48v-8.1h5.53v3h7.46V.29h-7.46v.82c0,1.25.08,1.73.94,1.73h3.28a13.8,13.8,0,0,0,3.15-.35c.13,1.43.26,3.37.43,4.66a12.82,12.82,0,0,1-3.4.35ZM242.2,18.19V14.7h-.73c-.56,1.29-1.13,2.5-1.64,3.49Z" transform="translate(320 100)"/><path class="cls-1" d="M311-.49s0,2,0,2.72c-.52,19.2-1,26.19-2.76,28.56a6.16,6.16,0,0,1-4.58,2.76,39.3,39.3,0,0,1-7,.17,14.38,14.38,0,0,0-2.08-6.08c2.76.26,5.35.26,6.52.26a2.2,2.2,0,0,0,1.9-.78c1.25-1.33,1.76-7.68,2.11-21.91h-8.2a43.43,43.43,0,0,1-3.66,6.43A37.89,37.89,0,0,0,289.7,9V29.5H278.4v3.06h-5.65V0h4.92a58.79,58.79,0,0,0,.94-7l6.86.94C284.74-4,284-1.87,283.32,0h6.38V5.68A46.51,46.51,0,0,0,294.83-7l6,1.43c-.47,1.68-1,3.36-1.64,5Zm-27,5.87H278.4v5.83h5.65Zm0,18.64V16.6H278.4V24Zm14.23-1.3a100.37,100.37,0,0,0-5.65-10l4.92-2.76c1.94,2.93,4.75,7,6,9.58Z" transform="translate(320 100)"/><path class="cls-1" d="M328.83,31.18c-.82-1-2.11-2.5-3.41-3.84a18.67,18.67,0,0,1-7.24,6.55,20.63,20.63,0,0,0-4.1-4.09c4-1.86,6-4.27,7.12-6.6h-6.52V18.11h3a33,33,0,0,0-3.71-2c1.73-2.11,2.85-5.48,3.37-8.71l5.52,1c-.13.69-.3,1.43-.48,2.12h10v4.92h-4.31v2.63h5.09V23.2H328c1.6,1.08,3.71,2.63,4.36,3.15Zm-5.48-23.3c-5.6,0-7-2-7-7.07V-6.87h6.08v2.29h10V.21h-10V.9c0,1.29.17,1.81,1.29,1.81h4.66a18.74,18.74,0,0,0,4-.39c.13,1.6.3,3.75.52,5.18a17.64,17.64,0,0,1-4.31.38Zm-1.12,10.23V15.48h-1.51a19,19,0,0,1-1.34,2.63ZM346.65,28.2a17.67,17.67,0,0,0,3,.26c1,0,4.35,0,5.73,0a19.14,19.14,0,0,0-1.51,5h-4.61c-4.57,0-8.46-1.12-11.26-5.43a17.5,17.5,0,0,1-3.41,6.08A31.66,31.66,0,0,0,330,30.7c3.58-3.28,4.31-8.88,4.35-15.7l5.44.17a56,56,0,0,1-.43,6.34,12.18,12.18,0,0,0,1.81,3.37V13.32h-7.64V8.23h11a80,80,0,0,0-9.4-4.7L338.8-.36c1.2.44,2.58,1,4,1.64a23.92,23.92,0,0,0,2.77-2.37h-11V-5.88h15.23l1.08-.3,3.67,2.37a32.49,32.49,0,0,1-6.56,7.55,32,32,0,0,1,3,1.73l-2.59,2.76h2.07l.82-.17,3.8.82a46.11,46.11,0,0,1-2.59,8.54L348,16.21c.26-.78.51-1.81.77-2.89h-2.15v4.87h6.55v5h-6.55Z" transform="translate(320 100)"/><path class="cls-1" d="M367,11a64.16,64.16,0,0,1-1.9,16.65,19,19,0,0,0,2.12-2.76l4.61,2.29a22,22,0,0,1-4.61,5.61L364,30.75a21,21,0,0,1-1.6,3.1,25.11,25.11,0,0,0-5.35-3.15c3.54-5.61,3.8-13.89,3.8-19.71V.29H374.3V-7.08h6.3V-5h13.25v4H380.6V.29H392L393,0l4.66,1.21a38.42,38.42,0,0,1-3,7.51l-1.17-.39a33.67,33.67,0,0,0,.43,3.54,24.5,24.5,0,0,1-5.39.38h-8.37c-3.71,0-5.13-1.12-5.56-3.1l-6.73.39-.13-4,6.68-.26V4.61H367Zm25.8,22c-.69-1.08-1.86-2.76-3-4.36-.61,3.8-2.07,4.83-5.74,4.83h-5.56c-5.4,0-6.65-1.38-6.65-5.65V24.49h4.75l-.48-.39,1.13-.86h-8.46V13.06h24.8V23.24H382.11c.91.69,1.81,1.42,2.38,1.94l-3.76,3a38.37,38.37,0,0,0-3.28-2.93v2.5c0,1.08.26,1.16,1.77,1.16h4.19c1.12,0,1.38-.3,1.55-2.15a15,15,0,0,0,4.66,1.72c-.56-.82-1.17-1.64-1.64-2.33l4.87-2c1.47,2,3.84,4.83,5.09,6.47ZM374.39,16.81h3.71v-1h-3.71Zm0,3.67h3.71v-1h-3.71ZM387.89,8.7a34.49,34.49,0,0,0,5.44-.39l-4-1.29c.26-.69.56-1.51.82-2.41H380v.56l9-.26-.05,3-8.75.39c.21.3.65.43,1.55.43Zm-.3,7.12h-3.88v1h3.88Zm0,3.62h-3.88v1h3.88Z" transform="translate(320 100)"/><rect class="cls-1" x="8.53" y="111.11" width="498.53" height="8"/></g></g></svg>