<svg xmlns="http://www.w3.org/2000/svg" viewBox="0 0 665.83 162.52"><defs><style>.cls-1{fill:#ceebf9;}</style></defs><title>06-3-1</title><g id="圖層_2" data-name="圖層 2"><g id="圖層_1-2" data-name="圖層 1"><path class="cls-1" d="M.76,55.2C16.41,41,26.93,29.62,26.93,20.53c0-5.72-3.2-8.83-8.16-8.83-4.3,0-7.66,2.86-10.61,6.06L0,9.68C6.14,3.2,11.87,0,20.79,0,32.9,0,41.32,7.74,41.32,19.69c0,10.77-9.26,22.64-18.85,32.32a86.75,86.75,0,0,1,10.18-.85H44.18V63.79H.76Z"/><path class="cls-1" d="M51.92,32.15C51.92,10.6,60.84,0,74.06,0S96.27,10.77,96.27,32.15c0,21.54-9,32.81-22.21,32.81S51.92,53.69,51.92,32.15Zm30.21,0c0-17.09-3.61-20.62-8.07-20.62s-8,3.53-8,20.62,3.54,21.2,8,21.2S82.13,49.31,82.13,32.15Z"/><path class="cls-1" d="M106.29,51.67h13.29V16.07H108.05V6.82c6.74-1.27,11.11-2.95,15.49-5.64h11V51.67h11.28V63.79H106.29Z"/><path class="cls-1" d="M182.2,13.63H155.27V1.18h42.91v9.09c-14.47,17.25-16,29-17.08,53.52H166C167.22,43.17,170.41,30,182.2,13.63Z"/><path class="cls-1" d="M222.67,1.18h15.4l4,28.53,2.52,19.86h.34c1.18-6.65,2.44-13.38,3.7-19.86L255,1.18h12.62l6.57,28.53c1.26,6.39,2.35,13.12,3.61,19.86h.42c.76-6.74,1.6-13.38,2.36-19.86l4-28.53h14.31L288.06,63.79H269.13l-5.64-27.27c-1-4.79-1.85-9.84-2.44-14.56h-.42c-.76,4.72-1.52,9.77-2.44,14.56l-5.47,27.27h-18.6Z"/><path class="cls-1" d="M337,49.4H318.44l-3.62,14.39H299.51L319,1.18h18L356.4,63.79H340.58ZM334.1,37.78l-1.35-5.3c-1.68-6.23-3.28-13.71-5-20.11h-.33c-1.52,6.56-3.2,13.88-4.8,20.11l-1.35,5.3Z"/><path class="cls-1" d="M359,56l8.5-10.35C372,49.4,377.77,52,382.74,52c5.55,0,8.16-2.11,8.16-5.47,0-3.62-3.45-4.8-8.84-7.07l-8-3.37c-6.56-2.61-12.71-8.08-12.71-17.17C361.36,8.42,370.79,0,384.08,0a29.15,29.15,0,0,1,20.37,8.25L397,17.67c-4.12-3.11-8-4.79-12.88-4.79-4.62,0-7.49,1.85-7.49,5.21s4,4.8,9.51,7l7.83,3.11c7.74,3.11,12.37,8.33,12.37,17.17,0,10.43-8.75,19.6-23.9,19.6A35,35,0,0,1,359,56Z"/><path class="cls-1" d="M410.93,56l8.5-10.35c4.46,3.79,10.27,6.4,15.23,6.4,5.56,0,8.17-2.11,8.17-5.47,0-3.62-3.45-4.8-8.84-7.07l-8-3.37c-6.56-2.61-12.7-8.08-12.7-17.17C413.29,8.42,422.71,0,436,0a29.12,29.12,0,0,1,20.36,8.25l-7.49,9.42c-4.12-3.11-8-4.79-12.87-4.79-4.63,0-7.49,1.85-7.49,5.21s4,4.8,9.51,7l7.82,3.11c7.75,3.11,12.37,8.33,12.37,17.17,0,10.43-8.75,19.6-23.89,19.6A35,35,0,0,1,410.93,56Z"/><path class="cls-1" d="M468.33,34.33V1.18h15V35.93C483.3,47.8,486.84,52,493.74,52s10.6-4.21,10.6-16.08V1.18h14.48V34.33c0,21.13-8.42,30.63-25.08,30.63S468.33,55.46,468.33,34.33Z"/><path class="cls-1" d="M532.87,1.18h22c13.8,0,25.16,4.88,25.16,20.36C580,36.44,568.47,43,555.26,43h-7.32V63.79H532.87Zm21.63,30c7.32,0,10.85-3.45,10.85-9.6,0-6.31-4-8.5-11.27-8.5h-6.14v18.1Z"/><path class="cls-1" d="M662.3,65A54.42,54.42,0,0,1,646,58.74,32.94,32.94,0,0,1,626.2,65C612.15,65,605,56.47,605,47c0-8.75,5.3-13.8,11.36-17.59-2.44-4.55-3.78-8.92-3.78-12.88C612.57,7.57,619.21,0,630,0c9.59,0,15.82,5.64,15.82,14.39,0,8.25-6.4,13.3-13,17.67a77.38,77.38,0,0,0,12,10.69A44,44,0,0,0,652,28.11h13.63a66.15,66.15,0,0,1-10.43,21,36.32,36.32,0,0,0,10.68,3.79ZM628.05,53.52a15.48,15.48,0,0,0,7.32-2.1,86.2,86.2,0,0,1-12.45-12.29c-2.19,2.1-3.71,4.29-3.71,6.9C619.21,50.49,622.66,53.52,628.05,53.52Zm-1.26-30c4.29-2.52,7.57-5.13,7.57-9.17,0-2.86-1.34-4.54-4.12-4.54-3,0-5.39,2.44-5.39,6.64A15.76,15.76,0,0,0,626.79,23.56Z"/><path class="cls-1" d="M4.46,98.73H20.7l9.93,27c1.26,3.62,2.27,7.58,3.45,11.45h.42c1.26-3.87,2.27-7.83,3.45-11.45l9.6-27H63.87v62.61H50.15V139.88c0-6.23,1.18-15.57,1.94-21.71h-.34l-5.21,15L38.12,156H29.87l-8.49-22.89-5.05-15H16c.76,6.14,1.93,15.48,1.93,21.71v21.46H4.46Z"/><path class="cls-1" d="M77.93,131.89V98.73h15v34.75c0,11.87,3.53,16.08,10.43,16.08S114,145.35,114,133.48V98.73h14.47v33.16c0,21.12-8.42,30.63-25.08,30.63S77.93,153,77.93,131.89Z"/><path class="cls-1" d="M137.51,153.51l8.5-10.35c4.46,3.79,10.27,6.4,15.23,6.4,5.55,0,8.16-2.11,8.16-5.47,0-3.62-3.45-4.8-8.83-7.07l-8-3.37c-6.56-2.61-12.7-8.08-12.7-17.16,0-10.52,9.42-18.94,22.72-18.94A29.14,29.14,0,0,1,183,105.8l-7.49,9.42c-4.12-3.11-8-4.79-12.87-4.79-4.63,0-7.49,1.85-7.49,5.21s4,4.8,9.51,7l7.82,3.11c7.75,3.12,12.37,8.33,12.37,17.17,0,10.43-8.75,19.61-23.9,19.61A35,35,0,0,1,137.51,153.51Z"/><path class="cls-1" d="M195.24,98.73H210.3v62.61H195.24Z"/><path class="cls-1" d="M221.83,130.37c0-20.87,14-32.82,29.88-32.82a26.72,26.72,0,0,1,19,8.16l-7.91,9.6c-3.12-2.86-6.4-4.88-10.86-4.88-8.08,0-14.73,7.23-14.73,19.44,0,12.45,5.73,19.69,14.56,19.69,5,0,9-2.53,12-5.73l7.91,9.43a26.06,26.06,0,0,1-20.45,9.26C235.3,162.52,221.83,151.58,221.83,130.37Z"/></g></g></svg>