<svg xmlns="http://www.w3.org/2000/svg" viewBox="0 0 546.72 150.82"><defs><style>.cls-1{fill:#ceebf9;}</style></defs><title>06-2_品質保證</title><g id="圖層_2" data-name="圖層 2"><g id="圖層_1-2" data-name="圖層 1"><path class="cls-1" d="M6.47,1.46H55.89V16.85H25.1v17H51.52v15.5H25.1V78.86H6.47Z"/><path class="cls-1" d="M68.9,42.45v-41H87.41v43c0,14.67,4.37,19.87,12.9,19.87s13.11-5.2,13.11-19.87v-43h17.9v41c0,26.11-10.41,37.86-31,37.86S68.9,68.56,68.9,42.45Z"/><path class="cls-1" d="M148.69,1.46h18.94l19.24,37,7.6,17.17H195c-1-8.22-2.5-19.35-2.5-28.61V1.46h17.69v77.4H191.24L172.1,41.51l-7.59-17H164c.83,8.64,2.39,19.25,2.39,28.61v25.7H148.69Z"/><path class="cls-1" d="M224.64,40.57C224.64,14.77,241.91,0,261.57,0a33,33,0,0,1,23.51,10.09L275.3,22c-3.84-3.54-7.9-6-13.42-6-10,0-18.2,8.94-18.2,24,0,15.4,7.07,24.34,18,24.34,6.13,0,11.13-3.12,14.77-7.07l9.78,11.65A32.2,32.2,0,0,1,261,80.31C241.29,80.31,224.64,66.79,224.64,40.57Z"/><path class="cls-1" d="M311.2,16.85H290.29V1.46h60.55V16.85h-21v62H311.2Z"/><path class="cls-1" d="M362.8,1.46h18.63v77.4H362.8Z"/><path class="cls-1" d="M395.68,39.74C395.68,14.36,410,0,431.15,0s35.48,14.46,35.48,39.74-14.36,40.57-35.48,40.57S395.68,65.13,395.68,39.74Zm52,0c0-15-6.35-23.82-16.55-23.82s-16.43,8.84-16.43,23.82S421,64.29,431.15,64.29,447.7,54.83,447.7,39.74Z"/><path class="cls-1" d="M481,1.46h18.93l19.25,37,7.6,17.17h.52c-1-8.22-2.5-19.35-2.5-28.61V1.46h17.68v77.4H523.54L504.4,41.51l-7.6-17h-.52c.84,8.64,2.4,19.25,2.4,28.61v25.7H481Z"/><path class="cls-1" d="M377.3,130.59h17.13V150.3h-6.26v-1.9h-5v2.07H377.3Zm32.23-3.07H383V111.13h26.49Zm-26.32,9.06v5.83h5v-5.83Zm19.89-19.45h-14v4.44h14Zm11.95,13.46V150.3h-6.3v-1.9h-5.26v2.07h-6V130.59Zm-6.3,11.82v-5.83h-5.26v5.83Z"/><path class="cls-1" d="M447.45,124.63v-4.09h-2.67a11.75,11.75,0,0,1-2.59,4.74h11.43v17.9H449.3c3.58,1.12,7.08,2.33,9.45,3.28l-2.8,4.36a116.51,116.51,0,0,0-13.07-4.92l1.59-2.72H433.9l2.85,1.68a80.42,80.42,0,0,1-14.19,5.91,39.89,39.89,0,0,0-2.89-5.22,84.48,84.48,0,0,0,9.66-2.37H425v-17.9h15.92a28.33,28.33,0,0,0-3.84-2.46,9.94,9.94,0,0,0,1.89-2.28h-3.62v4h-5.52v-4h-3a13,13,0,0,1-4.14,5.78,21.86,21.86,0,0,0-4.06-3.93,9.32,9.32,0,0,0,3.89-8.24v-2.59c4.57-.21,9.75-.82,12.77-1.94l3.36,3.54a41.61,41.61,0,0,1-10.78,2.07c-.05.26-.05.52-.09.82h11.39v4.18a12.22,12.22,0,0,0,1.16-5.65v-3.15c4.83-.21,10.31-.82,13.33-1.94l3.8,3.37a47.08,47.08,0,0,1-11.95,2.2,6.91,6.91,0,0,1-.05,1h13.33v4.49H453v4.09Zm-.17,4.27H431.06v1.3h16.22Zm-16.22,6h16.22v-1.3H431.06Zm0,4.7h16.22v-1.3H431.06Z"/><path class="cls-1" d="M477.13,111.48a74,74,0,0,1-4.18,8.88v30H467V129.29c-.74.86-1.47,1.68-2.2,2.46a39.42,39.42,0,0,0-3.24-6.51,44.32,44.32,0,0,0,9.75-15.66Zm7.38,26.65a50.73,50.73,0,0,1-6.17,10.53,39,39,0,0,0-4.83-3.36,30.74,30.74,0,0,0,5.35-8.85Zm7.42-2.58v14.92h-6.3V135.55H475V129.9h10.65v-3.07h-8V111.3h23v15.53h-8.71v3.07h10.66v5.65Zm-8.37-14.2h10.79v-4.57H483.56Zm13.94,15.06a49.54,49.54,0,0,1,5.73,8.8l-5,3a50.42,50.42,0,0,0-5.43-9.24Z"/><path class="cls-1" d="M542,139.43c-1,1.85-1.9,3.75-2.76,5.26h6.21v4.92H520.71v-4.92h6a20.42,20.42,0,0,0-1.9-5l3.58-.95H524v-9.4c-.26.17-.48.39-.74.56a20.23,20.23,0,0,0-3.67-4.1,15.2,15.2,0,0,0,3.63-3.62c-.82-.56-1.77-1.21-2.68-1.73v1H505.14v-4.87h6.42c-.73-1.6-1.76-3.5-2.63-5l4.23-2.54a48.55,48.55,0,0,1,3.32,5.82l-2.5,1.73h6.51v2.8l2.51-3.23c.82.38,1.81.9,2.71,1.42.26-.65.52-1.3.74-2h-4.62v-4.83h6.56l1-.17,3.54,1.08-.26-1.25,5.13-.91c.17.74.34,1.47.56,2.2.65-.6,1.25-1.21,1.73-1.72l3.53,3.45c-1.2,1-2.54,2-3.71,2.76.18.39.35.78.52,1.12.86-.69,1.73-1.42,2.33-2l3.45,3.49c-1.16.78-2.41,1.6-3.54,2.24a16.4,16.4,0,0,0,4.1,3.8,20.51,20.51,0,0,0-4.1,4.53c-.21-.17-.47-.35-.69-.52v9.92h-3Zm-22.65,8.76h-7.89v1.72h-4.71V134.77h12.6Zm-.22-20.8h-12.2v-4.65h12.2Zm-12.2,1.3h12.2v4.66h-12.2Zm4.53,11v3.53h3.1v-3.53ZM538.14,126H528v-1.07a25.77,25.77,0,0,1-1.94,2.45h14.23a20.57,20.57,0,0,1-2.15-2.58Zm-9,8.16h7.25v-2.12h-7.25Zm1.13,4.61a17.87,17.87,0,0,1,2.07,5.18l-2.68.73h4.1a37.86,37.86,0,0,0,1.94-5.91ZM536,121.14a44.24,44.24,0,0,1-3.1-9.27,36,36,0,0,1-2.76,9.27Z"/><rect class="cls-1" y="122.19" width="352.33" height="8"/></g></g></svg>