<svg xmlns="http://www.w3.org/2000/svg" xmlns:xlink="http://www.w3.org/1999/xlink" viewBox="0 0 121 121"><defs><style>.cls-1{fill:none;}.cls-2{fill:#0d171c;}.cls-3{fill:#009c75;}.cls-4{fill:#ceebf9;}.cls-5{clip-path:url(#clip-path);}</style><clipPath id="clip-path"><circle class="cls-1" cx="60.37" cy="60.82" r="45.97"/></clipPath></defs><title>02_頭像_wassup</title><g id="圖層_2" data-name="圖層 2"><g id="圖層_1-2" data-name="圖層 1"><circle class="cls-2" cx="60.5" cy="60.5" r="59"/><path class="cls-3" d="M60.5,121A60.5,60.5,0,1,1,121,60.5,60.57,60.57,0,0,1,60.5,121Zm0-118A57.5,57.5,0,1,0,118,60.5,57.56,57.56,0,0,0,60.5,3Z"/><circle class="cls-4" cx="60.37" cy="60.82" r="45.97"/><g class="cls-5"><path class="cls-2" d="M111.06,110a13.34,13.34,0,0,1-2.36.86c-2.54.65-18,10.27-19.52,7-.9-1.95-8.11,2.5-6.84,1.61a4.39,4.39,0,0,1,.47-.27,4.2,4.2,0,0,1,2.76-.13,4.34,4.34,0,0,0,2.47,0,3.56,3.56,0,0,0,.47-.19c.68-.32,6-3.67,5.41-15.54-.57-10.81-4.44,13.06-2.69,7.49,1.41-4.48,5.76-8.63,10.62-10.94,1.74-.82,9.63,19.95,11.23,19.88,4.91-.22,5.57-20.23,7.28-17a3.69,3.69,0,0,1-.4,4.1,5,5,0,0,1-1.84,1.6,6.57,6.57,0,0,1-5.39,0c-1.58-.7-2.83-2-4.79-1.57a10.67,10.67,0,0,0-2.19.75c-3.63,1.72-2.91,3.41-3.85,6-1.14,3.21,7.26,1.68,7.44,4.52,0,.16,0,.35,0,.56.13,1.8-5.64-16.52-6.49-10.17-.46,3.46-1.15,7.49-2.84,10.46-2,3.47,14-10.36,11-9Z"/><path class="cls-3" d="M108.39,109.65c7.21-1.86-7.61,5.71-6.68-1.24s6.48,11.36,6.38,9.78-8.36-1.29-7-5.21,1.24-6.19,6.53-7.4,8.32,4.51,11.29.49-5.76-7.35-11.82-7.07-13,6.83-14.71,12.19,2.78-18.56,3.34-7.77-4.2,15.74-7.31,16.82c-2.51.86-3.93-.74-5.4.28S99.4,112,108.39,109.65Z"/><path class="cls-2" d="M74.16,44.05l.76,1.19h0l.1.18.32.58.22.39.17.27a13.59,13.59,0,0,0,1,1.48l.24.3.2.17.11,0a13.52,13.52,0,0,1,4.08,1.94,9.08,9.08,0,0,1,4.07,7c0,.45,0,.89,0,1.31,0,.13,0,.25,0,.37a8,8,0,0,1-.78,2.82,18,18,0,0,0-.64,1.77h0c0,.77,1.18,1.78,2.58,3.64a33.85,33.85,0,0,1,4.63,9.09,28.85,28.85,0,0,0,3.27,6.78c1.87,2.64,3.29,6.93,3.2,12.47,0,.32-.07,1.27-.08,1.58a26.52,26.52,0,0,1-3.28,11.36c-3,5.09-2.68-7.91-2.94-1.54,0,.17,0-.16,0,0s-.08,1.51-.08,1.58c.72,1.78,8.74-19.08,8.55-7.68q0,.59,0,1.17l0,.7c-.58,10.32,13.53,2.83,4.07,10-4.87,3.69,2.71-13.73,1.94-10.39a3.31,3.31,0,0,0-.09.69v.14a19.86,19.86,0,0,0,.45,3.61,19.42,19.42,0,0,1,.43,3.54v.15a2.29,2.29,0,0,1-1.06,2,3.33,3.33,0,0,1-1.76.29c-.77,1.69-1.08,4-3.79,4.39-1.35.22-3.76.45-4.83-.48a8.85,8.85,0,0,1-2.57-4.94,5.68,5.68,0,0,1-1.29-3.59v-.12a5.57,5.57,0,0,1,.42-1.86c.49-1.15,2.3-3,3.71-5.16,1.71-2.66-8.41,14.78-7,11.86h0c-1.66-1.09-23.39,6.36-26.18,6.16l-.34,0-.11-.06a7.64,7.64,0,0,1-1.62-.31.48.48,0,0,0-.6.35,4.49,4.49,0,0,1-.29.77l-.1.21-.18.2c-2.51,2.87-5.18-9.34-6.58-9.17a3.79,3.79,0,0,0-2.76,1.92c-.71,1-4.2,2.18-4.69,3,9.23-16.18-9.59-2.73-4.82-2.65h-.37c-3.06,0-7.79,6.62-8.68.24-.65-4.66,9-4.63,4.76-9.06-2.74-2.9-16.74,4.44-16.6-3.94,0-.21,0-.41,0-.61.19-4.63,10.35,5.68,13.09,2.7-.32-1.36-11.56,10.46-11.5,6.53,0-.31-3,1.38-3,1.07a37.85,37.85,0,0,1,.54-4.26c.71-4.63,8.88,7,9,5.21,0-.17,0-.33,0-.49a15.47,15.47,0,0,0-.12-2.22,17.84,17.84,0,0,1-.1-2.32c0-.23,0-.45,0-.68.11-2.59-9,9.15-8.39,7.27.36-1,.08-2.65.2-5.1a61.45,61.45,0,0,1,1.72-13.41c1.91-6.92,7-13.62,8.28-15.39a7.54,7.54,0,0,0-.47-1.39,3.18,3.18,0,0,1,0-1.86c.42-3.12,1-4.39,2.71-6,.57-.54,1.12-1,1.63-1.41l.13-.1.14-.07c.38-.18.78-.35,1.16-.51l.29-.13a3.55,3.55,0,0,1,1.32-.16h0c.26-2.32.34-5.31.7-8a22.75,22.75,0,0,1,1.45-5.77c-.78-1.71-3.16-7-3.69-10-.1-.58-.21-1.14-.32-1.69A15.65,15.65,0,0,1,33.61,39v-.1a2.08,2.08,0,0,1,1-1.89c1-.6,2.32.65,2.71.87A36.62,36.62,0,0,0,42,39.68a23.73,23.73,0,0,1,4.1,2A20.82,20.82,0,0,1,50.43,39c1.7-.64,3.68-.6,5.94-.78.07-1.46-.22-4.07.39-5.81.19-.54.36-1.09.53-1.62.69-2.18,1.28-3.05,2.55-3.37.61-.16,1.11-.55,1.61-.07s.69,2.48,1.29,4,1.91,3.18,3.37,5.39a42.26,42.26,0,0,1,2.28,4.8c1.1.14,3.33-.08,5,1.66"/><path class="cls-3" d="M40.52,84.85l.31-.65c0-.93-.41-1.91-1.54-3.37a10.78,10.78,0,0,0-1.23-1.35c-.32-.3-.49-.47-.49-.7a.42.42,0,0,1,.38-.41c.47,0,1.28.67,2.62,2,.23.23.49.49.55.53.32.19.48.78.46,1.74a4.82,4.82,0,0,0,.21,1.06c.11.4.39.77.39,1.09,0,.08.19.56-.09.65a.82.82,0,0,0-.46.47c-.32,1.14.09,1.74,1.13,2.41.48.31,1.67.36,2-.39,0,0-.46,1.4,1.5,1.67a1.88,1.88,0,0,0,2.31-1.41s.66,1,1.5.73a2.93,2.93,0,0,0,1.29-.75,4.05,4.05,0,0,0,1.19-3.82,13.87,13.87,0,0,0-4.18-7.89,14.92,14.92,0,0,1-1.06-1.22,20.91,20.91,0,0,0-5.26-4.55A4.48,4.48,0,0,0,38.25,70,1.46,1.46,0,0,1,37,69.7a1.37,1.37,0,0,0-1.56-.16l-.29.13c-.38.16-.74.31-1.08.48a17.68,17.68,0,0,0-1.49,1.29c-1.87,1.79-2.31,4.59-2.34,6.61a15.12,15.12,0,0,0,.08,1.78l0,.09-.06.08c-.06.08-5.67,7.72-7.78,15.38-1.25,4.56-1,9.16-1.17,13a23,23,0,0,1-1.16,6.13C19.5,116.38,29,104.29,29,106.9a18.6,18.6,0,0,0,.08,2.1,17.21,17.21,0,0,1,.14,2.44c0,1.86-8.34-9.55-9.12-4.43-.25,1.61,2.61,1.26,2.59,2.9-.09,5.09,10.93-6.42,10.94-6.39l0,.13-.1.1c-2.9,2.88-12.42-7.24-12.49-2.46-.13,7.59,13.5.53,16.16,3.34,4.44,4.7-5.46,4.66-4.75,9.69s4.33-1.94,7.53-1.9h.37c-5.72-.09,13.61-13,4.33,3.28a34,34,0,0,1,1.84-3c1.32-1.88,4.45-2,5.64-2.16s3.71,11.68,5.81,9.25l0,0a2.66,2.66,0,0,0,.28-1.14,3.35,3.35,0,0,0-1-2.35c-1.18-1.22-1.8-1.51-4.24-1.42-3.18.13-3.82.77-3.94,2,0,.38-.06.58-.27.62s-.28-.14-.33-.24-.14-.27-.23-.27-.27,0-.73.69c-.91,1.34-4.77-9.75-5.59-8.87-.48.51-.93,1-1.39,1.54-.23.28-.47.58-.7.88-1.14,1.43-1.86,2.31-2.45,2.29a.58.58,0,0,1-.44-.26v0a.5.5,0,0,1,0-.12c0-.35.55-1,1.78-2.32.36-.4.82-.9,1.09-1.23l-.54.19c-1.29.47-1.64.57-1.85.43a.28.28,0,0,1-.11-.23v0c0-.21.26-.31.92-.62a7.87,7.87,0,0,0,3-2.11c.41-.61,3.87,10.65,4.28,10A11.24,11.24,0,0,1,47,115.05a.36.36,0,0,1,.53.06,1.81,1.81,0,0,0,.34-.32c.79-.93,1.35-1.44,3.85-1.24.43,0,.85,0,1.26.07,1.8.06,3.51.12,5,2a5.55,5.55,0,0,0,4.38,2.46.61.61,0,0,1,.24.07c3.14.22,24.58-6.79,26.43-5.57.64-.45-10,5.91-9.77,3.93.08-.64-4.73,2.36-4.72,1.63.07-4.17-4-5.33-4.55-7.73a12.5,12.5,0,0,1-.32-1.73v-.06c0-.28.24-.31.28-.31.66,0,1.94,3.38,2.34,4.86a21.81,21.81,0,0,1,.82,6.39c0,3.06,18.3-9.64,17.07-6.18l0,0-.07.16-.07.16-.06.15,0,.11h0c-1.41,3.18,8.28-14.22,6.42-11.32a42.5,42.5,0,0,0-2.89,4.85,3.77,3.77,0,0,0-.3,1.38,4.22,4.22,0,0,0,1.17,2.82l.07.07v.1a7.21,7.21,0,0,0,2.07,4.3,2.84,2.84,0,0,0,2.4.72c3.16-.51,4.21-4.23,4.22-4.27l.06-.22.21,0a1.7,1.7,0,0,0,1.44-.11,1.72,1.72,0,0,0,.46-1.39,17.69,17.69,0,0,0-.41-3.22,21.54,21.54,0,0,1-.47-3.92,5,5,0,0,1,.13-1.16c.89-3.87-6.65,13.49-1.35,9.47,9.07-6.88-5.25,1-4.7-8.83q0-.89.06-1.8c.2-12.2-9.45,8-9.49,7.87l0,0v0c0-.16,0-.33,0-.51.1-6.07,1.34,4.42,4.57-1.1,1.42-2.41,2.3-6.55,2.38-11.07.08-5.13-.86-9.58-2.52-11.92A30.54,30.54,0,0,1,90,77.55a32.4,32.4,0,0,0-4.41-8.69c-1.68-2.23-2.3-3.5-2.28-4.69a6.25,6.25,0,0,1,.3-1.6,11.73,11.73,0,0,0,.51-3.3c0-.38,0-.78,0-1.19-.34-5.64-6.43-7.37-7-7.52-.14,0-.38-.05-.77-.38a7.82,7.82,0,0,1-1.53.3,11.68,11.68,0,0,0-1.18.25c-1.16.28-1.65.38-1.88.24a.3.3,0,0,1-.13-.19v-.06c0-.58,2.88-1,2.91-1,.43-.05.78-.11,1.06-.15l.15,0a14.51,14.51,0,0,1-1.15-1.66l-.39.18-.49.23a7,7,0,0,0-.86.56c-.51.35-.78.54-1,.49a.38.38,0,0,1-.22-.15.39.39,0,0,1,0-.18c0-.48,1-1,1.6-1.34l1-.49-.34-.61a7.46,7.46,0,0,0-.5-.82l-.84.55c-.4.26-.78.5-1,.66a11.76,11.76,0,0,0-.9.79c-.88.81-1.26,1.14-1.53,1.12a.27.27,0,0,1-.21-.1l-.07-.09v-.09c0-.39,1.21-1.52,2.07-2.16.57-.42,1.34-.93,2-1.31a6.17,6.17,0,0,0-4.73-2.32h-.16l-.07-.15A43.79,43.79,0,0,0,65,38,33.07,33.07,0,0,1,61.8,31.5a8.91,8.91,0,0,0-1.25-2.62c-.14-.14-.22-.12-.24-.12-.41.11-.88,1.58-1.29,2.88-.17.54-.35,1.11-.54,1.67a19.19,19.19,0,0,0-.82,5.45c0,.36,0,.58,0,.58v.23h-.23a20,20,0,0,0-11.19,3.56l-.15.12-.15-.12a20.23,20.23,0,0,0-5-2.28,30.48,30.48,0,0,1-4.31-1.8c-.67-.39-.93-.36-1-.3s-.18.28-.19.62a15.48,15.48,0,0,0,.42,2.76c.11.56.23,1.14.33,1.74.6,3.4,3.59,9.74,3.62,9.8l0,.11-.06.1c-1.36,2.43-2.28,9.64-2.62,12.74l.41.51a13.21,13.21,0,0,1,2.13.87,4.69,4.69,0,0,0,2.14.65c1,0,1.71.79,2.72,2A26.73,26.73,0,0,0,47,73.12l4.65,4.72c1,1.1.69,1,1.31,2,.14.23.57,1.67.85,2.5l.4,1.64a.82.82,0,0,1,0,.22c0,1.51.27,2.68-.52,4.3a4.76,4.76,0,0,1-1.9,1.53c-.46.21-2.1,1.07-2.65.83a2.07,2.07,0,0,0-1.43-.06,5.63,5.63,0,0,1-2.27.2A2.33,2.33,0,0,1,44,90.35a.55.55,0,0,0-.59-.17c-.48.15-1.49-.51-1.78-.74a3.6,3.6,0,0,1-1.11-2,9.79,9.79,0,0,1-.15-2.13A1.13,1.13,0,0,1,40.52,84.85ZM60.37,112.2a.94.94,0,0,0,1.09-.32l1-1.38a.14.14,0,0,1,.2,0,.37.37,0,0,1,.07.51l-.8,1.08a.16.16,0,0,0,.16.25l1.39-.27a.2.2,0,0,1,.23.16.31.31,0,0,1-.25.36l-.85.16a.17.17,0,0,0,0,.32l1.77.68a.28.28,0,0,1,.16.36.25.25,0,0,1-.3.13l-2.74-1.17a.08.08,0,0,0-.08,0l-1.61,1.87a.25.25,0,0,1-.33,0l0,0a.25.25,0,0,1-.05-.33l.88-1.17a.16.16,0,0,0-.16-.25l-1.26.23a.32.32,0,0,1-.38-.26v-.06a.13.13,0,0,1,.09-.14l1.62-.17a.07.07,0,0,0,0-.13L58.43,112a.13.13,0,0,1-.07-.16.38.38,0,0,1,.5-.22Zm13-42.94c.75-1.09,1.69-1.79,2.18-1.64a.4.4,0,0,1,.27.4.79.79,0,0,1,0,.25l.07,0a.65.65,0,0,1,.48-.07.29.29,0,0,1,.15.16v.1c0,.23-.33.61-1.84,2.16-.33.33-.62.62-.79.81a10.51,10.51,0,0,0-1.06,2,16.25,16.25,0,0,1-1,2,5.4,5.4,0,0,0-.8,2.71,4.1,4.1,0,0,0,.21,1.42,6.23,6.23,0,0,1,.26,2.14c0,.19,0,.38,0,.58s0,.44,0,.68c0,.71,0,1.31.06,1.94A19.61,19.61,0,0,0,72,88.22,14.25,14.25,0,0,1,72.43,91a5.45,5.45,0,0,0,3,4.35c1.58.9,2.82.94,4.86-1.37a7,7,0,0,0,1.36-4.61,19.73,19.73,0,0,0-.37-4,10.87,10.87,0,0,1-.11-2c0-.32,0-.62,0-.91s0-.49,0-.71a6.68,6.68,0,0,0,0-.72c0-.24-.09-.46-.14-.67a2.89,2.89,0,0,1-.14-.88A1.81,1.81,0,0,1,81,79c.07-.24.14-.75.22-1.28.22-1.54.32-2,.57-2.09a.26.26,0,0,1,.28,0c.43.28.54,2.39.53,3.3a6.82,6.82,0,0,1-.11,1.23,5.69,5.69,0,0,0-.08.83,9.3,9.3,0,0,0,.35,2.33c0,.14.07.28.11.42a24.8,24.8,0,0,1,.45,3.75.33.33,0,0,1,0,.14,9.72,9.72,0,0,1-.1,1.11,35.36,35.36,0,0,0-.3,4,5.06,5.06,0,0,1-1.83,3.7,3.87,3.87,0,0,1-2.48,1.11,13.41,13.41,0,0,0-1.68-.08c-.49,0-1,0-1.39,0-1-.1-1.84-.49-3-2.19-.35-.49-.65-.88-.91-1.23a6.48,6.48,0,0,1-1.22-2A9.35,9.35,0,0,1,70,90.23c-.07-.63-.16-1.42-.37-2.47a41,41,0,0,1-.37-6.92,24.15,24.15,0,0,1,1.08-5.18l0-.16A26.72,26.72,0,0,1,73.35,69.26ZM71.63,58a.31.31,0,0,1,.26.07c.06,0,.22.18.21.79a4.12,4.12,0,0,1-.45,1.76,6,6,0,0,1-2.74,2.24c-.21.11-.45.25-.7.41A6.69,6.69,0,0,1,65,64.43a5.94,5.94,0,0,1-3.29-.52.36.36,0,0,1-.11-.25v-.07c.12-.39.57-.38,1.76-.36,1,0,1.8-.17,4.12-1.26,3-1.4,3.53-2.89,3.77-3.53C71.37,58.2,71.44,58,71.63,58ZM65.78,46c.69-.25,1.24-.2,1.54.15h0v0a.46.46,0,0,1,.1.28c0,.3-.28.45-.63.65a5.93,5.93,0,0,0-.76.51c-.16.15-.32.32-.48.49-.35.38-.69.74-1.1.71a.94.94,0,0,1-.68-.49.66.66,0,0,1-.11-.36C63.69,47.24,64.8,46.32,65.78,46Zm-1.61,6.1a.47.47,0,0,1-.4-.1.44.44,0,0,1-.14-.35,1.16,1.16,0,0,1,.38-.75.92.92,0,0,1,.66-.25.59.59,0,0,1,.59.58C65.26,51.55,64.92,52,64.17,52.06Zm-4.47.28c.58-.17,1.85-.28,2.17.21a.36.36,0,0,1,.06.2c0,.4-.71.56-1.3.63s-1.48.1-1.6-.39a.28.28,0,0,1,0-.09C59,52.66,59.25,52.47,59.7,52.34Zm-4.92,9.5a10.16,10.16,0,0,0,3.91-1A9.76,9.76,0,0,0,61.79,58c.61-.82,2.05-2.73,4.27-2.85a22.13,22.13,0,0,1,3.87.24c.51.07,1,.12,1.22.13.55,0,1,.32,1,.72,0,.18-.12.61-1.09.7a7.7,7.7,0,0,1-2-.23c-1.27-.26-2.72-.54-3.74.09a18.41,18.41,0,0,0-2.79,2.51,11,11,0,0,1-2.11,1.88c-.23.11-.49.25-.76.4a9,9,0,0,1-3.24,1.27c-2.29.23-2.57,0-2.68-.13a.38.38,0,0,1-.12-.28.4.4,0,0,1,0-.15C53.9,61.83,54.63,61.83,54.78,61.84Zm-9.46-4.15h0c0-.44.61-.44,2.24-.44a3.21,3.21,0,0,1,2,.39.37.37,0,0,1,.11.27h0a.29.29,0,0,1-.12.23c-.18.15-.51.11-1.12,0a5.38,5.38,0,0,0-1-.11h-.54C45.87,58.06,45.34,58.07,45.32,57.69Zm3.2,2.5a10.18,10.18,0,0,0-1.17.3c-1.74.61-2,.45-2.06.22a.27.27,0,0,1,0-.12c0-.28.27-.36,1-.59l1-.33a7,7,0,0,1,2.93-.51.29.29,0,0,1,.14.17v.08C50.35,59.74,49.9,59.87,48.52,60.19Zm2-9.28c.28-.37,2.89-1.28,5.41.55a.28.28,0,0,1,.13.24v.11l-.08.07c-.14.13-.44.14-2,0-.57,0-1.16-.08-1.48-.08a3.31,3.31,0,0,1-1.93-.47.38.38,0,0,1-.11-.26A.32.32,0,0,1,50.53,50.91Zm-5.23,4c.4-.29,3.34.15,3.77.23,0,0,2.86.55,2.85,1.14v0a.27.27,0,0,1-.14.19c-.23.13-.72,0-1.87-.32a11,11,0,0,0-1.16-.31c-.26-.05-.71-.1-1.18-.15-2.14-.24-2.38-.31-2.38-.61v0h0A.27.27,0,0,1,45.3,54.87Z"/></g></g></g></svg>