<svg xmlns="http://www.w3.org/2000/svg" viewBox="0 0 98.26 98.26"><defs><style>.cls-1{fill:#0d171c;}.cls-2{fill:#009c75;}</style></defs><title>03_商品區（點後）</title><g id="圖層_2" data-name="圖層 2"><g id="圖層_1-2" data-name="圖層 1"><rect class="cls-1" x="1.5" y="1.5" width="95.26" height="95.26"/><path class="cls-2" d="M98.26,98.26H0V0H98.26ZM3,95.26H95.26V3H3Z"/><path class="cls-2" d="M69.67,34.1a1.59,1.59,0,0,0-1.25-.6H33.67l-1.2-5.4a1.69,1.69,0,0,0-1.2-1.25L24.62,25.2a1.65,1.65,0,1,0-.8,3.2l5.65,1.4,6.8,31.06a1.66,1.66,0,0,0,1.6,1.3H64a1.65,1.65,0,1,0,0-3.3H39.22L38.57,56,65.72,52.8a1.76,1.76,0,0,0,1.45-1.35l2.9-16A1.73,1.73,0,0,0,69.67,34.1Zm-4,7.3-5.1.3L61,36.85h5.45ZM49,45.65V51.4l-4,.45-.5-6Zm-4.85-3-.5-5.8H49v5.5Zm8.2,2.85,4.55-.25-.5,5.35-4,.45V45.5Zm0-3.35v-5.3h5.35l-.5,5Zm-12-5.3.5,6-5.05.3-1.35-6.3Zm-3.8,9.55,4.6-.25.55,6.15-3.75.45Zm23.2,3.8.5-5.15,4.8-.3-.9,5Z"/><circle class="cls-2" cx="60.62" cy="67.96" r="3.9"/><circle class="cls-2" cx="41.47" cy="67.96" r="3.9"/></g></g></svg>