<svg xmlns="http://www.w3.org/2000/svg" viewBox="0 0 95.26 95.26"><defs><style>.cls-1{fill:#009c75;}.cls-2{fill:#0d171c;}</style></defs><title>03_商品區</title><g id="圖層_2" data-name="圖層 2"><g id="圖層_1-2" data-name="圖層 1"><rect class="cls-1" width="95.26" height="95.26"/><path class="cls-2" d="M68.17,32.6a1.59,1.59,0,0,0-1.25-.6H32.17L31,26.6a1.69,1.69,0,0,0-1.2-1.25L23.12,23.7a1.65,1.65,0,1,0-.8,3.2L28,28.3l6.8,31.06a1.66,1.66,0,0,0,1.6,1.3H62.52a1.65,1.65,0,0,0,0-3.3H37.72l-.65-2.9L64.22,51.3A1.76,1.76,0,0,0,65.67,50l2.9-16A1.73,1.73,0,0,0,68.17,32.6Zm-4,7.3-5.1.3.45-4.85h5.45ZM47.47,44.15V49.9l-4,.45-.5-6Zm-4.85-3-.5-5.8h5.35v5.5ZM50.82,44l4.55-.25-.5,5.35-4,.45V44Zm0-3.35v-5.3h5.35l-.5,5Zm-12-5.3.5,6-5.05.3-1.35-6.3ZM35,44.9l4.6-.25.55,6.15-3.75.45Zm23.2,3.8.5-5.15,4.8-.3-.9,5Z"/><circle class="cls-2" cx="59.12" cy="66.46" r="3.9"/><circle class="cls-2" cx="39.97" cy="66.46" r="3.9"/></g></g></svg>