<svg xmlns="http://www.w3.org/2000/svg" viewBox="0 0 137.22 49.93"><defs><style>.cls-1{fill:#ceebf9;}.cls-2{fill:#0d171c;}</style></defs><title>05-1_了解更多貓砂</title><g id="圖層_2" data-name="圖層 2"><g id="圖層_1-2" data-name="圖層 1"><rect class="cls-1" width="137.22" height="49.93"/><path class="cls-2" d="M32.87,19.73a29.73,29.73,0,0,1-5.65,4.69v6c0,1.29-.3,1.94-1.23,2.28a10.2,10.2,0,0,1-3.71.4,9.39,9.39,0,0,0-1-2.44c1.06.05,2.46.05,2.85.05s.49-.08.49-.36V23.23A19.27,19.27,0,0,0,28,20.81h-9V18.42H30.4l.54-.13Z"/><path class="cls-2" d="M50.32,30.5H47.68V33H45.4V30.5H42.55V28.45H45.4V27.24H44.29a7.66,7.66,0,0,1-.57,1.11,9.13,9.13,0,0,0-1.41-.76v3.28c0,.88-.14,1.47-.69,1.82a4.25,4.25,0,0,1-2.19.38,7.24,7.24,0,0,0-.66-2c.54,0,1.14,0,1.34,0s.25-.06.25-.26V28.75H37.42a10.23,10.23,0,0,1-1.32,4.37,8.85,8.85,0,0,0-1.66-1.06c1.13-1.71,1.21-4.18,1.21-6.05V23.44a13.61,13.61,0,0,0-1.32-1.06,11.26,11.26,0,0,0,2.38-5.05l2.12.46c-.1.38-.2.76-.33,1.13h1.24l.3-.08,1.36.82a21.25,21.25,0,0,1-.84,2h1.75v.84a3,3,0,0,0,1.74-2.34H42.41V18.19H49.9s0,.48,0,.73c-.06,2.6-.2,3.79-.56,4.26a1.64,1.64,0,0,1-1.08.61c-.2,0-.48.05-.78.07h.23v1.37H50v2H47.68v1.21h2.64ZM37.84,20.71c-.15.31-.28.63-.43.93h1.16c.12-.29.23-.62.33-.93ZM37.56,26c0,.31,0,.64,0,1h.63V26h-.61Zm0-1.74h.61v-.91h-.61Zm2.17,0h.63v-.91h-.63ZM40.36,27V26h-.63V27Zm2-.1a9.51,9.51,0,0,0,.83-2.61A5.34,5.34,0,0,0,42.31,23Zm3.09-1.68V23.86h1.17A4.8,4.8,0,0,0,46,21.93a9.94,9.94,0,0,0,1,.07.46.46,0,0,0,.43-.18,4.05,4.05,0,0,0,.25-1.68H46.21a4.85,4.85,0,0,1-2.5,3.92l1.42.28c-.05.3-.12.59-.18.89Z"/><path class="cls-2" d="M60.13,28a5.54,5.54,0,0,1-1.06,2,30.25,30.25,0,0,0,8,.45,6,6,0,0,0-1,2.39c-3.5,0-6.56-.2-9-1.2a14.13,14.13,0,0,1-4.33,1.44A10.52,10.52,0,0,0,51.26,31a17.8,17.8,0,0,0,3.35-.73,9.88,9.88,0,0,1-1.47-1.61l1.6-.65H53.05V20.89h4.83v-.73H51.66V18h14.7v2.14h-6v.73H65.3V28Zm-4.81-4.44h2.56v-.73H55.32Zm0,2.52h2.56v-.74H55.32Zm.1,1.92A6.49,6.49,0,0,0,56.72,29,3.64,3.64,0,0,0,57.48,28Zm5-5.17v.73h2.51v-.73Zm2.51,2.51H60.41v.74h2.51Z"/><path class="cls-2" d="M83.22,25.78c-2.36,5.14-7.69,6.78-14.34,7.36a9.12,9.12,0,0,0-.94-2.32,29.43,29.43,0,0,0,6.84-1.05,15.17,15.17,0,0,0-1.37-1.22c-.58.25-1.21.51-1.86.74a7.11,7.11,0,0,0-1.46-1.87,14.45,14.45,0,0,0,6.53-3.58,23.86,23.86,0,0,1-7.34,2.44,8.86,8.86,0,0,0-1.11-2.11,25.68,25.68,0,0,0,4.52-1,17.77,17.77,0,0,0-1.32-1.26c-.4.2-.8.4-1.23.58a7.17,7.17,0,0,0-1.62-1.72,14.28,14.28,0,0,0,5.81-3.48l2.59.59c-.25.27-.51.52-.78.77h3l.4-.1,1.59.93a11,11,0,0,1-3.8,3.91l2.32.53c-.31.36-.62.71-1,1h2.37l.43-.12Zm-9.93-5a14.61,14.61,0,0,1,1.61,1.45,11.21,11.21,0,0,0,2.35-1.53H73.42Zm2.82,6.25c-.2.14-.4.25-.6.37a16.16,16.16,0,0,1,1.66,1.37,8.4,8.4,0,0,0,2.3-1.74Z"/><path class="cls-2" d="M91.36,21.9a13.92,13.92,0,0,1-2.12,1.81c1.7,2.7,1.67,7,.71,8.23A2.22,2.22,0,0,1,88,33c-.32,0-.75,0-1.15,0a5,5,0,0,0-.48-2.06,10.89,10.89,0,0,0,1.15.07.71.71,0,0,0,.74-.5,2.85,2.85,0,0,0,.27-1.17,20.36,20.36,0,0,1-3.43,2.3A8.64,8.64,0,0,0,84,29.87a13,13,0,0,0,4.42-2.8,3.25,3.25,0,0,0-.08-.43,19.92,19.92,0,0,1-3.07,2A7.2,7.2,0,0,0,84.18,27a13.89,13.89,0,0,0,3.63-2,1.69,1.69,0,0,0-.17-.29,20.51,20.51,0,0,1-2.22,1.07,8.63,8.63,0,0,0-1.12-1.54c.44-.18.89-.38,1.34-.6a16.73,16.73,0,0,0-1-1.82L86.19,21c.34.52.79,1.21,1.06,1.73l.68-.45c-.2-.43-.54-1-.78-1.39l1.5-.82c.24.32.5.73.73,1.08a6.85,6.85,0,0,0,.62-.58l.71.68V19.22H92V17.49h2.22v1.73h.81v2.22h-.81v1.42H92V21.44H90.88Zm-.68-3.15a16,16,0,0,1-5.37,2.14,8.78,8.78,0,0,0-1.08-1.71,18.37,18.37,0,0,0,5.15-1.87Zm.48,4.73h8.23v9.43H97.11v-.83H93.33v1H91.16Zm2.17,2.05v1.23h.89V25.53ZM94.22,30V28.73h-.89V30ZM100,19.25v2.2H98.6v1.41H96.36V21.45h-.83v-2.2h.83V17.49H98.6v1.76Zm-2.91,6.28h-.85v1.23h.85Zm0,4.49V28.73h-.85V30Z"/><path class="cls-2" d="M107.15,30.75c3.56-.63,5.79-2,6.85-5.2l2.27.59c-1.3,4.05-3.83,5.77-8.06,6.83a6.76,6.76,0,0,0-1.06-1.9v0h-3v1.19h-2.05V27.22a9.18,9.18,0,0,1-.81,1,13,13,0,0,0-.75-2.93,12.55,12.55,0,0,0,2.22-5.14h-1.64V18h6.28v2.17H105c-.25,1-.53,2-.88,3h3Zm-2.1-5.47h-.87V29h.87Zm5.3-4.67a26,26,0,0,1-1.18,5.24,15,15,0,0,0-2-1,19,19,0,0,0,1-4.71Zm2.55,7h-2.28V17.36h2.28Zm1.51-2.55A21.68,21.68,0,0,0,113,20.43l2.09-.7a24,24,0,0,1,1.56,4.57Z"/></g></g></svg>