<svg xmlns="http://www.w3.org/2000/svg" viewBox="0 0 161.32 49.93"><defs><style>.cls-1{fill:#009c75;}.cls-2{fill:#0d171c;}</style></defs><title>05-2_貓砂音樂節目（點後）</title><g id="圖層_2" data-name="圖層 2"><g id="圖層_1-2" data-name="圖層 1"><rect class="cls-1" width="161.32" height="49.93"/><path class="cls-2" d="M131.4,17.88V31.09a3.68,3.68,0,0,0-2.45-.34,3.09,3.09,0,0,0-2.74,3.4A3.14,3.14,0,0,0,130,36.28a3.2,3.2,0,0,0,2.78-2.86V22l10.52-1.67v8.88a3.73,3.73,0,0,0-2.45-.35,3.1,3.1,0,0,0-2.73,3.41A3.13,3.13,0,0,0,142,34.41a3.2,3.2,0,0,0,2.77-2.86V15.77Z"/><path class="cls-2" d="M22.23,27.56c-.48.15-1,.28-1.46.42v3.74c0,1.05-.16,1.66-.73,2a4.27,4.27,0,0,1-2.42.46A8.18,8.18,0,0,0,17,32a9.45,9.45,0,0,0,1.27,0c.2,0,.27,0,.27-.27V28.57l-1.34.37-.5-2.3c.53-.1,1.16-.25,1.84-.4V23.69H17V21.48h1.56v-3h2.2v3H22.1v2.21H20.77v2l1.16-.3Zm2.14-4.11H22.3V20.11h3.38c-.12-.47-.25-.95-.36-1.36l2.51-.45c.2.55.42,1.23.57,1.81h4v3.34H30.19V22h-.47v1.72c0,.38,0,.55.32.55h1a4.5,4.5,0,0,0,1.13-.12c.05.55.08,1.28.17,1.79a4.48,4.48,0,0,1-1.23.14H29.81c-1.84,0-2.22-.72-2.22-2.39V22h-.32c-.21,2.17-.91,3.54-4.08,4.29a5.32,5.32,0,0,0-1.14-1.72c2.4-.45,2.83-1.23,3-2.57h-.66Zm5.47,8.26c.56,0,.84-.22.91-2.36a7.12,7.12,0,0,0,2,.72c-.2,3.18-1.08,3.81-3.07,3.81H26.08c-2.32,0-3.35-.9-3.37-2.29,0-.79.17-1.54,2.62-3.07H22.94v-2h6.4l.53-.05,1.49.91a2,2,0,0,1-.34.4c-5.56,2.55-6,3.08-6,3.5s.37.43,1,.43Z"/><path class="cls-2" d="M39.75,31.86c3.56-.63,5.78-2,6.85-5.21l2.27.6c-1.3,4-3.83,5.77-8.06,6.83a6.81,6.81,0,0,0-1.06-1.91v0h-3v1.2H34.73V28.33a11.55,11.55,0,0,1-.81,1,13.11,13.11,0,0,0-.75-2.94,12.51,12.51,0,0,0,2.22-5.13H33.75V19.1H40v2.17h-2.4c-.25,1-.53,2-.88,3h3Zm-2.1-5.47h-.87v3.73h.87ZM43,21.71A25.68,25.68,0,0,1,41.77,27a13.86,13.86,0,0,0-2-.94,19.23,19.23,0,0,0,1-4.71Zm2.55,7.05H43.22V18.46H45.5ZM47,26.2a22.61,22.61,0,0,0-1.41-4.67l2.09-.7a24.11,24.11,0,0,1,1.56,4.58Z"/><path class="cls-2" d="M65.39,23.44v2.13h-15V23.44h3.35a9.42,9.42,0,0,0-.51-1.35l1.5-.28H51.3V19.69h5.39a7.28,7.28,0,0,0-.45-1.09l2.54-.37a6.54,6.54,0,0,1,.64,1.46h5.24v2.12H61.4l1.47.3-.63,1.33ZM52.31,26.35H63.65v7.86H61.11v-.53H54.73v.53H52.31Zm2.42,2v.76h6.38v-.76Zm6.38,3.38v-.83H54.73v.83Zm-5.38-9.9a7.74,7.74,0,0,1,.64,1.63h3.25a11.7,11.7,0,0,0,.48-1.63Z"/><path class="cls-2" d="M72.86,30.65a9.48,9.48,0,0,1-4.93,3.11,10.4,10.4,0,0,0-1.58-2,9.55,9.55,0,0,0,4.56-1.85Zm8.79-6.83a29.16,29.16,0,0,1,.63,3.05l-1.58.4c0-.19,0-.4-.06-.62a11.91,11.91,0,0,0-3.17.48c-.1-.33-.35-1.16-.56-1.67v1H72.05V21.53A22.37,22.37,0,0,1,70.33,24l1.18-.26a25.56,25.56,0,0,1,.58,3l-1.58.39c0-.2,0-.42-.06-.65a11.32,11.32,0,0,0-3.12.6,11.68,11.68,0,0,0-.6-1.74,2.39,2.39,0,0,0,1.1-.85c.15-.16.43-.5.76-.94a3.4,3.4,0,0,0-1.19.28,16.69,16.69,0,0,0-.6-1.69,1.42,1.42,0,0,0,.71-.65,11.44,11.44,0,0,0,1.28-2.8l1.84.63a15.49,15.49,0,0,1-1.49,2.62l.54-.05a10.74,10.74,0,0,0,.72-1.33l1.65.93V19.81H73.4a12,12,0,0,0,.24-1.51l2.14.35-.51,1.16h1.64v2.27a1.67,1.67,0,0,0,.58-.6,11.76,11.76,0,0,0,1.29-2.8l1.92.53a14.56,14.56,0,0,1-1.49,2.67l.78-.07a12.83,12.83,0,0,0,.67-1.19l1.72,1a22.27,22.27,0,0,1-1.86,2.48Zm-5.89,5.65v4.66H73.35V29.47H66.88v-2h6.47v-.69h2.41v.69H82v2ZM70.21,25l-.15-.76c-.24.3-.49.58-.74.84Zm4.59-3.48h-.72v.8h.72Zm0,2.4h-.72v.82h.72Zm3.1,5.75a32.15,32.15,0,0,1,4.2,2.52l-1.56,1.7a27.21,27.21,0,0,0-4.08-2.72Zm-1-4.35A2.61,2.61,0,0,0,78,24.51c.16-.16.44-.51.79-1a4.69,4.69,0,0,0-1.39.32,12,12,0,0,0-.48-1.43Zm3.46-.19-.15-.73c-.24.29-.49.55-.74.8Z"/><path class="cls-2" d="M89.47,29.27a28.93,28.93,0,0,1,2.09,3.5l-2,1c-.13-.33-.31-.71-.53-1.15-3.4.85-4.08,1-4.49,1.3a7.23,7.23,0,0,0-1-1.84,2,2,0,0,0,.73-1.61V23.24a12.94,12.94,0,0,0-1.15-1.43,9.68,9.68,0,0,0,2.54-3.53L88,19l-.13.28h3.06v2H89a8.48,8.48,0,0,1,1,.91l-1,.88H91v6.18Zm-2.72-8a12.13,12.13,0,0,1-1.31,1.79h2.21c-.33-.33-.71-.7-1.05-1l1-.81Zm2,3.56H86.42v.58h2.32ZM86.42,27.5h2.32v-.38H86.42ZM88,30.76c-.16-.25-.31-.51-.46-.74l1.67-.75H86.42v1.84ZM98.69,21.3H96.57a5.41,5.41,0,0,1,.72.73l-1.2,1.06h2.15v6.79c0,1.05-.17,1.66-.86,2a6,6,0,0,1-2.7.38,8.48,8.48,0,0,0-.67-2.2c.6,0,1.41,0,1.63,0S96,30,96,29.83V25.26h-2v8.85H91.66V23.57a18.49,18.49,0,0,0-1.39-1.28,9.27,9.27,0,0,0,2.23-4l2.44.63-.13.38h3.88Zm-3.43,1.79A13.61,13.61,0,0,0,94.11,22l.78-.66H94a13.86,13.86,0,0,1-1.06,1.79Z"/><path class="cls-2" d="M113.62,19.28V34h-2.57V33h-7.12v1h-2.44V19.28Zm-9.69,2.35v1.44h7.12V21.63Zm0,3.71v1.53h7.12V25.34Zm7.12,5.29V29.14h-7.12v1.49Z"/></g></g></svg>