<svg xmlns="http://www.w3.org/2000/svg" viewBox="0 0 114.01 49.93"><defs><style>.cls-1{fill:#ceebf9;}.cls-2{fill:#0d171c;}</style></defs><title>05_購買鈕</title><g id="圖層_2" data-name="圖層 2"><g id="圖層_1-2" data-name="圖層 1"><rect class="cls-1" width="114.01" height="49.93"/><path class="cls-2" d="M99.82,17.09a.84.84,0,0,0-.66-.32H81l-.63-2.83a.9.9,0,0,0-.63-.65l-3.49-.87a.87.87,0,0,0-.42,1.68l3,.73,3.57,16.28a.87.87,0,0,0,.84.68h13.7a.87.87,0,1,0,0-1.73h-13l-.34-1.52,14.24-1.65a.93.93,0,0,0,.76-.71L100,17.8A1,1,0,0,0,99.82,17.09Zm-2.13,3.82L95,21.07l.24-2.54h2.85ZM89,23.14v3l-2.13.23-.26-3.12Zm-2.55-1.57-.26-3H89v2.88Zm4.3,1.49,2.39-.13-.27,2.81L90.75,26V23.06Zm0-1.75V18.53h2.81l-.27,2.65Zm-6.31-2.78.26,3.14L82,21.83l-.71-3.3Zm-2,5,2.41-.14.29,3.23-2,.23Zm12.16,2,.27-2.7,2.51-.16-.47,2.6Z"/><circle class="cls-2" cx="95.07" cy="34.83" r="2.04"/><circle class="cls-2" cx="85.03" cy="34.83" r="2.04"/><path class="cls-2" d="M22.08,28.86a15.4,15.4,0,0,1,1.44,2.72l-1.83.88a13.92,13.92,0,0,0-1.31-2.77,11.35,11.35,0,0,1-1.93,3.45A14.1,14.1,0,0,0,16.66,32a7.37,7.37,0,0,0,1.76-3.12h-.78V18h5.29v10.9Zm-.15,0H18.49l2,.48,0,.15ZM19.66,21h1.16V19.85H19.66Zm0,3h1.16V22.8H19.66Zm0,3h1.16V25.75H19.66Zm9.22-2.76v.43h3V28.8h.66v1.65h-.66V31c0,.94-.17,1.46-.78,1.77a5.44,5.44,0,0,1-2.44.33,7.91,7.91,0,0,0-.6-1.92c.52,0,1.2,0,1.38,0s.27-.07.27-.25v-.52H26v2.67H23.91V30.45h-.78V28.8h.78V24.64h2.9v-.43h-3.6V22.55h1.91v-.4H23.79V20.58h1.33v-.39H23.43V18.54h1.69V17.35h2.07v1.19h1.27V17.35h2.12v1.19h1.66v1.65H30.58v.39H32v1.57H30.58v.4h2v1.66ZM26,26.29v.5h.78v-.5Zm0,2.51h.78v-.57H26Zm1.16-8.22h1.27v-.39H27.19Zm0,2h1.27v-.4H27.19Zm1.69,3.74v.5h.83v-.5Zm.83,2.51v-.57h-.83v.57Z"/><path class="cls-2" d="M44.84,30.24c1.61.56,3.31,1.22,4.37,1.69L46.56,33.1a34.1,34.1,0,0,0-4.57-2l1.42-.89H39.17l1.48.66a20.6,20.6,0,0,1-5.41,2.27,16.57,16.57,0,0,0-1.79-1.76,20,20,0,0,0,4.31-1.17H35.54V22.85H47.16v7.39ZM48,22.32H34.68V18H48Zm-9.56-2.57H36.9v.81h1.58ZM38,24.88h6.66v-.56H38Zm0,1.94h6.66v-.56H38Zm0,2h6.66V28.2H38Zm4.09-9H40.46v.81h1.59Zm3.65,0H44v.81H45.7Z"/><path class="cls-2" d="M65.75,30.32v2.29H56.34V31.45c-2,.44-4.06.86-5.67,1.21l-.43-2.16c.62-.08,1.34-.18,2.16-.31v-.6L51,30a19.33,19.33,0,0,0-.48-2.78l1.42-.4c.18.63.35,1.39.47,2V26.39H50.49v-2H52.4v-.88h-.93v-.76a8.5,8.5,0,0,1-.8.71A16.83,16.83,0,0,0,49.88,21a11.09,11.09,0,0,0,3.23-3.73l1.72.81c-.08.18-.18.35-.26.53a15.21,15.21,0,0,1,2.7,1.89l-1,2c-.16-.16-.35-.33-.55-.51v1.57H54.42v.88h1.87v2H54.42v2.92a22.43,22.43,0,0,0,.46-2.6l1.66.41c-.3.91-.55,1.87-.78,2.54l.55-.1,0,.76h1.57c.17-1.21.33-2.62.48-4.09H57.05V23.94h1.58c.11-1.18.2-2.34.28-3.46H57.38V18.19h7.25c0,1.82-.07,3.81-.14,5.75h1.23v2.29H64.41c0,1.47-.12,2.88-.2,4.09ZM55.25,21.5c-.53-.41-1.15-.84-1.74-1.21-.28.42-.6.83-.91,1.21Zm-.83,8.37,1-.16-1-.33Zm6.18-3.64c-.15,1.49-.3,2.9-.45,4.09h1.73c.1-1.23.19-2.62.26-4.09Zm.51-5.75c-.1,1.12-.2,2.3-.3,3.46h1.43c0-1.16.08-2.32.1-3.46Z"/></g></g></svg>