<svg xmlns="http://www.w3.org/2000/svg" viewBox="0 0 34.49 33.9"><defs><style>.cls-1{fill:#00a072;}</style></defs><title>資產 9</title><g id="圖層_2" data-name="圖層 2"><g id="圖層_1-2" data-name="圖層 1"><path class="cls-1" d="M34.19,6.49a1.14,1.14,0,0,0-.9-.43H8.05L7.18,2.14a1.22,1.22,0,0,0-.87-.91L1.48,0A1.2,1.2,0,0,0,.9,2.36L5,3.37,9.94,25.92a1.21,1.21,0,0,0,1.16.94h19a1.2,1.2,0,0,0,0-2.4h-18l-.47-2.1,19.71-2.29a1.28,1.28,0,0,0,1.06-1l2.1-11.62A1.23,1.23,0,0,0,34.19,6.49Zm-2.94,5.3-3.7.22.33-3.52h3.95ZM19.16,14.88v4.17l-2.94.33-.36-4.32ZM15.64,12.7l-.36-4.21h3.88v4Zm6,2.07,3.3-.18-.36,3.88-2.91.33v-4Zm0-2.43V8.49h3.88l-.36,3.67ZM12.85,8.49l.36,4.36-3.67.21-1-4.57Zm-2.76,6.93,3.34-.18.4,4.47L11.1,20Zm16.84,2.76.37-3.74,3.48-.21-.65,3.59Z"/><circle class="cls-1" cx="27.62" cy="31.07" r="2.83"/><circle class="cls-1" cx="13.72" cy="31.07" r="2.83"/></g></g></svg>