<svg xmlns="http://www.w3.org/2000/svg" viewBox="0 0 46.15 46.15"><defs><style>.cls-1{fill:#b8d5e3;}.cls-2{fill:#0d171c;}</style></defs><title>資產 6</title><g id="圖層_2" data-name="圖層 2"><g id="圖層_1-2" data-name="圖層 1"><circle class="cls-1" cx="23.08" cy="23.08" r="23.08"/><path class="cls-2" d="M28.42,12.57H18.81a5.93,5.93,0,0,0-5.92,5.92V28.1A5.92,5.92,0,0,0,18.81,34h9.61a5.92,5.92,0,0,0,5.92-5.92V18.49A5.93,5.93,0,0,0,28.42,12.57Zm4,15.53a4,4,0,0,1-4,4H18.81a4,4,0,0,1-4-4V18.49a4,4,0,0,1,4-4h9.61a4,4,0,0,1,4,4V28.1Z"/><path class="cls-2" d="M23.62,17.77a5.53,5.53,0,1,0,5.52,5.53A5.54,5.54,0,0,0,23.62,17.77Zm0,9.15a3.63,3.63,0,1,1,3.62-3.62A3.63,3.63,0,0,1,23.62,26.92Z"/><path class="cls-2" d="M30.77,17.55a1.38,1.38,0,0,0-1.4-1.39,1.39,1.39,0,0,0-1,.4,1.4,1.4,0,1,0,2.38,1"/></g></g></svg>