<svg xmlns="http://www.w3.org/2000/svg" viewBox="0 0 105.88 102.12"><defs><style>.cls-1{fill:#0d171c;stroke:#00a072;stroke-miterlimit:10;stroke-width:2px;}</style></defs><title>資產 10</title><g id="圖層_2" data-name="圖層 2"><g id="圖層_1-2" data-name="圖層 1"><path class="cls-1" d="M58.88,2.38h0a13.5,13.5,0,0,1,17.87,5.8h0a13.51,13.51,0,0,0,9.61,7h0a13.52,13.52,0,0,1,11,15.21h0a13.48,13.48,0,0,0,3.67,11.29h0a13.52,13.52,0,0,1,0,18.8h0a13.49,13.49,0,0,0-3.67,11.29h0A13.52,13.52,0,0,1,86.36,87h0a13.51,13.51,0,0,0-9.61,7h0a13.51,13.51,0,0,1-17.87,5.81h0a13.54,13.54,0,0,0-11.88,0h0a13.51,13.51,0,0,1-17.87-5.81h0a13.51,13.51,0,0,0-9.61-7h0a13.52,13.52,0,0,1-11-15.21h0A13.49,13.49,0,0,0,4.8,60.46h0a13.52,13.52,0,0,1,0-18.8h0A13.48,13.48,0,0,0,8.47,30.37h0a13.52,13.52,0,0,1,11-15.21h0a13.51,13.51,0,0,0,9.61-7h0A13.5,13.5,0,0,1,47,2.38h0A13.54,13.54,0,0,0,58.88,2.38Z"/></g></g></svg>