<svg xmlns="http://www.w3.org/2000/svg" viewBox="0 0 83.31 44.86"><defs><style>.cls-1{fill:#00a072;}</style></defs><title>五步驟</title><g id="圖層_2" data-name="圖層 2"><g id="圖層_3" data-name="圖層 3"><rect class="cls-1" x="1.42" y="3.19" width="80.46" height="38.48" transform="translate(-1.68 3.44) rotate(-4.64)"/><path d="M19.41,30.3l1.26-2.06a4,4,0,0,0,2.76,1,1.85,1.85,0,0,0,1.88-2.19,1.81,1.81,0,0,0-2.06-1.85,2.9,2.9,0,0,0-1.78.78L20,25.22l-.19-6.44,7.28-.59.21,2.58-4.62.37v2.21A3.27,3.27,0,0,1,24,23a3.79,3.79,0,0,1,4.38,3.77,4.5,4.5,0,0,1-4.32,5A6.19,6.19,0,0,1,19.41,30.3Z"/><path d="M43.36,22.22l.33,4.11a9.71,9.71,0,0,0,3-3.9l2.59.93c-2.4,5.21-6.91,7.38-13.41,8.86a8.54,8.54,0,0,0-1.46-2.31,25,25,0,0,0,8-2.7L41,27.32l-.39-4.88L33.88,23l-.2-2.39L36,20.42l-.32-3.85,2.58-.21.32,3.85L40.78,20l-.4-4.87,2.74-.22.09,1.13,5-.4.2,2.37-5,.4.11,1.36,6-.49.2,2.39ZM40,23.7a16.3,16.3,0,0,1-3.71,4.41,18.23,18.23,0,0,0-2-1.73A10.21,10.21,0,0,0,37.53,23Z"/><path d="M58.16,22.35s0,.56,0,.82c.16,4.1.09,5.79-.28,6.41a1.52,1.52,0,0,1-1,.77,8.67,8.67,0,0,1-1.55.2,5.69,5.69,0,0,0-.64-1.9,8.29,8.29,0,0,0,1.07,0,.47.47,0,0,0,.43-.27,2.7,2.7,0,0,0,.19-1.1l-.39.19a12,12,0,0,0-.79-2.2l.81-.36c.13.23.26.52.38.79,0-.35,0-.77,0-1.22l-4.45.36-.8-9.92,6-.48.16,2-1.41.11.06.7,1.22-.1L57.26,19l-1.22.1.06.75,1.22-.1.15,1.88-1.22.1.06.75Zm-6.71,7a23,23,0,0,0,.4-3.91l1.23.32a24.73,24.73,0,0,1-.34,4Zm1.71-12.56.06.69.85-.07,0-.69Zm1,8.74a18.47,18.47,0,0,1,.38,3.22l-1,.22a19.15,19.15,0,0,0-.33-3.25Zm.11-6.23-.86.07.06.75.86-.07Zm-.58,3.45.85-.07-.06-.75-.85.07Zm1.17,5.62a16.62,16.62,0,0,0-.61-2.83l.89-.24a14.36,14.36,0,0,1,.68,2.78ZM58.21,20l-.33-4.08-.29,0-.14-1.69,4.88-.39.14,1.69-.3,0,.14,1.69L63.54,16c.3.22.6.48.94.73.09-.34.17-.7.23-1.07l-2,.16-.15-1.79,2.65-.22.33-.06,1.15.17A13.73,13.73,0,0,1,66,18a17,17,0,0,1,1.58,1.49L66.21,21a16,16,0,0,0-1.11-1.18,6.45,6.45,0,0,1-1.36,1.4,7.17,7.17,0,0,0-1.23-1.47,3.83,3.83,0,0,0,1.18-1.22c-.47-.41-.94-.81-1.37-1.16l.33,4.07-1.71.14,0-.56c-1,.28-1.92.55-2.77.77l-.49-1.68Zm8.43,3.23c0,.4-.09.83-.15,1.22a6.06,6.06,0,0,0,1.34,2.47,7.11,7.11,0,0,0-1.08,1.35,5.43,5.43,0,0,1-.89-1.45,6,6,0,0,1-1,1.71,10.62,10.62,0,0,0-.6-1.36l.21,2.64L62.27,30l-.16-2-.92.79a14.2,14.2,0,0,0-.81-1.6,6,6,0,0,1-1.19,2,10.08,10.08,0,0,0-.87-1.82,6,6,0,0,0,1.23-3.49l1.51.23c-.05.36-.09.69-.15,1,.38.55.78,1.17,1.1,1.7l-.27-3.43c-.82.15-1.65.25-2.41.35a6.47,6.47,0,0,0-.67-1.51,27.93,27.93,0,0,0,6.13-1.37l1.77,1.26a19.18,19.18,0,0,1-2.67.83l.29,3.5A7.37,7.37,0,0,0,65.13,23Zm-7.06-7.45,0,.31.89-.07,0-.31Zm.16,2,.89-.07,0-.42-.88.07Zm.15,1.82.87-.22,0-.38-.89.07Z"/></g></g></svg>