<svg xmlns="http://www.w3.org/2000/svg" viewBox="0 0 103.04 90"><defs><style>.cls-1,.cls-3{fill:#b0cddb;}.cls-2,.cls-6{fill:#0a171d;}.cls-3{opacity:0.36;}.cls-4{fill:none;stroke:#b0cddb;stroke-miterlimit:10;stroke-width:2px;}.cls-5{fill:#00a072;}.cls-6{font-size:22.61px;font-family:BasicSans-Black, Basic Sans;font-weight:800;}</style></defs><title>貨4</title><g id="圖層_2" data-name="圖層 2"><g id="圖層_3" data-name="圖層 3"><rect class="cls-1" x="25.04" y="12" width="78" height="78"/><rect class="cls-2" x="30.5" y="17.3" width="67.08" height="12.7"/><rect class="cls-1" x="32.04" width="8" height="12"/><rect class="cls-1" x="89.04" width="8" height="12"/><rect class="cls-2" x="30.04" y="36" width="12.36" height="12.36"/><rect class="cls-2" x="48.59" y="36" width="12.36" height="12.36"/><rect class="cls-2" x="67.13" y="36" width="12.36" height="12.36"/><rect class="cls-2" x="85.68" y="36" width="12.36" height="12.36"/><rect class="cls-2" x="30.04" y="54" width="12.36" height="12.36"/><rect class="cls-2" x="48.59" y="54" width="12.36" height="12.36"/><rect class="cls-2" x="67.13" y="54" width="12.36" height="12.36"/><rect class="cls-2" x="85.68" y="54" width="12.36" height="12.36"/><rect class="cls-2" x="30.04" y="72" width="12.36" height="12.36"/><rect class="cls-2" x="48.59" y="72" width="12.36" height="12.36"/><rect class="cls-2" x="67.13" y="72" width="12.36" height="12.36"/><rect class="cls-2" x="85.68" y="72" width="12.36" height="12.36"/><rect class="cls-3" x="85.68" y="36" width="12.36" height="12.36"/><rect class="cls-3" x="85.68" y="54" width="12.36" height="12.36"/><rect class="cls-3" x="85.68" y="72" width="12.36" height="12.36"/><line class="cls-4" x1="85.54" y1="48.5" x2="98.04" y2="36"/><line class="cls-4" x1="85.54" y1="66.5" x2="98.04" y2="54"/><line class="cls-4" x1="85.54" y1="84.5" x2="98.04" y2="72"/><circle class="cls-5" cx="20" cy="21.72" r="20"/><text class="cls-6" transform="translate(12.48 29.55)">2</text></g></g></svg>