<svg xmlns="http://www.w3.org/2000/svg" viewBox="0 0 104.04 74.98"><defs><style>.cls-1{fill:none;stroke:#b0cddb;stroke-miterlimit:10;}.cls-2{fill:#b0cddb;}.cls-3{fill:#0d171c;}.cls-4{fill:#00a072;}.cls-5{font-size:22.61px;fill:#0a171d;font-family:BasicSans-Black, Basic Sans;font-weight:800;}</style></defs><title>購1</title><g id="圖層_2" data-name="圖層 2"><g id="圖層_3" data-name="圖層 3"><line class="cls-1" x1="76.04" y1="65.48" x2="104.04" y2="65.48"/><line class="cls-1" x1="18.54" y1="65.48" x2="58.54" y2="65.48"/><line class="cls-1" x1="45.04" y1="74.48" x2="69.04" y2="74.48"/><rect class="cls-2" x="25.04" width="49" height="55.79"/><rect class="cls-2" x="77.04" y="18.2" width="25" height="37.78"/><path class="cls-2" d="M43.27,68.7A9.73,9.73,0,1,1,53,59,9.73,9.73,0,0,1,43.27,68.7Z"/><path class="cls-3" d="M43.27,50.75A8.23,8.23,0,1,1,35,59a8.22,8.22,0,0,1,8.23-8.23m0-3A11.23,11.23,0,1,0,54.49,59,11.24,11.24,0,0,0,43.27,47.75Z"/><path class="cls-2" d="M80.81,68.7A9.73,9.73,0,1,1,90.54,59,9.74,9.74,0,0,1,80.81,68.7Z"/><path class="cls-3" d="M80.81,50.75A8.23,8.23,0,1,1,72.58,59a8.23,8.23,0,0,1,8.23-8.23m0-3A11.23,11.23,0,1,0,92,59,11.25,11.25,0,0,0,80.81,47.75Z"/><circle class="cls-4" cx="20" cy="21.69" r="20"/><text class="cls-5" transform="translate(11.97 29.51)">4</text></g></g></svg>