<svg xmlns="http://www.w3.org/2000/svg" viewBox="0 0 106.04 72"><defs><style>.cls-1{fill:#b0cddb;}.cls-2{fill:#00a072;}.cls-3{font-size:22.61px;fill:#0a171d;font-family:BasicSans-Black, Basic Sans;font-weight:800;}</style></defs><title>貨3</title><g id="圖層_2" data-name="圖層 2"><g id="圖層_3" data-name="圖層 3"><rect class="cls-1" x="23.04" y="17" width="83" height="4"/><polygon class="cls-1" points="102.04 34 102.04 68 27.04 68 27.04 34 23.04 34 23.04 72 106.04 72 106.04 34 102.04 34"/><polyline class="cls-1" points="33.04 64 96.04 64 98.04 61 95.04 59 92.04 59 92.04 56 90.04 54 87.04 52 83.04 51 81.04 52 81.04 54 78.04 55 76.04 57 75.04 58 69.04 59 68.04 56 67.04 56 64.04 56 62.04 57 60.04 59 56.04 55 53.04 54 50.04 53 47.04 53 45.04 58 42.04 59 40.04 59 37.04 60 35.04 63 33.04 64"/><polyline class="cls-1" points="34.04 13 97.04 13 99.04 10 96.04 8 93.04 8 93.04 5 91.04 3 88.04 1 84.04 0 82.04 1 82.04 3 79.04 4 77.04 6 76.04 7 70.04 8 69.04 5 68.04 5 65.04 5 63.04 6 61.04 8 57.04 4 54.04 3 51.04 2 48.04 2 46.04 7 43.04 8 41.04 8 38.04 9 36.04 12 34.04 13"/><circle class="cls-2" cx="20" cy="23.72" r="20"/><text class="cls-3" transform="translate(14.39 31.55)">1</text></g></g></svg>